<mxfile host="Electron" modified="2024-02-16T08:46:13.439Z" agent="Mozilla/5.0 (Windows NT 10.0; Win64; x64) AppleWebKit/537.36 (KHTML, like Gecko) draw.io/21.2.8 Chrome/112.0.5615.165 Electron/24.2.0 Safari/537.36" etag="M7mBW5exD_3YVuIUq0-H" version="21.2.8" type="device">
  <diagram name="Page-1" id="2XWkQP5S-hDbL94sL5Vg">
    <mxGraphModel dx="2058" dy="1180" grid="1" gridSize="10" guides="1" tooltips="1" connect="1" arrows="1" fold="1" page="1" pageScale="1" pageWidth="3300" pageHeight="4681" background="#999999" math="0" shadow="0">
      <root>
        <mxCell id="0" />
        <mxCell id="1" parent="0" />
        <mxCell id="APLwThIm-aDqV8bCMrbt-1" value="Save the states." style="rounded=0;whiteSpace=wrap;html=1;fontSize=25;fillColor=#dae8fc;strokeColor=#6c8ebf;" parent="1" vertex="1">
          <mxGeometry x="1298" y="140" width="650" height="60" as="geometry" />
        </mxCell>
        <mxCell id="u0UqpJZuKl6VXHUkiSyG-1" value="" style="shape=image;verticalLabelPosition=bottom;labelBackgroundColor=default;verticalAlign=top;aspect=fixed;imageAspect=0;image=data:image/png,iVBORw0KGgoAAAANSUhEUgAAAogAAAIMCAYAAAB2aF10AAAAAXNSR0IArs4c6QAAAARnQU1BAACxjwv8YQUAAAAJcEhZcwAADsMAAA7DAcdvqGQAAP+lSURBVHhe7H0FgF3VtfZ3/Y5b3D1EICEQXAul0Ja6u71X9776a0vd+WmpC4WW9tWFQltoKcVJiLvrTDLuc/3ef31rnzOZSS4hCZLMzPrurHv22bL22vucmfPN2nICCxaeXgBRKMAFBkLijox8bBxX5sE48ZKGpw4n4aoMoRvB7lmD4dRFwDsOCZwUY4dUD40IPKErEjj20i7r4Pwu6rA4JYhHkMMixLAogRzqOAktOsEqh1/fj3QMoStqN99Th2P/m244bljnnmo4KVfkhCsdXvePtuZwAugiNUwcnicwf8HCQX/+C4czw+Mihk/gSXISHkInocqTgJHRsSPjWhoMhlMZgx+/TxOe9kpPSiuHFE64h55Q1x5bYc11jESxnyAenRh6ITkclmuI4wRb8wQ6YXj131OBk9BDI+Si2L1nOFkY/Dg6xXFSjB1SPfS04wn1zgkXHj7XRFty6EvhTge3cSBR5LcQxAVFuKEf4R3lcGwPl2PLVRQnWPQJ1HiS8PQ2dOj1z0jBELoydhOdehj8d91QFNZJR8NJ6Z0TrnRoXctTr5lOsX4f+lIEjkYS581fcOjP/+FeQ/fj4fDzUwVPwKITLHrq9cHR8PT3zxPB0OrbkwHrIcNIwuCHl+FInHAPPf0FhxQO403HiVOvjw73Dg748oIuTPh5+wni4V7DQ6eHz0EcfDYIR0l6PDyBoieO/kYeH06KrScFJ9jSEdJBI+c+MBgMx4JDj9inESdc6Umx9mnHyemeEyv81FV5KFFDHhkcSBqJw9MC8+bNH0CTJOR+NDyYPx1+XgyPm+GxcYJFn0CNTwAjpZ0jBUOod4fYjWD37VODQ3/ShzlOSkNHTO8+7Tjhnn1Cl+Tpv56nYjs11SN/hE8OvYP/NShf4DQhiBqSP+X9BFAC4UgEZWWliEaiiMaiCIVCT+lf+8P9lIbDMKS65+k31u4eg8FwsuEeq083Tk6tJ4QhZOrJgEfXnhqI6lwuh1QqhXQ6g76+PmQzGYl3dfqEsf9bIjyCOJgcVlRUoKq6Cq0d3UgkM0iKskw262U4hVCMFbj2PUHG4CsxGE4Udg8Znmwc7z3l/xG0e/HEMPAhcjx9+FgPn5N9HZ7QQ3EEYyj322DbI+Ew4rEwSmJRjKqtREdHJ7q7uuTWdPfm4SRRCOK8/umHDIwaNUpUBnGgpR3pzClICgfimK8bm/pYmV1nGAxPLuy+MjzZsHtqaOCpetYM1Hsiuo75gWlQDIf+euw2RCNhjB9dg3AIaGpq9mLlztJby91fQUcO6UEsoLKiQkJB7DnQfOqTw2OG/4tU7BfqRH7JDAaD4emG/a0a2ngyrt8T1XF4eZ7bfTVSQY63p6EZ2Rx01Nh5Cv3RZEcsg34EXY8cVqbncPhi4C+D/WIYnirYvWV4MmH309DCU3m9qPuJ6PfLD9TxRPSNNBzed0MfB5rbUV1VpRzwkMPQHT0PIlBWXqZzDoeP55AodiGH3wU2nEz499NAMRgMIxv2d2D4YeA1HT7Xl5yvpb0LpWWleu5zQh6DfoirlbkgxWAwHCuO5Y+E99tmMJwQjGgMXQyla2f32fFj+PRZIpVWDuizQ3+4OcgIBrmVDVcrnxI42jPV2X30PAq74Q1PJY7n/nrcm9UwYsH76LHuJfsbNvRxtOtrOLUx8LoN72uYTGURi8Xck8ojiTwJzJ4zVw4FTJs6DRt27HMJj4HK8jJEuOTlOJHJ5tDV0+udPQ4GPksPvyYD0x4X9ktpeKpg95ahGB7rvjjaH66BZQ7PZ/eZ4WTguB60IxxDoa+OzcYFsyZj957dEgr0r2RWgkh34rRpU7Fxx37GPiau/+qXMHPWLO+sOPwXP9cfbOknor1drfjAhz+KYPAYyOVj/Y08oetgf2ANTwbsPjIcDcdyfxT7A1asnJ/P7jnDqYITeviOEAyVvnl8O+fPmoTdu/ccIocSCLqx5mNDdVUlFpw2+6gyf+4slWdeeh6uuszJ6FF13pj246BYFsYdu4kCts7/4+oXPi4FhmGNgffHseB48hpGHo71/jg832OVY7zdc4ZTCUP7nvzcpz+GvdvWoH7n+qLCNOY51fDg3bfjgnOXemdHgmkP/Ouv3tnj4Vivn7+CWUISCMyaPUdPj8WDeMuPv4dJk2biT/dtQyAohSkhSh7PXjQL48ZWoccbSi4rK8PvH9il4ekVfXjNG9+CUCh8iKsVsffNr38NPvupj3tnwE233IpPfuYL3tmx4HClA4nhk3uDv/kNtPXQTTVxxgIvdGLw9b3o5a/DI8tXeLFPPtaveAA1NdXeGdDe3oGFZ13onY0EDLwPjuUfhyf3vjEMNxzv/XGUP4AGwymNY/l7eeqBBPCZz34xDjQ2ejGDUVtTg3v/eRumzF7kxRwPnro+IQG88f99Be9630fw4CPLvViHo6U9No5uq/Mg+kPM7u+TW8V8jGCRQCCEXZ092N3djT19XdiX6sT+TAcymbwwThHv4yMUzXmhw3CYrZ//9CeUHE6cMb9fFp2+0Es9Fhz6g/v5z3wCt/3+lxJ6av4In7v0LLz/3W9XUkghqWOdRwPLkJwNRP3ODV4I+MnPfqG6nkpy6IP2+rYvX7FK7aB9wx+H3w+Pd388NfePYbjgRO4PlrH7yjCUwIf1U0eEnmqEQiElh11d3UVl9569mufE8NT9LpP4kQCSCA70JJ4YOTwxHBdBzOXdTTK6LoZANIvObBeak61oTLjXtAQOu4fiNUmUjurzzgSH32MDzt/4ulcLYZnvnTlc++JXeqHHw9Eu0pP/B3nhgnnYtXuPdwYldcfn6Tx18Mb/fhfu/Oe/8cmPftCLGWmwh7XhRGD3jWG4gw/owx/ahiPx1P0tOJwkPjFyePx2HhdB9G+VTY37savjADqy7UigG+lAj8YXvPoDniFl1T0oLXdpjwlRSu/hylVrvIgjcf/df9MhWIeAd/5aDd/0w++oB4xCryE9eW983auw5MxFGueXo/fOz3f/3XdoHOGX8dMYvumHN/afF/Os0dtH/cxXDAProj7q+MOvb9GhXcb5+gkeacNADyNtpo2M9/UMtGOgfupy3lLnpfTjKceK+x98eNCw8+H2EzyyHtrFeIZp5+H5iIHxh6edPBztl6NY2vH/MhkMBsPQgk8CDyeCh58bHIr1FcHnxVPzzBhIEp8uz6GP4x5iJhJCCCMlGUTiGYRjaUREFNJvPjkkThs9GbOqZ7iTx7nfWlrbvNDRMPgCkBAtPevM/uHSa1/8KvXk3XTLL5VwMo5kjqSGQ6l+Ps6780kVQULJ+E999ksaJnh+NM8a02fPmqEE6BB5JZm9A9d/+3v9db3g2merh5HDuqyXcfTa8UjwSLsPx/RpU7Fm3QZNH2gH7ab3kvEUtt/HN77yOW2Dn3asWL9hk75qhyhmvw8lxdK3jGd4YL/5+XhN/LmUvg7mG9hHpyaeml9uw3AA743DxWAYeSi2yKOYGIYH+t+kcjz/MCgxFInEKAMIovzdHKhmVs1MlWPBqLpaL/RYOPKPsj9fj6TmaCDZIinz8fkvf0PjfJD0ECSThJ/3cM/a4bjoGc9WAkRC5HvJqJfnvveM5U+EHJEE+sPWA+2gftrv40+3HWr7tu07te6B3sZjAYfMOzo7NXw0+0m6/T6ifQP7zbfv2udcrfkGzqUkwb3ogvO8s1MZRgAMA2H3gmG447H+5hW/7yfOWHhMMnxRrK98HAeJOg4MHFYeONz8pIPmaxPky1vKfFweRB+OHDpiGOUx6gii28rGKeYxnckgkUh65z78Dj7Uybfd/nf1SJ0IuAKXRIVkZqBX8PHgE6InA/SgXXbJoZXAvufMF59UPVl4rIUsvmfyJ9//lvbHsYLeP5JLH0+F/fUNB7zQ04GB99jge81gMBgMxwL723mycficw8PnJD7VOHaCSN4n90oqlcC5o2bi7JrZWFI5B4vL5uGMkgUaT/hDzOSK+XweOZFDOPxmczfgI8tXqtdp/YoH++Mot/3+V3rk0KzvgaJ3bKD3jyCB4ZCmH0/v1kDPn3q7BswX5HDtQEJ0vKC3cKBXkLbRRuLwunyQ1A20iWCZ4/X2kdgO1D9wCNgHSTPtOBbPJUk1+833mj6W/ccKn+wPbNdVV16u8QbDqQf/783hKBZnMIxEDO3fhVwup1vZPBbGjRujeU41PNaClKeTJD4+QRzgFCTXmzd3Mt56+ZV466VX4b8uvgZvufh5ePOFz8dpcyehtLQMY8aMRm1dLSLRiBLEYNC/uY5+k3Eenr/lii/+8CmHVEkyGEfvGEkMQRLi5+UiEM6dI0gYSXoYT5LEoWDO1fPzEgOHnI8XHPrlNje+Ps5F9OcRsi7fVoq/8ISg3YzzCRjPaffxeD4P188+8+EvIKGQfD6W5491+vmIgfsgHs3+YwGJMD2qA+vg+WN5PY8fvI+Odi8N7T9mhqcTA++Vx7uvDIaRjKH7u3HzL/5P9zksNleSsuy+uzTPE4M/cvrkgPsQfu2Lnz6CHPrwSeLXv/QZL+apgdsou8BX7U3Dxp37j9rO9wkpOnPxYw8FB4NBFbLxgW9OWbtmHb52/bcQ5EbZhicVPtl8IoR3aMH/Q/VYN6o95A3HArtPDIbjx8C/uwN/h55cgjT08OS3nyTxeN50d+wornP+TG+jbLmsOhIs9Q8miI/zJhUaW8gL+fPOD+Hof2yZGgiG+nfnNjw5oAeVnjp66J7seY6nLvx7qNhNbveX4Vhh94rB8OTiqSAzQwFDsd1H2lyMIB7fNjcsEIogdISEjyr0HBo5fHJAj6E/dEtyyAU6I4ccGgzHA/7NeSwxGAxPLkbi79ZQJcXHdp0ew4PIwuahMTwdGHhPPd4v2+H338D8dm8a7B4wGE4dDFXydDwYym0cbPtxeBCLNdr++BqeahztHiuWxjhfDMMXA6/zQBmIw88NBsPJRbHf0+GG4d2+Yxxitj++hqcCdl8ZHg9Hu0fs/jEYTn0M99/T4du+45qDaDA89eAvWzExGAwGw9DEcP8bPjyfU0HOPzz6KLo9nA1PBey+MjwZGJ5/mA0Gg+HphnJB+fI54eN4EO0Pr8FgMBgMBsPRcXRX21DEYQTR/2/c/is3PFEcfi/5QvhHg+FosPvEYDCc6iAxHIrk8PH/vtocRMOTAJ/8DZTHwtHSDAbi8e4hg8EwtDD8vGsOw7VdDoFZs2bry1ymT5uGt994s4s1GAwGg8FgMIwIfO9dr8eu3bvdv+aBgHsxiqYYDAaDwWAwGAweBhFEf2DHxMTExMTExMRkZEgxmAfRYDAYDAaDwTAIj7OK2cTExMTExMTEZHjLkbAhZhMTExMTExOTESzFYEPMBoPBYDAYDIZBMIJoMBgMBoPBYBiEwMxZswvc7JH7IL7r2z/3og0Gg8FgMBgMIwHffvdrsXvXbmGF3AORw862D6LBYDAYDAaD4TAYQTQYDAaDwWAwDIKtYjYxMTExMTExGcFSDId5EIsVMzExMTExMTExGb5yJGyI2WAwGAwGg8EwCDbEbGJiYmJiYmIygqUYzINoMBgMBoPBYBgEI4gGg8FgMBgMhkGwIWYTExMTExMTkxEsxWAeRIPBYDAYDAbDIChBLOjL9gwGg8FgMBgMIxE+D/Q5ob6LWYDp06fh/d++1aUaDAaDwWAwGEYErn/3q7Fr124E+CJmAY82xGwwGAwGg8FgGAQjiAaDwWAwGAyGQbBVzCYmJiYmJiYmI1iKwTyIBoPBYDAYDIZBGEwQuWzFxMTExMTExMRk5EgR2BCziYmJiYmJickIlmKwIWaDwWAwGAwGwyAcRhCL8UoTExMTExMTE5PhK0fChphNTExMTExMTEawFENQ36nCGYqPMUnRYDAYDAaDwTCMoRyQXNAjg3K0OYgGg8FgMBgMhkGwIWYTExMTExMTkxEsxWAeRIPBYDAYDAbDIBhBNBgMBoPBYDAMgg0xm5iYmJiYmJiMYCmGwzyIxYqZmJiYmJiYmJgMXzkSNsRsMBgMBoPBYBgEG2I2MTExMTExMRnBUgzmQTQYDAaDwWAwDIIRRIPBYDAYDAbDIBhBNBgMBoPBYDAMQmDGzFkFvnNv+vTp+Oi3fuVFGwwGg8FgMBhGAr78nldi165dwgoD8iMiceZBNBgMBoPBYDAMwmEE8fB1LSYmJiYmJiYmJsNbjsQgglisiImJiYmJiYmJyfCVYrAhZoPBYDAYDAbDIBhBNBgMBoPBYDAMgg0xm5iYmJiYmJiMYCkG8yAaDAaDwWAwGAZh0D6IH//W/3nRBoPBYDAYni6URHehNLod8Ui9yH7EvGMk1I5QsNeTHs2by5f1SyZXi2RmElKZiXpMyrEvPQuJ9HTNazAcC774nlccsQ/iIIL4CSOIBoPBYDA85agsWYmK+GqUxzegLL4R5bH1QgATXuoTQy5fgp7UQvQm56MnuQDdycXoSizxUg2GI/GFxyeIv3Y5DQaDwWAwPGkIIIeqsodRXfqQyIOoKn0YwUDKS31qkS/E0Nl3Hjr6LhA5H52956GAkJdqMJAgvrzYm1QKLtVgMBgMBsOTCg4dT6r9Ac6Y8nKcOfV5mD76S6gp+8/TRg4J1sU6WTdtoC20ibYZDD4cG5TvQkHDgRkzZ2qIHsRPmgfRYDAYDIYnjOqy+zGq/O+orbhL5xaeiuBcxbbuZ6Kl52p09F7kxRpGIj7/npdj565ddCBC/YcSsFXMBoPBYDA8SagqXYZZ4z6G+RPfgkl13ztlySFB22gjbaXNtN1g8GEE0WAwGAyGJ4jy+HrMHPsZzJv4X5hU+0NEw81eyqkP2kqbaTvbwLYYDLZRtomJiYmJyQlKMJDFhJqfYe7492Jy3bd1a5qhCtrONrAtbBPbVqzNJsNPiiFUU1v7GQZqampw6dUv1UiDwWAwGAxHR1XpQ5g2+quYOvqbiEUOerFDH2xLXcWdShgz2VqkMpO9FMNwxb1//x3aOzpsDqLBYDAYDE8E42t+hjkTPoix1cN3/2C2jW1kWw0jD4NWMX/qht940QaDwWAwGA5HNNyIiXXfV3k6t6o5meA+ivWtb1NJZ8d6sYbhhM++92W2itlgMBgMhhNBZelyzBz/UUwedcOIIYcE28o2s+3sA8PIgBFEg8FgMBgeB9xoetqYz2N05Z+9mJEHtp19wL4wDH/YKmYTExMTE5OjyKiKOzBt7OdQXXafnI1ssA/YF+yTYn1lMjSlGMyDaDAYDAbDY2BM1W+VEFWUrPRiDOwL9gn7xjB8EdTX7nkfg8FgMBgMDnUVd2Dy6G+iNLbFizH4YJ+wb9hHhqEPxwGVEPazQRtiNjExMTExOUw4z87I4dHhk0T2VbE+NBk6Ugw2xGwwGAwGwwBUlC5X4mPDyo8P9pH2la1uHnY4jCAW45UmJiYmJiYjQ6LhJkys+x6qbEHKMYN9xT5j3xXrU5OhIEfChphNTExMTEw8mVD3fYyq/JOEDMcD9hn7rlifmpz6Ugw2xGwwGAwGg2BczU1Ccr7nnRmOF+w79qFheMAIosFgMBhGPCpLH8L4uh+MqDekPNlg37EP2ZeGoQ8bYjYxMTExGdESDGQxtubntmL5SQD7kH3JPi3W1yanphSDeRANBoPBMKIxpvrnIr/yzgxPFOxL9qlhaMMIosFgMBhGLMri69XjZXhywT5l3xqGLgYPMRdMTExMTExGjoyu+i3KS1Z5T0HDkwX2Kfu2WJ+bnHpSDEGN708sNjJtYmJiYmIy/ISbO9dV/UHChqcC7Fu3gXbx/jc5lUSooHDBfjooJzbEbDAYDIYRCRKYWGS/d2Z4ssG+NQI+dGGrmE1MTExMRpxUld2PUUZennKwj9nXxa6ByakjxWAeRIPBYDCMONRU/A0RfTWc4akE+5h9bRh6MIJoMBgMhhGFeHQnqivu9M4MTzXY1+xzw9CCEUSDwWAwjCiQsJTEtnlnhqca7Gsj5EMPNgfRxMTExGTESDCQQ42Rlacd7HP2fbFrYnLypRjMg2gwGAyGEYOK0odQVX63d2Z4usA+Z98bhg4OI4jFeKWJiYmJicnwkIoyIyknC67vi18Xk5MtR8KGmE1MTExMRoxUlj4g34aTAfZ9sWticvKlGGyI2WAwGAwjAmUlK8yDeBLBvuc1MAwNGEE0GAwGw4hAWckqBAIp78zwdIN9z2tgGBoQglhw796Tr2JuRxMTExMTk+EgZfH18m04meA1KHZtTE6uDHgJs76HmafmQTQYDAbDiEBJfIMXMpws2DUYOjCCaDAYDIZhj1h0J0rj67wzw8kCrwGvheHUxyCCWMztaGJiYmJiMtSFb/MIBhMSMpxM8BrwWhS7RiYnT4phsAexINlMTExMTEyGmUTD9d6DznCyodeiyDUyOYlSBDbEbDAYDIZhj2h0vxcynGzYtRgasCFmExMTE5NhL7GIkZJTBbwWxa6RycmTYjAPosFgMBiGPaJGEE8Z2LUYGjCCaDAYDIZhj3C41QsZTjZCoTYvZDiVYUPMJiYmJibDXoLBHvk2nAoIhXqKXiOTkyfFYB5Eg8FgMAx7BIO9XshwsmHXYmjACKLBYDAYhj1CRkpOGYTMmzskcNgQs33sYx/72Mc+w+9jOLUw8NrY5+R/isE8iAaDwWAY9sjly72Q4WQjny/zQoZTGUYQDcMChUIBhXzaOzMYDIbByBtBPGVgZH1o4LAhZhOToSm7V38IDVuuL5pmYmJiks+Z1+pUAT2Ixa6RycmTYjAPouGURuOO65FNNnhnRyLVtw/r77kcHY23o6dtmRdrMBgMg5HN1Xohw8lGNlvnhQynMowgGk5ppHq3Ysejz0fDlv9FPjt4FWKiZzs2PfA8pJMHUCgE0NezxUsxGAyGwchkJnshw8mGXYuhARtiNjmlJZ/rRiGfRXfzX4UoPhd9Hcs0vpBLYdvDr5f0hJxJ3mBBIrNHlDcxMTGhZDIT5dtwKoDXotg1Mjl5UgzmQTScFBTyGS90dOQyrQiGSBRFMh3Yu+5t6Gm7H631f0E20655CgW5jYUfErlMtwsYDAbDAKTT5rU6VWDXYmhgMEEsCI80MXlKBUh1b8WWh68tknak5LNdQgDlPxy5U/M8ioK9696N+q1f02Fll483L1OA3s4Ng8qbmJiYUDKZSfxDYTgFoNeiyDUyOYlSBDbEbDJIuprvLRr/eJJL1+PA9nehec9n0N36JxTyfUXz1W/+CHavfaWwvU65KfNF8wyUfD4polmRSRWUBFLCQX9Lm4AOL5NEllcFkOjceIQOExMTk1RyjvwtKZWQ4WSC14DXotg1Mjl5Ugw2xGxQZNItWPufK3Bw10+8mONDIFiK3s670NnyKzTu/gh2rjkXeze+GLmsEEFBQRje7rVvEPJ4J7LZvJwL8cs9/uuW8sIOg3KXcpg5EnW3cUFdiQGJD/R7ESNRIY2RgujerHmKoaPxF0gltnlnBoNhJCGdnoFk8nTvzHCywGvAa2E49RF0LhnfL2MYiUj07MT6+69BOrkfyb4dXuzxIRSuFJIYE/LmSFw+m0aydwN2rb0a2UwrDm7/Gvq6VqsnkIRP+B1y3hzCoyOiZXSYWcrQi+g8igUhjSE5yi0sBLG0khtlB5Dq/bvU1+KVdcimD6B+2xvRtO9z6O2404s1GAwjDYnEQi9kOFmwa3CqQh6yfNC6H4UNMY9wyeV6sGXZK4Ssca5fQAhYi4Q7i+Y9uoQQCpEkClHLebGBgpCzTuzf/Fa01P9K77pcVpK8uy+baT5Mx5ESjtTpPZvNOmJIkqj3sIi+P1LqiMQKLl7y5/NpNO3+H2QSe8SOPnS1/Ba7118t5PRBSQX6uh8apN/ExGTkSCpp5ORkg9eg2LUxOblSDDbEPMKxd8N1QtTcMHAgKAxMaFayd6eeHy9C4Rr14vFuy+fk1hLCSSKX6NkoqW7+II9ccMKTVO8ujTkaKmrOV2IYFAaYzzmS6MORRKC0gkPWEvbu8t6uB7BtxfNQv+3daNzzSSmT1HgmZ9ONktdZYjAYRhYSiTPl9z/mnRmebrDveQ0MQwNGEEcsOCSbQUvDXyUsRC4fkijHsNoO3K7H40W0ZIZ6EIMioXBOCJ3oU5LIhSRC4kj0Qo40UjLJg17JwWje9xsc2PE97Fr3CfR07ZC8JIaO1HF4Opel7aJDhGRThYmSReuUs1Akg77uBxir5/6Bi2faGn7TT4oNBsPIQV/f2ejtvcA7MzzdYN/zGhiGBgYRRPdoNRkJ0te9HAd3fU8JnOfa60fbwX8ULfN4UlZxiXw7dU6lxAY85RLMpIXYyWlWjuR73AB7YHlfmvb9Gvu33yDk9ffoanuknwyyrA4zSx5qJXEsLaciV1DJaYjk0ZFQguQ0yKHuVFjJYzbThsZdX0HLnu8cqrOQQ0v977Bj9fuxZ+N1h+JNTEyGnfT1XijfhpMB9n2xa2Jy8qUYDvMgFitmMhylftt/o735hxImGCfwvH2ch3h4/mORippnKTnj8HI+G3KELuc8k+SJvicwwNXHQvRiJVOK6qkb/yw5kuE5lpfJZDR/LicxcmQ29SKK3lDUHVmXCuvPyjlLM55kUcKhSM6RR9ogSjpbuVglgH1bv4FH/7UUu9Z/Aq0H/4ZQqMJVYGJiMiylt/ciORpOBlzfF78uJidbjsRhBNEwEtCw811ClBIIRzI6ZEsiRfDIj6Nlx4+gkCuuKlYFZISiNhBw8wOdThI2egEdUYyWzUR3+6O6kGUgxkx+pR7dG1KkjBTOKjt05fhWFSWKmonRJIVc0ewIYd6zQeNzAeQyQlLFFk2Xc85VzGU7UL/9W9IXP5Y8fMcz4wsor1ns9BoMhmGJvt4L0NN9hXdmeLrAPmffG4YOBhFE0gSToSV9XcvlmDsivqu1+GrdXKZJSNk/lSwR5dU+03I5lMgJsSKBOrjrm4PKHovUjH21EjPVr6odKTtEQknUnGx48HXY+PBrsfKeS7B385clf0Z1hMOViERHeeSStyjLO3LogyHGubrkRMhdPhtUQujye/ECJY2a5sSPb9zzQ0mU/FIH7SJKK+aqDSYmJsNTUAgJWeEoheHphPa59H2xa2Jy8qUYBhFEw9DDgd0fRuNeIVcD0NX+KHas+aCQniPfd9zccIPEewxJEAxz3h5vD8eQAnJLxOJhbFl+JZr336xxx4J0Yh/qt38BLfv+oITMiSNjBd5+SgwLyOU4R5Bb3OSkFEXic2kc3P0zbFn5Vp5p3IzTvyr5Qhqmxy8UCunG2ISSOU9Uv09IXXI/2SN0ZXPwUEQ+F9ZFLSwXCrnbn6n0HhLxEnuhv8Ew3NHddTVSqdnemeGpBvuafW4YWjCCOIRBApjN1KO9+WY07vu8Ej+uTN668m3IZFrR0XyPl/MQOpp/p0eSKnrViLJKEjW+mSSIkrIIIhESOzf8/HjIptvQuPsGbFnxXLQ3/kbU5ERvRCoQ0qY5OGjNYWU5Z4RILkfPoHcioKeQHsDO1vuxZ/PnNK561EUYPfF5SuKisbAcRY9HEEn6wuFSlFcvFr3cSJu6OZxMu4Oaztq5mpoLV7iimgQw53sYaYN6I105tVVXcZOQujoMBsPwRTo9Ez3dRlieLrCv2eeGoQUjiEMYnS2/1SO5VnvTLWhpuB71O74rBKxL47eufpcefRTyCSVHJFAkVcGwEDNBMMzEgBIxgtxp4H6DR0PDzm+gaf9PlUzqfoXeHZXLhpHLOELG+FBwnNRJcujycejYeQhJ5TyiJj8H9/wCqb59qmPmGV9WbyY9h5SAGB6OAiUVWZRW96F2/AyMn/4h0UNdTofT4/ZaZBy312F72VaSRO6lmM1IA5UUqm/TQdIqam37BYNhpKC769nIZsd4Z4anCuxj9rVh6GHA4Js+n01OUdm76aPo63xUeMyh+YadrX+UbweSodaDP0Bzww94JhmUheHArp/050/2bRVyRmLEMwGJoDcnr6TcP6fnjfq0eH/Zx5LJsz8hJCziVhhLfr7xhAnUw3pyGa6KhpC+Jk1nJfQYKnFT8ua8exRnVwAbl79Wde9a93YlejwJxzMoq0mgtCqFaElOCF8K7c2/RvP+b6teLUv9ni6205FCElKSSyASz0ocX+XC/G5OoxaRSkLBEMZMepHWa2JiMvylr+cSdHW8REKGpxLsY/Z1sWtgcuqID31ME/Jg9fw9hlMdna3/wI51b8bGRy7BtjWvR2fLv5FO1XvE6NDljZeSQB66rPU7vyfX2ZGifM55EDm03E+qCCmvr8iTSBJD7lcofAnR6OPPxwuGSjF28tuUVJKEQXTm6KET8FuFdXIhjQ7r+vBTWcjF0waGM8lGJHt3616NTAqJLboS2StCff4tncv2ar1+P/BI0ks7SAyVHEo+ejKZFi/Ligp6ElmWQ9VhkZDK/q2fwcaHr0Fb422q22AwDG90dbwYmcxk78zwZIN9yz42DE0cRhD5KDU5FSUSqVJilMn0ING1Grs3fADZTKuSKg7lOoInWQUlZW4uHpHLdAu5XCahAGLxaZJHiJKckUTl6D1UwsU6JE7COrQsx1wGqB77Qjk50pbDZczk/0KsZKaekViGwlIH9YouehKpLxAswbhxL0QgFPHKuYMkuQBD8lNVdyEWnvcHdLXfIzocsSVhVRKs+UU3CSDhxTmwXZIq/RAM5aWevJBWNw+RtjCekk6FlBj6K6JZXImtgAQ5k24QovhJNOz8ip57OUxMTIah9PWdb17EpxDqPZQ+Ltb3JqeaHIlBBDHAB6nJKSnx0tl6CZV46ZELUhwR4wbQjNThYiFNOqdQc7kLv2/bDaojHK7VdPUYqmIJUke/eARRUEAIo0jomO0YZObCnwoxrNLyefniMHCsNCtHIWpi35wzPo8Jp70FIS3QX4k7yDEcqcbUOR/DvCU/RrAQwcE933a2iI0knFygkklGtEUcOtZta8Rm9RqqHg4tS3ZmEJAMui1vvP4RZJJB9HXwjSquTgV/AyQb+aJbCOPOWxp+iQM7vlS0rSYmJsNHutpfgWTfEv1zYHjywD5l3xbrc5NTT4phEEE0nLqoqL1MjyRxJFZ6PeVLh1Pl6vrET9MkD1ck+17ERM96bF/3Rqx54AL1vikZFBbkCKYbhuVcQb6dJEQyFcyjvOo0RKKjtfyxIBypwdyzfo9wLI2SyhQi8QxCkbwcc3Ke1zeZxCumodCXFBKWUyGisbEYO+HFOOvSBzBh2pvQ3bQC8fJJGD3uVSgpnSY21AixLRepQTx2FiKxiWovCZ4/b9H3gJLY8Vwhce7NKe40nQygV8ih5mEfefGFHFc3MwD4W/BQSDRbG3+Nxn2c02kwGIYrkonT0dH2Ru/M8GSBfcq+NQxdGEEcIojGRiEYSSMcTwu5ygrB4SILd/n4FpFMyluBTMIkotvDxMMoq4gL0Qqjt2uFcKOMEMoQ8iRUJEKcl+d72cJ5VI9JoawmhZIKqSfWrfHHily2E9s3PFOJoHr2BDrsreEC9mz9kPxHuQOBtCZJlPNinn7+bzHz9C8JoY26NuWSQuxKMGHGhzB3yV8wf+l/sPC8B0X+gzlLbsHYSZ9Xnf68Q8fzpB5lfhL0SSNjpQ5Kqi+I3s6Qy5txpJFCryT3gAxH3DzHcFjOybdFSBq58Obg3u+gr3sdSxoMhmGKjrbXo7PtNd6Z4YmCfck+NQxtDCKIfJSbnFoibAe7t70a+3e/mycICgEi8SIRc94uycU4l7WfFNGDyP0M3YpeudCSgfPuVCcJlOQhwWQM5+lF43klUP4+geWV5/XbcDRJJ3fpcd+O90n9ferRpE26qITaRbdDAdvWvAqFqMZ6Amx45DX9uvYs/wxqJlzafz5Q8tlubF31Auze+HbkMzEhtmGMGvdKhBNTxIaI8yZKm3SImSLKlUhKMFqaR7BPauQ4MoermUXzOLKoeSVWiaOcct5kSPg2SSPR3vw3V8bExGRYCgphITWvRyo5j2eGJwD2IfuSfVqsr01OTSkG8yCe4tiz/Q3o5ev05ArqkKlPCOXgyJgjZIcPM+vCDgG9YBLjSGKIpJBDqkKGWIZZmJ9lmcebw8gCFVVHvopq7SMvkzwp74ybzR7Ejs0vlTJZTJ11o+ivEOGcQ24vQ1tFn0cYqTOb7UGoVEhrhnRMIHWlEvuRSbUik2hC3ZTiG9cmE/uw4dFr5LjLRWjTghg36R0Io1rqT0sdjjzTe8m6NQftEILKuqqm1yIQ9jbRlrs+FIorISR4YB4OMROc8+gQwIx538akGR/2zg0Gw3BFX++FaG95h/xdiHsxhuMF+459yL40DH0YQXwScWDPZ9De+jshK0e+4u5E0Fj/FfR2P6SEx3/riXrkSOKE1jjvIMkeiR03pQ6JOO8cSWAmxZW8QvykiK7c5Rw7jxRlM27uIckhod42CZNUEaXli/XoI508gJ7O1VjzyAuVJHKRzN4db5Jyneho+6OUK8Pk6TdoXurSPQj79zqUOCGKRCgWQiAh9uqZ89qlU83Ys+rrqBi7VM7F0IKbn0jk80lsWf1a5DJu82/Ok9SFJB6iZROkPrf5NXUGpT4SXSWCA9oGNIuN7D8JyunMhZ8TIljq+kPElfW8iNIF4ch4zFn8W1TWXiopBoNhJKCj9c1oa36nd2Y4XrDv2IeG4YEBj1p9bpo8AenrXYmGPR/D1g1XoqfrvqJ5jlUSPavR0vgTJTf+PEEfnENIT58K0zUsCRQelBDR1e8IIUmi7i4jmukl002thVSlJZ05VcdhsmHZs7FpxfNQv+srusil+cBfmROJ3m3YtfkLQlzvQyqxTfMe2Psp4Zk5VFRejMqqKx2JVb3e7SVEjUTRheVHyKvzdFJIPptQWjkDwUAYuXQzNq98sZDRR9S2loY/6Ov8lLipWtrnwoFASBexsP260IQFBEpyJUyiyKFu357SyoyUEfIqkkrsweIL/oLKmrNFmTBHUej0R1A9+tmYv+QvKC2doyqPV6Rm9HZyD0epb0C8iYnJqS8dLe9Ed8eLJGQ4HrDP2HfF+tTk1JdiGEQQixczOVbJI6leuWymAXu2vwnNB39UNN+xSCAQQyhUo+QmwJXFEq1Eh2SPw7jqnXPEhyQt3SdkKTZewiFEo6dpPJHXV0nRs0hvXAHhiFuI4epxUI+br0vIVjYdRjrdiHRqN1oO3Iqta1+Fg/u+44pI+sH9/4f9uz6k+RlHr19jw/V6Mnk6jxFHtkgMtYzIgPo41H3oNIDdyz6LiQvfruG8sL9Ucid2bPgvNO6/Cfu2iT4pT330HvpeQCWIwagQ33IpxfrEbiG81KF1SiF6MWmDG4oPSF7pM+lL6kj17UWsZDwWnP0zLLrgdkye+SFMmP4+nH7OXZg+9yuSh8NMVHR8kujZjE0rr8W2dW+WOn3WamJiMlQkmxmP9pb3oK/HRg+OFewr9hn7rlifmgwFORJ81HofwxNFPtsj5IueKDd8e3D/19A+4HV4x4OSsvmYt2gZQuFKPfeHfgd5E6UeEju3ojmPeUv+iHmLf4tJk96OUWOuFKIUxpKL/44psz6jNrEkvW+6v6CgbuyVLl4SSKDccLX8gUyFNY5eOebnkaSUNxHTSTBzuQ49lxyiA2hpukmOGfUwZhJh1esvhqGfUoezBdw6JxAqB+hFFDC9tGyGhhVCNnkvZjNA/e7rhTAmJQ/nTQqx4xAw7dF5lRE5j6vusXxFXkb64EBO8lIn9bBuj0yL+AQ4EnWkNRR1/UrESiZh3JQ3YMKUN0t6nRd7/GgQe7esfRlSiX0eiSVBNBgMQw2J3nPR2vRhJPvs/eyPB/YR+4p9Zhi60MfmYSH1JfngI9vkxCWfTwgpkJD0Lc+J/bv+V0hdr8sjjMXPe6xy2ukPoqzcbeJKctY/VMtUzrGTH843VJKX7dL9C2snXoZZCz6N6VPehp7mlRg19gVYePafJW2JkKoKVFQuwsKlP8e8M69Xe5VU6WKXINKJiKrmnD7/vcxc0ZvLSb1adUAIleTXMqzTzffjQpHOtjuwe8un1bpMX6xftxJZsXX0+JfjjKV3YMzUF+owM9ODqTymnPmB/vZ696UQO6ff6ZaqOTQuJFHJrUgoXKtD0oV8GhXRqQj3CgmtjaC30w03O0IohVWpFMmEkeqJizIOOQO1o4qvlj5Raa7/pXo81T6vDZyLWiyviYnJqS+J7megTYhP2lY2PybYN+wj9lWxPjQZOlIMgwii4cQh9EWEm/wJO/AJAkUITEfbP4RwtWDvjs+5hONAMBAXwjMbyR7vMvqETuvgQpSgkjj1rnkV03MYLalD5cRz0NT0V6z+z4vR07QW85fcjLMvuRenn3srKmvOlHxBVMUuw+QZH5VfdO4XGFJiyPmJHIqOxOj5U4VIJjJSJ2+XgK7yJbkjCQtGmIH2BHCw/v+ht2e7Npxz/XKZKPLZEsw9/ddCDP+DqbM+Db67uaL2DNSUn435Z30L0Ww5Sqtmqw4iFC7T4XDOlVRbRBdt0LecsPkSkReprHGr5PKZHuxa+WUsvOpWFKQjAoE8+rqD6G4PoKdDSG92HjKJEtHphqFJDmlbZc15Wv7JAIngnu3u1XwD39JiHkSDYWijp/NaI4mPAZ8cso8MwxNGEJ8sFPjqO7dil/Pc/HlvJCVNB36JbRveipbG30o+YRBHQSF/aBsZomHPz9C4/9dIJQpCeAIYO+E9KK+8QPKFdGUzN3nmhs8kPuFwhVeqgK1r342NK96ApoN/RG9yM7Zs/jhW3f0itOz9u6b7qKq7WPc89Fc5k2iyDbriWckhEIsKgZN2KFhUwv1vZBHRldMSn07WS5q3CIbETo75bA6xkqmIRDkX0uXpTa5FqrcJ8cgEVI45R+pzm3ynJC3Ru1tCJVpedYgN6jn0whTaxTmDWibRjOlnfQLldYul/SVqL0mi2iXlujq2uPawLQK2YsLU/5K447/1SfhoYybV4sU4HNh7i9TnhrdZF+c4at8ZDIYhD74uruXgdTbcPADsC/YJ+8YwfDHoKcmHp8kJCgmNkhdHmnRuIEmUxCd6N8ov1FbJBTQ23Fy8vEg+142dm4X4iCKeJ3t3yPkXXKowj7yQkPGT3oWK8gv7CY5P6CLRKkTClVpux8YPoaPt30oa6V1kOq90b3YrUqld2HTfW9HXsVnzVo87D/u2/cCRG9Hlg142kjK2qaODXkGmiTBOhAESQyWHXK3MdntpJJdZIWfMS29fQCrv69mEPds+hvUrrkFv7wpkU+3Ys+qrmHz6uyRTGru3fg5rHr4GG1e+EZl0n5A7rUJJntamfUvdwLS5n5S2Vqj9qd561E68XFcmx8smu0IESaKG3Tn7gEPl0fhETJzyNi17LFLIJ4WYP4K92z+NdcueIXI1Vj/0DGxf/34liszT2nSXtpseT0bo3E0J8u0wA3WZmJgMTentvBatQogStnBF+4B9wT4p1lcmQ1OKwbEMwxNGIMiFHVEN03tI7x5JAokVVw+T3BDNB3/jAkXQsPf76Gy/Rz2OxPqVbmUvSY7bMoaErE+IB+feMYdbMELyM2rcczXQ270R7a13MlG5EYlqtKSAkrIC4iXAgcYfoDv/IFY8+GI0bL5J0sajo+lhrUW9hlJGzaZ+CaTSabG/VxQxTciokJ+cegyd8DV/hH/ub22j+qTdAZSiuf7/sGn1y9DW5LbKCYa4/Uw3upqWoaxmDjatfR2aD7Bf3AISwm3H4zyHtIPDtwiEMXHaGzBu4qH/WlPd+5WIMdPocc9ANBZGSWlEJIp4PIZIhAtmJFXaE4lUYd7i30ifuOtEcGrA7q1fF1uTXswh7Nt9A9Y+8gxs2/gWIYF/ENLbrqSbfdHWfBdWPXiNkNl2kW6vDrHXJ7SFCMJcjGMwGIYF+rqfoV6znhG8BQ7bzj5gXxiGP4wgPmng+4/rhGgIwxECoR5Ez6um3jf5yWWATOpAUTJCdLT+XfPX7/4KujseQaJ3D7mRwOkkAcvlUoiXTtNhTHrEmBSOVGPa7I9pzp2bPwA6AnXOXiiPSDwnBEq00MXpgQtGSHQaDv4eK297JiaMfxFKy+dIuZAjOhwFLwSRyWSkPrrtuEVMXPSUSQOA0jIOcYsCEkJmlSy+53TU+OdLGY/gcWg4l8D+Pd+imdJul5fvWi5IJSUVM3Bw/w+lnRu0PSS7hJJEEZ/Y+cfq2osxccrr5fxQW3JcOR4uQf3en+LAvu8jHA7qHEm2X+dKyicvbQjHKrHgrL9J+qHVy8SOTdcJEfwBmhr+7MUcQjRSh1y+W21nlWoXj5rKNiaw5uGXyrnrN3pgaRmJdrxkupzr5pMGg2GYINl7LpobvoH2pg/K7/zIeeOKviFF2sy2sw8MIwODCKJQCvs8gU9N7TX9RMkRRf5iyTlZgwhJEAlXNtPRX8b/5DOdQsiaNR/J0NYNb3UXRb1ynNRGZUL8gjGUlMxyhESiovFpWHTuP1VHQQhLOl0vdZNMFhCJ5TwySKUkYJwjSS8dvXgBpDK7sfiaP6Nl122IJmI49/L/YOGSn2Dh2b9A9ahni61SXikPSU8CSy/+I+Kh0Tj9zB+rjf1eQ77Fhe0thDFt1vs1zR9mVaLM6kU43EzEYhP0OG7uK5TUMb+UVkKpZeSEQ8Y8Dpwq2NZyN5bfeyV2bPyIttd9Qkj07cJe7pco0LrUNqcnm8mhqvZyLDrrnwiHOAR/6HNw3/9J/fTWFnBg/68GpLjPuAmvVp3C91QnCS51sn8JhlPJA+jr3d1vu867lHzjJr4WW9f9D7aseR9aGv8+QKt97GOfofzJZcaj9cAX0FL/9RGxeIVtZFvZZrZ9YF/YZ/h8imEQQTQ8MYyf/F4hCSSHzrtG+J42etVIHEgg3AbKg5FKH5R4eruEZfCqFHI6XCo0RHUGg0E5j2LFQxdh3crnaZlAoATzzrhVSKP7T7Zh3w8cqZKvcJxvDdFcjixxs20ha44g0sNIwggcrP8VznzOHUIY42jb9y9U152Hyuoz0XTwr85278Yh6RXrEYlUUxkmT/+o2CpxolbTxMaxE98kNtZh1rxPaXx13UWSJkEJK6mSPKy7rNJt29PU/FNq1nR6HMNRSWeVhORj3sqaRRonVcq59EMoh5amO9Cw9yZkUx0IRcuUiLm2Sh7JS12snyumS0pnYfK092l4IOj927nli9q3rCvRu0PK0HU6AKJs8rT3q0eWIAnMeeSQoN2ubTltp1vY4zynW9Z9Es0H7hBS+09s3/AhrH7kucik27ySBoNhqKOz9S1o3n8jutte48UMP7BtbCPbahh58B/HDnz2mZywBBHHjNnf1LC/6bQSCF3M4cgfPXvhUMURZZN9ezSvshE5klCSFDpyyOHSkHrVwPc8FzIe8Upg3aPPFGL4Iy3T3vJ3JaEkSeot5FtDwjk5d15Ef2iZoCp6NDva7hXdZZh/6Y/QuvcfaNz5J9WVz3HLHgkKSXTb20iZQljyCtGS9LHjXu15Ml0b+faUcRPepGnjJ78c02e/D3VjLvcWunDLGjlKRrarovJssS2AbKFZ28Ghcg4Hk4exrQrVCcxd8Hlnq8QrCfTiG/b+AO0N9wph60Uy0aDRPsFWHfoTx8IzvyN2TnPlBkhH2zJkc0nJIxmlDTkJpxIHj8g3etyrhExXar9x6x+f7JOEDhzq1uz6PmweXYyuLqcdIsnEbqxf8SIhjz1eZhMTk6EuiZ4L0bTv+2jedyNSfWdJ5PAA28I2sW1sY7G2mwwzKYJBBFGeYyYnKLlMJ3Zu/SgyqSYhQOd4HS4pclTPoQgRCY1SL5xfjiuXtXw2oeRC47y8JCAkMCSKLt4jeHLCI/Plsn1o3P8zFHJ9SKcOSl5HDjnnkEeS1BBfOcdiVCLxPonUlcr5PtUdCkWx4LIfo3HbL9G2j4tcBt4aJDoRXSkdL5uo+YPBCBYs+qWSL9YxbuIbEI3UaBpl3Lhr0NfFdzV79TFS+iIUqkIp5+fxlX9wxIuEisl+uxWScNoZX0O8ZILUJeRY8tHryYxh3YexB/XbfoQc976mAvkhcVPizPLyRY/dxtUvQ1fHA/12+dJy4A7JI3okrJBAMrFP/jDuQFvzX1G/53r0dK1CKFiCabO+pOlqn9RFW3S+ocT5QrBFDPrnPtw5V3a36NQB1nq4PSYmJkNTOLWmq/UtQqa+h46mDyCb5m4KQxO0nW1gW9gmtq1Ym02GnxTDQBZgOE5ksnzdnENACFZby+3Yv+cb6O1eKYQopMQpEKhUb5O/aGPStLdJ7hx6uh/FhrWvFDLyDy0fjY1VIsE82bQbdiXZ6feoCUiySFIyKcdASJhIsGbPux7ZXC/GCkkbM+5VKK2YqRecq6m5QMWfd8hIDctlV4+dlI1Ga1SXQio8/YqfY9fKLyIMrsClFhEpWlm1CKnuBuSCKWzd9BGsffQ12L3zu5h12vUYPeaFmDLtA6rCR6RkLLqaHtV2OM+pqCkEMXPu50VlCPlkHqPKXyG2fx9l5QvFllJXnSAcqcLM0z4pbXmOtLEEJaWTXIKkcxiaumh7Mr0dhYhbLc5+YxzBlcQki3oeSGH75nehVUjfQI9fKu3tZSg2+UPpu3Z8GutXPx+7tn8UB+p/InW7Yema2ks976h2oMaxT9SrKUUZpbGBrHplnfDau61vGPY3+u7tXoPuzkdVhcFgGD5IJ85Aa8MX0bjnF+hsfqf8TXJ7vw4F0FbaTNvZBrbFYHAuD+LQs9NwjGg8cAMOiLDz6Gny3wJCYudoBCc09+o5pbTsNIyZ8BysW/FcbF7/BvT1rBOC4Va6lpbOlDwkcu5S6Fw20UVonERymJbeq2hc9HqLQKLRyaioOkeOozF56vsxZfrHUV5xujNA0klSGXbEkJpJVCSk5BMYNfbZWge9bfv23CRkJoYl1wppbRe7ObSsw8thLDzzu+hovwdd2XvR2vhXdHetQsOem7HiwRci0d2pOgYiKIQZXFwDti+MYKACC868GbWjLtd0IpNsQlX1RZg287NYcu6DmDv/e5gz///hnAvvxfiJL/dyAZOnv9VrgyNZzrMqdZQfun0VbK8XQZLGvCTUjKN3t2Hvd5Do3SzXqA9lZbMkF5W5/LFYTIh5vQ6J66v6JCkSrnaJgolT34myyBIpwfmeQrBFvxJ0ycd+VPvkqPMkGckoOeiwtFSi+0IKqH/r5ndq2GAwDD9wlW9L/TfQuPsX6Gh+r/xDP8dLOfVA22gjbaXNtkJ5BEMfUfLFH3cY7EHko8zk2KWr6240Hvw2DjR8Tc+j0VGaoJ3L3uVR3+oBjB5zFRYt/SlWP3IFksl9/cOuee89zSR4sfgUJYX0gDHd97zxSATDh3TzDSrE3AXf67fHl2zOeTaDYckYdGWVswRCKC1Z6oiMkhlgzNiXSJkCHrn/MuzZcYOW50rpM664BeEOvj4wgAWLvirktAkNB7+jUyT9N7f4w6wtrXejae+f++v3ZeqsN+P00/8fLnzG/bjgsvtQXU2C5dKIbLpLGpfBxrWvQFvzHaipvRh1o64UuwYPa4wZ93z1sHq8Sz1y7J+gzgl0cQTjCNpF0DY3HMxIyHX6PjasfSlWPnIxOtr+JulseUD6kouBHOi9VcIn4JtpqOnA1l9gzT9ehjmLvoalF92HqTPf7mwQ/Rzupl2OkAo5lKOK17+0hXmjsYCSRJLKQr4PvT1r+9tnYmIy/CTZcwna6r+Cgzv/iFYhX4nuKyX21ABtoU20jTbS1mJtMBk5Ugzeo9BwvMjnE8ikG5SENDb+AAeFKFZWXaCkwCdxQu8kI1A76mwsPPMbWLfypcgVEv3kUJNFj+orJDF1xrvlXEvpkLSvh8SDIOngue+ljETrsG3bq+XErYpOp1ux6tFXoKXRvdmDFegeiILauhdj8eKHMGP2Z/vrjsY4dBvAow8/R+rr1QUfaW/otVJsrht/GcZUXIzR456NzRveIOUcA1NPpxw9sxTx+Dghkd3emcOoKddg+/JPCykSolVkT8Bcpg8p6UOxHLt2/i862+9zCQPAd1nv3vEZnHn274VAXqZ2sx9Iwvww7VDSyiiJ02H6TAHpJIf12ceHbKX3MV9ICVlrE1JOtsZyJLrOy8f3T1MRbe7r2oMVd1yDHTv+H8bMf4m+35qe4u6O+7WeCAmqVi4k0COlahtJoXfOZPUgS34OMyuJlfCenV/UdIPBMLyRSc3U4dsDO/+MA9vvRPvBTwlBe4b8TYh5OZ56sC7WybppA22hTbTNYHgsHEYQ+VAzORbJZlqEaOT1wc8HfsOBG1E36holAIzKpJ0XkOHO9lVoa70XyeQBjdB4JogqEpO9u2/E8gcuxeb1/6PamccnFUowVIuL7wc9k4H9QmoOIpnaj6aDt+Ph+y+Xuparx5HlopEJGDvuXZg37x+YNu2rCIVrdSGGKy8EbvSLsG/PT9DTvUUjqH77luvQ3b0cqdRenHbhDejc9xC2bX6XEMgutYneOCU6nlczGuP2OwHs2vNNbFn+P6rHF3oCy6rnoGXvHYPinbAfUujuXO7amMth6+Z3S7+2e+l5NOz/AVavuBLNTb+XPBHMXfAdLFj0G0yc/B7kU16vSFaW90kjj5xfSc9eLO5597y73F9hzHYQTAsJkdM4KhPx82RSCezb8EN0Yjcy6MW2TV/Qt8/Q5nS2UfuB5d2QckjPSZydUdL/XrqeaZyAtpCTynlv7yZkMhyaZyYTE5NhL4Wwvqau/eAncGDH39Cw7V9o2X8Dulr/C8ne8+Tvx+CtuJ4IqIs6qZt1sC7Wybr1dYFiS1EbTUawHInAtGnT5XlVwIzpM/CTb/7NizY8HhKJDdi0+VrkMiGEIjkhFgGUlZ6NbCqErq41EpfVLWZCoQL6usIoL1uAvsRmRyiEPFDIGyqrLkRH2wNKWug9JEHxj0ynI4pkQxdEeASIEis/9DaWmqqXYNf2P4huMh8hR1GgqnopTl90q5zR1XYImza+SUjZI6o/FIqht6dbiS63mikpLyi54rxFzj+srLwc0fw0NLX/QsmOElsRejfZDg5zq71yTm5Eb920Ke/CtLnv8GrjO0y3Y8XfrsXS592Fvr4dkqdHSG03tt37SVSNOhPRCXF0da5UvSRP5eVnY868G7Bpw1uFzK5XHSRUS5beh0ikVs+7WlZg1Z0vx9yLvojNWz6tc/44/E6baCfBI/uJRy50kZZJvT1qK/P57VCPngf2gfazlKmteSbmLrwe//rbPDkXAyiipbbuQuTyW5QwIxDF2LGvEXL+LyHUu50OIc+8Xrx4tJv1uOvnjj4CKMGsOV9BTd0VXozBYBjJiMR2iGxFKLpP/raKRPfrMRRukb8dPfL3sVePRCFXIX+7ykTKkc/WyT/Wk5FNT9JjLj1Z5xaad9BwPHjzB67Bzl075dkkD0B5COrz1AjiiaG3d7UQxBfJb6ojFJzPRpJ4+hl3Yv36Z8ovtTADcgpBV2uJEAQ3t42EKsxhTOn1UJgrXPPyS59HOhEVMuEIC4dInZfReQJ1yDLEhRExxOJjEIhsF628aiSbzovZ2Rx0REbimDJ6zBU4ffEPtf6BeOSBBWoW66CXLZ0WIitktlTIIfdupA7dw5HvW9Y9EGmrMCevLbSHZJBkzl/MweFc2qBzJ6V9c2d9ChNmvdIVECy77XIUxM4++cOnEJ3BFtEvBDM+oVTakFNd2j9SZzQ2AZn0fq1D65U6lpz9oPyxrNLiK/7+QvR1bMVFL1uNe+9eJO0QGzg8HJWMAg430xaSXSIYnI4xY89H48Ffqp307rq6eD2c7Zwn6JM4/oKcc8H9Ul+NEMTTXL+SfIs6aqwbPU+I4hUYO/61Slq3bf60kMTfar28hjpMLYiExiAan6Vvt2FDItFylMk/CiSF3AvSbXDu8hoMBoPBcLJQjCDK49BwrChAiEw+IWSkS0iFEIuc28oml+VWKSQHAWze8kolFM4LJ4Wkr8+7+HYlDgpJIyGiBzBampT/FjNCLEgURb9kIcEi6SJt8IlJvpBV0nb+JQ9h7oLrJJ5kRdL4I0JiQ7LIUnKqoVh8Ijo778POne/Djh0fRHfParXfz0/SSZPiZXmUlDmSRL20m/UrMWQdAr43WcmaxjOfRw6ZJqao101zuvSdm2/Aloc/LmkZjZt99ueQ7KxHIOPlkjL9EN3aZrGJ9uRzOSQT+1UvQTJHnVwhruepDvS0rUN5zXwpExESV6KGRKLc0scNLTuiJ+Q3VUBvdxbdXduwa8ev5Lo5Ikn7ldRKHdTN+n1yzvD4Ca9Rcki4ayCijWdMHlOnfxKTpry336M5Y/aHmVHbEIpw+oHkYr+Eo1hwxo9w5tl3iPwNC8/4LabP/Ayqqy/WuYyq02AwGAyGUxDySDsEPq5MjpS+nvXYtuVDWL38CpGLsXL5JVi/5vVKLphDvYdCrOgZy6RaGSmEwy8tZC0ySvPSaxeN5xGOudfgcZ9CRyS5HY5PhBwPkTMtq2dCULiIpbd7ixC+D0qMR+JyPpkDwkLg/Ff8BYUk9aV+iR07X4+29tvQ3vZnbNrwMmxY+3IlLiRdBL1smaRU6EPtCCGfoTfSt95ZktibRq6HdbBCDqVKOvNIlfTgqffOO198yc9QM3YpHvzDeeht34za8RchEq9FsMPZh6wIIQfnKXV9wxXEjFOyJpEka6pXooPeyuZ9m5xXdPbZn9TzeQu/KUfXDxyaz4k+Iq/vvM46G6X/CgWxPysKBWwPCWT/ELOWdTbQC9zWthL1e2+hIXI9uB8kS0ivC7HntWhuvFPr9iUcKsPESa/t7zPWx/7h6/0G5jMxMTExMTkVpRgGEURDcZSUzEBby9+QyTYjm+OqY3rG6PkSMiUkzyeHpBHs6nw2hIAOHdNbWC5EoUyiw0pCgvpWE+Z3ZItkgqTE37haNUhygC47evQkr7uABbQ034V0qlHzk1hy7iOhBFEXxAUQLyugoiYvuvluOxIrespcPb293HcxJ2F6PR0hzQlZyyRdxcwXjnLI2RGhHAksCR3114WQaUmhOvhMnHPeMowe+1JWp7Zqu8TckrIg6kafg4rK0zB2+gux+Bm3YO2/X4/lt18tJPESUSP90Sa2OLO1sM5fFCHo0fMJI0EvH8/zBVHuYf+mn0qxICrqFul5be3FqK17htrCYWLXd+xnBjxFbIBIVgji5ClvF4V8JZ5LCxYi/fUSBTnp6d6Andu/jEcevFyI3ws13pFMZ0db2wN6HIhpMz6EmprL1A5eS25XFAqRXBoMBoPBMPRgBPEYQE8QN372h3+VwIgUhAiqp1AkL0SLZIppTHbkMYBIeIKcBVBXdykiMSb6eRxpcxA98s3FFkzL813LhZSmaB5PmpvvdGWlPhXqYv1ypOcxXlrQIWM/PUf7pB7Oc1SbRYfaz7FcgdYlxKi3y90GfHczCY7aKOX9V/Sp18+b35dNd4i+MsyY8WnMnv0NzU5yyOFb6kolV+l8PKK8dgHOff49mDjntehuXatxHF4O9MmRVQmR0m1nJE6HeSVc0KM7J0i0xoxxJG3bo9dJWhbTznifnhMki6ctuEGI3zsk7F7J518nB9dWH4FAHOdedDeWnPNLLD7zx4h0c3g/qouBXLo3RC3n2UyzkPI/ChF3w9v+Nj99vTv0OBBcsT133o2YPv0TQgxLtXwo4MoZDAaDwTDUMIgg8hlpUlzGjnu5EqGB++pxGDSbOTRMTC6iw76SX1mOxI0d/Vo9nzrt9UriGM34nDeMy3O3X18eWVGezaYlAyvwiQ09gO4y9fXs1LJUSPI3cIiaQ5rhcETD9FyqiA7qz3GxieT1uVJQiCBJlC7Q8Mhid5vzjqnZopOLahimjb4tfH9yJtXm9UkAo0ZfrfHUq/MgSfSQw/ZtnxEStU3zhUMlmDj71TjnOX/H0mtukz4o1fyR0WHERkXEFuZyfcr6dB9ICfCcCBSCmDL1bcimOnBg+2+kXRFMEn3OBidBIYlTprwTS876GyZOeptEesPmtFvfS+36hOetrXcjHhuDirLZ2Hz/BzBx7htQWjZZvY5cgcw8tMNHLp/EuHGXoqr6HFHjbOWczIH1+0KCP278q3Dmkn8KYX23LrZhfG/3Zmzb/CVs3vgx7N97i5Ds1iPKmpiYmJiYnCwphsDUadP1iThjxgzc9M2/e9GGw5FOH8CKR69U8uKGJN2R8L1fkbjz0On7j0Wi8XFYsvg+zdPXvRur1jzLI27S8XoUIiRkpLdDSJ589CJpmrBQCQTyUSFcWQlJKhOljrKKiJTjEHKwf4iZifpavHxYdYZiSWbVegh6MnUovH/IOIBUn6oTIRtyEi/PI1bC20H0CUnkELhPQHnMNmYRj07Gec/7t+olHnpwvh5J6DhszTmDJNHR2DgsPfcusd0RTx/tBx/Axo1vQaiEOn3C7Tap9j1/NMl/d/GkKa/BrDmfwPp734bm/Xehesy5mH32p5HP9iKVaEE60SjXpg2ZJKVDdKXQ2vwf0c1pAGyXB/aFSCRWg0nT3oC2hnvQ07EVZz7jFmzZ9mV09ayW6+a8h7RHF7zoRthSTtScf+EG9PXtQmfno0glGzF9xrs8pUdHc9O/sHb1O6RNHNp3/czFK6effqMQbG5x8/g6DAaDwWB4KvHGD1ytq5j5TNItbuTRJI9Dw7EgGh2PsrLT9HFOcheO0DPlhm752HfDpK4780KoAsEKLFp4iHAH+SYRj2ixgCNnQhx14YZHEziEGchJHiFVEscVy/F4VAjFoS1sgJiUI9GTLP0ETsJ+3XKez5JE6qmXx1t04pFSEjN6M8sr5oHD5w4BJLpDSCdJ6A7pV0g4kxTdkieb6XVxPiSNuunBVA+clisIiTqA3u6tXqZDyIV7EIx5NosQvveQZRlW2wMRzJzzMSWHXa1rlRwSHU2PYPkdz8aKO1+K9fe9HVsf/Qx2r/0W6rfdKnn+LsTvXgSFWAcy0lbybHJoCsPCGXO9Xdi/9Rb09exDIJbG6n+/EYmmLVKn+4WgkBzqfpBij1sRDfT0rJHrPwMTJrxMyOG7RRmNPDoSiQasWfl20eMRee0saWMuhTWr/ws7t/8/F2cwGAwGwykGxyo8kIOYPLYsXHgrgpEMIvGUboQdLckhWppFJJpX71ewUIOJ49+oks+msH/ftweV9713SiAlgnMDq0ZnUD02K8ccKmsLqKhiWh4lJZMxacLLlaiUlESFnJSivHw0aqovc8RNyabzCPLcJ6eZVAHZVNhL0yitS4O0QfKSBEVjVZg5+W04e+nNTocIyUskcAYqSi7XIXCSzUzKLWKhp5MKc9luMpz+NjFeCZ4IyVTGW43Nuur33zKo/ZS6msuQ6xaqyeokPy3z5/wRjqA5qSyfjUJWSNzdr3WJHnSoV37KR83H1Plvx8KLvotzn/13XPKiFbj4JSIvXIaS6achO6qA/Kg8cnVyrJNrJOH41Jm46AUP4Zxn34bw6AgWPuN6XPScR5w9qtwJ66dtnAPJtmxe8340bP05cqnOI9r0WPLosldRYz/ctTrkxd2189tKFouVNTExMTExebqkGOQxaDg2FLBtx+uVGLI32Z8kXvLIB9/iUVYZw/y5X8T0GR9FX2KTkIACDhy8BVu3fVhL53NJnLX4rzhj0a3qffSHoUlGSBh8YiQsU8nD0nP+xBo0noTLbf3SjdaW/7hzSdMhYF3RLKRDCBrJYUlFRkhrQnSTtHoEUgkJ9fiexDiWLr0D1aOXonXvvxHOx9kYBAMlOPPsH+swahBht92NhEjkuIgjHh0jOtPIZtxu/gTr9YeKOUzM6ZOuTUBL86GhaB/cxzDTlhHJah6SPfVoik2z53xA8zhvXgZr170Fa+5/o5DVHumzMpx5xS9x/nPvxtSl71Wyl4wewMxFH8KYyc+S/p8l16YcfGtKMBST9v0O5aWzxRDRpVoFUl9JfJLUm8Gadc+XiBzq638o+aOYMfN9ajdzs4/6wwxK+6NlJaiqOwutDfdg66PXYcOD78W+zT9FJuHeXX04OrvWI9l3wJ1w+F+gHly5Lu66F3Dmklu8zbINBoPBYDi1YATxGLF770fQ3btMyIwjEFzoocSLP0oYk+joux8dBx9CMrlfiQU9ay0tf0XDgVuRE4LI1b9bt71HyglBEJDYuYD8uCjks0EhDjcj6m3CzDl8SsIkrMeCECuxQYkYy0kOevvC8TRKqpIIhHJqE9HXnRdCxjIUzq8LY8zoF+Ocs/+JSKQOkVgtZix8D04/4xuI9AZx/vm/F/LXJnmTyAkh5Rw8tpUSjY9GafkM1ZtJ8X3JDhx2p12uTiF7PHrtSaf5rmGH3p7NaG29C20iXOyS7cph9owvY8yYFwmpfg/Ou+AfKKuYrSSZhIz7FLJfe3IrtPycs69DzZhzESufiL37f6px6UwrGhp+p+HDQaJ47nl/wfgJL5Uz9p5DTc2FWLv2JUJoO9XuvsQW7dPJk9+I8vK5mkeHygXuOpPcC/nN9aK8dj7GTnu+2PJpzD/vG6ibeDm6O7fg4K4/4eCe29Ddsdk1XLB189f0qPBWPzsz2DnAuLHXoq7uIo02GAwGg+FUgxHEY0Bb+x1obvutI2aCXNptYUOol857/h84+Avs3X6TkMHe/rl0TNux/Qu6PUxj06+FNDW7zApHJpyHT0R+Zkz9ohCHizWeiMWnqR5/IQz5B/cuZGbak00HEC1N9y9YYRy9igT9X4nePHqFKC4+/Q4sXfIAZs/+IiLRUZquEOWjJ12J86+6Exvufx/q996s9SlB84ga7Zoy9c2IlozRIr1dW4X03oL1696EVKpB7dJ9BeXImulNpJ2Mz2V7sW7dW7By1YuwefN7sWvfFxGfHEV8Sgz7Gr4t9nwSU6e9HfH4WFRWLnB9JmWlFUoWQ/EgKuvOxLhpbqsbruTOZoR4qlcugO3bvgK+aaanZ4P0+aH3UxPBYAwL5n8F80XchtcBdHc9gESSq8Fdnnw+gVT6gOSN4syzfo1x418iBLFS00kOCdrBd0j3FxIEhGyXlE9F7bgLMG76CzB2ynOkXBxdbWvR07EJ7W2PaF9ogxjiPxGezbH4BCxYyPmHBoPBYDCcmuATqx/eo2xECPIZJPp2FE07XA423yTfEg6StIhE+IYNN1QYCud0/0AlNkIGO7MPCWnrVXJBosO3dZAo7dt1Mxoab1ECRzCN0E2vD/EOjB/38v56kU9jzKjn6Tw/nvskkeQzFp2FVEKOJVklcs51x3Q5uqBEObvobcxkehCJVLukQkb4iiNzvpSUT8I5V/8JLc1/V/3khQTL07M2dfIbUFYxFaGyILbtfT927/oyOrseRsbzErIJnK/HPvBtDIUqhBi+TsiS21iautQeZpYjySWHWBlF4fYzgZDby1CzyJH551/4BU3vFRLY0nqPJro+KwjhbkVXx0qsW/8atLXd3a9roEyc8DJcdP6/UVIyHh1CEAnaRxXU0929WvOFAjHMmf1ZnHfOfVi48GZMnfI/GDfmVaipuVwI7Expm/Sb5POlUOjF1u1vEV19utVOWcU0VNUtQmv7g5IqeaQTufUNPbdBruaW6xEKluPcs/+g+QfqMjExMTExOVlSDIMI4kgC36m8cvW12LHzOiE23Ln5sbFgzm9RXXGZhnNC8Dj0qexCIV3rhUlmxoy/Wr1p9KJRlMwIGWlt/4/U4+buKYmTcnzjCuGTzfLSxXruI5najca27yAUSYua3CECJowxleh1xNC7svqaPYL1eWSRG3i7DAHU7/81+hLbsW7zS7Fi7VlYt+VKIb4/QjbDOXSuAdzsOVpaIfZElNxwGHrihNfj7CV/EP1J9BZWIjo2ovmV6IkEdO9A/ZF6uajD6aKNhVwvero26jnBFBIytoH5qyrP0viBGFP7TNWtbyNh/0m4o9MRrv37fypyg+hwDdfV3HJcv/HNojSFbds539PVfzgi0Toh1WWHkmmAgPa0tw6eK8m9Fqsql0rb34gZMz6Jead9B4sX/Ua9jAPR07sKHd13Y93GK+W+6PZi5Z+EzjWO5LKdUg8lKMQ3JP81XHD+3xCLj/VyGgwGg8FwauIwgsin5siQfCGtD3EO+y5bcT7SaRKl4nkpc2behLGj3yBlHMPQ1+RpiPBCwgTmzvkq4iXTlCxlM8IQBOoB5J56cmRpehH5zmNNy3n7E0rcjCnfkJhDdYbDNUK4OhGO5hCvSKO8NiV63dY6kVApRo2dI2HPAzlAuDpa6xKduoBFolta78Ka9c9GT88qXezSl9iJvfu/iFUbzpO2N2p9lDlzvoZzz1mOwoFqlCROF4L0UWSFHD6y7BJ09ki8R1K5Wpmgp5HnhK4uFvj25GmrC0qc81j6w888mTzJ3y7GyZ7NP0Ljpr+6DhP4G4s3HLxV03v6VknbCoiVhCXelWGdoVBOPYJSEAcP/lrjD5eMEOFEcr/qo7289poiX109fMvL4PzHIu3tt2v5dPYA1my8WGzgaxgDyGY7NZ5zOP26KCEhifk8N0IfrMfExMTExOTkypEYRBCLFRmuUsi5+Wocts1nM1ix6llIeYtLiksA0yZ+BrOnfV8KC3ORSEd8+MWHP4cO79ahwxmT3696uZ+eev04zCwF+ucHSn6uZuWQo3IqOa+quBTx2AyvLifR8CgX8OqglFRmpYwERE861SxxTi+RSYd1uFv3QvTElRcSFekWW7m9DOcLymUnwZKf0tKFiEXH99fZ1Hgbli97LgJj42hqvgvr7ns7QoEIYjEvD8kOR0t5ImA7uUG2/25ngkeP4znwXJqbSRdcWdHBV95VVSz26i1g1d2vwfbVX9HC2cYMykPnCnHNiP6okPMviv4uIXlNqisSCQr5YhsgdkXUBq1T6ti7/1ui8cg3nST69koeZ6NecxGC55lMxxH5j0W6e90CGvY/SeGajZdKPKcheJ5GyaTv2Jajtllk85YPDtJhYmJiYmJysqUY5JE1MuEvaKBnh8Oi+VwCq9a8Cuu2XIOOriO3ZyHaOx5EbfXVOGPe3zG67iUIh6oRi0zAxIlvwdlL7hKywvcuA6PGXYl8ijodeSJxmTbxraisWKIkwZFF5zWkJyyTDmDOjO8KkTjsMjGzQAmdJDkiGEC8IoRp09+ITJakjyTHkUTljVmnl0eFxJGkuDmKQhqFWDpy6pJnTrlej7lcl5DkZ+NA46+RTO4TctYgrDWMxvZ/Yte6G7D4jFsRDldrXrZHVzjzRL4YdnXQRs0ieSs929xbUhhmXt8DWV12sdgRRXfbOtz/l0vQ1vggM2vZCdNfgokzXin9khVbOrF27QeE+P1Mkp3d7NdYPCTnASGcbI+7huw+kr3OzmWqZyB6e7c726QKvd4SZm28Pq5vjg8c8k+xjxj2ymeyzdi49UUoiU90pJAihLi//SK9vVul/kPbBBkMBoPBcCrCYxEjD7lCRh/a+tzmlyCVatI9DLfsfCN21/+vpHESnENX9yps2vRODZfEZyGQm4ylix7GWYv/g+lTPoJopE7TfIyrei5G1V4qIfqUgLETn4PW1q1I9nHrGUeauBqZQ82JvhwefPhqITeHtoXxQc9kMJzX7W/UXuVI3OomJZJz5EREvYVB3yMpetMcn+UJh6rdZdayzE4yKWyyJDZT2sKtawpYu+HVSCR26ZAxiSrrUlXxIHZt/T5a9t+DhQtuZlYl1UxXL5zXefzWuikCzvFkfRRdqEG9Es/3V+el7VUlF2D/tp9j2Z0vRLK33hUSTJz1Ssw758voaFvWry+ZqsfuPd9y7feECIeFJJJwyjnzUhjeueurLsMAZLNdXlnpI7E/m5H+94bJI5HjnxOYzbRKWzikLO0Lcdif5DuI7r5VSOc3qDFqk6Tz9YOc06kkOpDXV/YdD/gmlq6udWhqtldhGgwGg+HpgTIH95ikX8s90EaCBNl0NlyED26SHR26ZZQ87A82/Rw793xU8xYKKWzY9GbkkURb211Ip1qwY8f1aG75pw4pH66bMuuM9yGWq8VFF96BcF8Im7d+xSMpQg4zedGRk7Jcses2r04k9mLZ8heKHXxJcg6dXfdInr0YXfNyJR6EGxqWHyF4rVK3WC6RHMZ2NjBeh5ZznN/oWSJt8QmfRnng6/zmTP+BRm3b/gnnYZOwDhXzIwX8IdlceQjrH/4QgvlSRJJTlfRpZppF3XLgSmmSP7aFIImdPOWVQuIqxCbnTeWwc0E4d+ZgBm0HHsDmRz8t+qmMJDKMGQvfi/lLv6B92tW7UZSwgPywDVJZP8FlnIR1jp+Eqbv/KPHd3ZuFdO9Bb88WOe6SuLQSbaYxn+oUY9RWCddWX6z9cDySTjtS6y8OUs+sd/8kMitUtxOuYpYA65OsJNdd3ZIu+R5TpJP8cEvL3Xjgwcvw8LJrsX/fLwfnMzExMTExeRKE0OejDwm7p9sIRChYosOMnCNIYsFFF/qA548IO6yp5Q/o7l2FLds+InkTmrZ33w1Yu/49mmH12ncK6Ss+XFhSNhltBx9Cpq8FoUJMHvT3uYsgZIerbyORsA6PUmeYLzKW1FSqWchjl9gRwqYdb8CqTZegsfXnao96CpmdQ9Ny3tW9XvKVerZyyFS+RSDEj+TPLyMHV5ZHLw91jK59qXpC+eq8tvb7PTIjttDbJQF/2JiEZsLEF0gdQSy/8wWoETKVac06sqeEy5FI1kMipJ4yzjOUvqytWYzLLuWWMV/BtGlvQ6hL+vtgWslS477b1SaC+xWecfF3MfP093oxcj3SLV47SKCpXeyWAz1/bpW4q9eRTwmLLf5QLuW+By/FAw9fjfseuAL3/OcCIaplSmB5zSnse1ceGD+em2kfH3r61ugxGMyLLSSvYqe3gImdESsVJsxu9/o15C1YYbinZ53LVwQcul636W163Lf/11i56i3oS+yTlABiJW4Kg8FgMBgMTzVGLEGMRsfIA5tPcIE80PngVo8VH+a60MPN5du49a1oab1TH+58/Pf27RRC9ZCeM+bhZW4D52KYfeYHsHL5a5EKDyCRUgfftRyNeSROoiLRiMQFcNEF/0QsPs5loz1ML6Q1rEPIQvSUCCrxy2HurOswetRzxBa5jEKkgoGIO8opSS/BrVV05bASS69sLiLiFlKEwhU49+x7UFV5ntZTCGQRimYkPqerp2NlBXR0/xUTTnsB0qk2NDfcjVxPDpn6tOiu0X6gqaxTea40SjfXFmzf9Wls3PwOTBj/AkyZ+HLkkxmXeQC4tc6F196N0ROv9GIcCoWQpOUlO3uIRD4vbWffsQ+kHJvMa+KSXZocdXsdEb2WUpbf6Uw71q77ELNpWj+5lD4Kh6tQXubeEHM84D8OPrhNUTjKVweyf6lX6LTEsbHsU9qqfStptCeZ2qvlimHb9k+io/MBtLXdj42bPqlxJMpEScy2xzEYDAbD0wN5dB0CH7AjRcKhElRULFJiQSF002ohYG7zauaiJ6vNpfcTkgLKqgKoHl1A1SjRU7oNK9adhY3bXi3luvv1c97Y7sZvIlItxMx7dZuPaIzzA5mHdZL0BHHe0j8gLgTAL08oKRTQSxXmm1KcmYhJvmlT3orq8nP6F3040siNo52X7IwF3xQ9Ls4nJ/Qu6gpsiW9s/i2WrbhS6+KQ7txZXwRf00dSpqA3jIm0E1k0dv8B4TERJDrd/DmuzJ5c+3pcevGjiJcIcZG8rNf3OlICgTQ6uh5GU/Mf0de1VdMHgvZd+Ny7UFJ6aBW1L2VlM6US2i8HsTsvbI6EzvUXj66+ivIFTq9k5JHi94erwUE9nX665HUbmAOJZAv+efcZ2Lnru4Pqb2q6U8n/wLiBkkjuFn2H7hOC80Rpsy/8R4Nb9Wj/S73+Cm7uu8lSh0t9w01oavmTnmze8hHR7bY0CgSlsdLAktjkI8qYmJiYmJg8USkGeVwNRLFiw0/47t2tu96PTGEDovEMwrEcgmHODeSDXNJVJCwPZyUAPMo5wSHprLeVHfMRmVwrOrsfxPK1l6IvsUMTd+7+EjLZRu3hCPO5rArOOyRRUe+SfCnpLJ0jKczkCwkFh0+9SxQQshHNqlevgDbU1Jynw9GNTX/3SFRBbYvGnNeqdc+DQiziajv5LQkV6+EQrbZNysyY+gEqlvQc1mx6npTjFjoSo943HkWEKPp9EIiKnqpQf1P2bvmJkMuY6GxVYkjyw0QeOaTKMOvatvN/0bj/t1q/D845PP+a2/Hgo8/FskdfgR27vo2enu2SEkBHxzKEhVhFY1HdxiYSIbFln7E/2A5H9AKI4rQ5n1LSSLAuhnUuJM/F7gFVarj/XHVQGa9pD7bt+Bp2771J5Cf4zwMXYdXa/0Zn12rJSE1HSj6XdPrk2vb/Y+EJrxXTArp4RY6Mkj7hkVXyHwL5HiSpVCN27b3e5ZeYPLwFS9Ju30Ps3hU9uJyJiYmJickTlyPBJ9WIAt94sWbz1Whp/5MSA31wCwmityfMEVolFa6zSM7cQ1+IFT1z6nUqIO298pcPfCWJ8lAnsrkOrNvE1cB73ObOQliYFikDJo1/oV4D1S/6HLnguSMN++t/hg2b3o/1m9+hhCqAeL8dSncYZlk5z+VSaGz9CxK9+4UMUYn+qFfPEagAZix8D2ZO/y8t77QQXNEsZ/IzuvYqHZ4mtu58p5DZFmebKPJJorORhFMs8DyK+bD0SZkb8kwlWqS+PrmLuOAGOm9R5yGKAtZDEkfkhbk2dXJRzSHMOfOjKK+eJ+SyB20dDwtB+wbuf/hKPPjIc7F201vR3nk3ItGgEM+QDseTKCrBUpLoZNrUN6KychGqqs/Uunyv4OhRzxBTI2ILh6k5lC8FtW0uXQmz9JtPWD06iS3bPo/NWz8v12+/nLu4x0I4PFp1Mo9PErXPlNCzPuZy5f1/BggegwEh7odh45Z3iT3c95H95UUKKXRD5SwcRGnpFI02GAwGg+GpxiCCyMfQcJdN21+DRHK7Eh5uKk3y4BMgDgFywYHvEVKR5zM5GOGHfeIjpfXY7+UTXelMM1avezUTHRGRh30wHkRX3+0oLQ8L0RH91CPKdMGFksUCdu75Flra/oa29rtxsOm3yGU43Eub/C1unC3Uy+PB1t+jYd8ftSzP81m/vgLGjX4pWYgQqFcLWbpEbSYx8YlpJDwOUyd9kBFIpXajrfMfjrhIXbplixIet7qa5z65IXR6Yal0lNfkg3v+rHE+CdJhVC8/j2y/HulRJCRzsDyERGgXNm/7H0RiYSGBYSWWzMjFN8lEt5ah3dr3DIvhLg/DrD6G6VPfLOoCOOesmxGLjNZ4SlPTv6W8kMuQI5f0QLL/gqGYcFkxXDJJb4ouXndW4O4Dnbuo15T1MF5DRaWm4kJXRoS2Euw3PdIO5mIVcs5tjXTDdE99JFzbrycv/6RkM23o7FovZ3IumdiHWlbaGwoJ2Y7yfdjjkc02iJ5D0xhMTExMTEyeDCmGwNRp0+XZW8DMGdNx69fv8qKHJ/Yd/Bb2NX5DH+ruae22iClkSRdIEBgvD3wOq0qqOw/qG0AIXfwhJCKXy6KiNucWZXg9m027oVfqVs9jLqTzz1QR1XgEypFCF8c06qQpbgWwHKmTyUJeQlG+Ws/ly6YjCEX4SjmxkzZLXLpJwuVOr24YLUdKOhWRfCnVU1ExC9FIObK5VqSzXCWdRCbDxR8BlJXOQt3YaiGvD2le6mSbcxlOnJMeEVESRFIlyAlxzqY9QpQUItmZFdI7GRjTKsTaub3YBp8Uaj4Bm8CFIbnmLIKjHBnUtor4eZyHj4uA+kRBAOWVXGVOg5xnkPaq91D6jtdj4YLPCsl9hVcY6OvdhweXvQzpdKv2IftDr49AV4ujBEsX/U5Xk2/Y+gVq0zYSnOOnC0EGtJkVM3zNFXs0z+Hge60fXX+VlNGffvAfDPW2sj3SDrFCibt/nRfO/Q46Opdh1vSPSXwSKzdeiYrYVdjfcKsbphdlzEebgpGs9hPtoBBCFzGq5rmYMOYdKOWbd7gwyWAwGAyGJ4BXf+gq7Ni5U54pfA7x2SXPLZc0/JHJtgs5/KYSNXoIuUqZD/IQPWQheqfk6BFDksay8DwJBTB14nskvxvS1NWv6mUSftTHJ7cG9YGu8wVJ3lwU+YXz6vlkUOB7HgnVR720x4snOfCHF/UtLdEZjmgISSU5zPL9zaKX9RGFAImNK09hPLfr8ckhSUVPzza0ta9EMFAtxEp0CJFTsiHS3bMD3YkH+/WRmLE+znX0CQnRH5I02qhewrhrVF/vfol3Xkbf85XJZNUebjujtpEw8lMX1q5gXoJHetYIJX9sDMmZJGQyQpDYxSL0ovnvflaiLQZPGv8CPafx29Z8Da0H7sWVlwvR9XQ7O4RYCRmlnlA4gf27b8K0aW/A+LFC7PyM0k5/lbD2Ne8Lrp5m+2nLY6C0ZBZCwUrJzzLOLr3+Xh/68f619fOMqr1CySGxdtsLhLTvw4GmP8qZkG//n4dgRhcMEfznRb41rJ5tZNHc/ies2XIVHlm/CO1d92iawWAwGAxPJgYRRD6Khqvs2vcp+SZhcNuSBOnlYYw8yB1hcTlJDOpqLsLSs/6AhdNuQCRbLrFhJVGnzf4oJo5/kebLprxhXymfz4b0qDoYJyF6ZTMkSCSC3N3F62klciIkTTySdBLMT4KgpEjOx45+ERbP+U0/6eCRNtM76TxcQmSYprmpP4p4eoKSCD33CR6PIh3dq0RHn8a78kJyKtzWLGy/rsCVo9uehWTPKy8YSBbp5SIC6pUTiN3q4ZPiJHl9fQlGidDr5ZEeJcKMdEUIlqawvewDkstMiu9Qdnq5kTj7SEVM4qIV11euxdl0JzqaV+Cev1+Ahq47cbD7Tuw/8DOMHrVUy9MefR2gZGY56mjq+Z2WPWvRjTj/nN8IUXw2pk1+A+L6ikRJYb9o/0hhkWh0lOYfKHwn9O5938Hm7R9BKFCqbdL7gGV5lFzafuZVj6t3D4iEAryXnJ6Wjj/rW3uIYKRT+4uEmvM5/XuFOQNyPZifCnn9GXbkk97vXiGLf+7XaWJiYmJiciJSDP2PouGOOdO+jhkTPys94Zqs3kI+1AdCHsKBYAQL5nxZHsZhjJ14NTLBFt1iJhqLIZU+iFkzuJiAD2iP5FGHT6DkqARNTpUP0Ssm+UqiMyWfGxZm9czNMKFhyaeeNCnK/JQZk9+LA81/EBJY4tXnSKKPUKAC8fBYXHX5w7j0gn9gStXLcfrir4gOz43ni9ZDopTvj3WEr4BYqVTEkJBOrrh1RFnO/XrkoJRHjurF9LxxXIByyBKxN1XAjCn/g1SCjaD9nMcoRxJHZpTq2CYfJEvaVsaTOHmkM5vjwhFWxvaSMPGcdUs/sojUzz4n9m69GS0H7kHVxKXoS+5BW/vD2NVwHXKRdZIvqnVyfiLLckW1ZwbWb32dfAdQW70ES864EQvm8m0uwuAVrm6CeUfXXabhgeA8xr0NP0Bj85/lH4A2tdddH+/6SkntPw3L0a9YMGHcq/Skqe132L73w/35dA9F6R9/g3EfBY/sU0cuF5K2u0VTzMP7l307e/KXXB6DwWAwGJ5EeHRl+CMQiGFs3auFwx2as6XeNAbkyyd682d+FdHIaCRTDVi+5vnYc+CHQgr4oE5j976bsXzVGzCq9jw5DyLRLU90KlCC4PQ4MsVzEgVHgObO/hQWzrlRMoSV4JC06FO/QM+jBHkmV4K1MH365Hdj7ea3YNe+b0peFpByWalLyAFJArfZSac4Py2ETLJDV7c27PoDqkYvQWX5DKdIRVsncJUosfAXX0i6klUSDiUbjHD5WdSHpKC8bIF8yyfsbCdJrCid7soIsi0Z1FVchUi4RtKFKEnbfaKrImoZR/gWsd3cwJs6XJiZmCDKFQGkknxLiSRqPHXJl1Sp/ZpNYPS0K9DU5BbYhMMkmtxMuxOjx06RfCRsXrsIaWM4mkJn3/26kGgg1Dbv+rsIVhLA1EmvcecDwG19ykqmqx1uA3JvlbSAfdkflqPOXZVT9gEJZFlFHVZvfS627v0f5PJJl58ZRHgnhqOH/dMiQZJ3vq+bUyBoH6+VFhGMrnqZ9K3HmA0Gg8FgOGF4zz8elaMoQTwEJQHD+BMKRBAN17kHsz7MXbt54IN/0Wk/xrjR1yKVqsfytc9Fb2KLkiH/HcMM9/XtE/LYhHh0DDKpoAoJiyNGzotEhY4IAuPGPBujas7DmLorcMFZd2DmtHcgmCDZY0ZvOFHs4nM+FKrC9Clvw+7676Oj61FJkBzkBVI3vWeuDsYK+cj2oTdwAAf33oFdm76PSTNepu0bO/oKza9G8KjEgucDIEQjFGH9HuTc6XVQEuIlh0JlWDT3p9IvzxGbeU4yAyG9n0G8pEzzcHudjY9+ytunj6C3U8iaxCtZ5JGFPGHfUNRjJu2nJBOeF48EliRR83LlsVw5aZDrf68hkjbj9HfikVWvEs6c0TzRUleeHrZkdgMWL/wGIpFarTcYziJaklQvKQI5JBI7xMJDH7ZRiRnrlHNKRdlc1FQu9nIM/owb82LXxyyiHuND9xJBXSTxvseTK8HjFQnsaviU3FPr3f3CqQKSl73J/LoRuqjyPYiMc8P+JL68TzgMz77kDeOwbdvv8a97l2Jv/a1ql33sYx/72Mc+J/IphkNPmxGCGZM+5wiQwK3OdR0jj2lUV56HbK4Xj657kRCNPn24EyQDnEunQ6OCvt7dKPSkECyE0NdFsjd6EMEitGwqj3AiipX3v1Vl66qvIdXSiGimXL1xJEYknfNmfxgXLP0jLrvgIcya9n6MrrlM63QeNkcWaCWJloIHkXw4gOYDd2PPlp9h2tw3Ytmq12CPkMt4SRh8WwvJB8v5JMQhgJL4RJSUuVft+X3hH6nXCyEshPXs+X9ENDIKM6Z8RAhKSNPC4RLUVJ2P2jFnuIyC1sb7MHvau6Wwq4cEUY/SDyRPFEb58yzZ386zBtRVP1MX5dA2J7Q3qHMIdW9FdrHXv0oUM3k89OhLpH/6JMKRbG4grmBdQhKbu27Fxef8C7GSjJDhjCNlEk+Ew6V69FFSMlGPSsC1r8OYNeMdWLfpI9iy42voS+zUdB8Tx7xcj2xHKCLXKUMiSJIo+rV+zpFk2wtCTLMoqUwruSMO/XPijrqKXo7Uw7Kax4sLcqEK83l9SpBsEsleF8e3sqzf/AmRj0s+r5MMBoPBYHiCkEfcyEE+n0RrK9+O4QiRvumCxEEe7vlcGt0964UcvgSZTKc3fMghPT6UHVGh90z5iyCFDoQ6Ugh3ZJDc2YTU7hzS9TlkGkT2CSlpyyDYk8P+nb9F4/5/oLFBpP1v2LfjV0jlWlUN9VLn1p1fRGXFAvDtIsTCuTcKEeIm0bTB2cEVuSRXPlFlfBARdLSuQjafwN0PXoq29mVKoCiRSBBl5TFnL4cm6ZnSI3DZ+f/URR/BQKmSIbFCRRtbkHORuuqrcMGih3W1LsHXAFaULVF182d9S+Omzvmg6HG3EIfCO5rWYezoK+XEES3fc6hEkNVLYe1DAcOMpw0LZn8DV17yIMriUyUfV5cHES91wnbSLPYFCRkNCKTz6E1w+xnRnwsJCeN2QKzPZWBbO3uW49FNV0ghRxx1sY9HwDZsez9SSW750418IYvpU14vsbQrIP1WpXnWrP8g6hv/hD37f4QHHr0a+w/cqvGskxusa18GyeCdfiWJuuI4gBR5qzQwXp5DJOYR1wHQa8p+8byBjjD6feZW1zsRPXLk1jk5TjHwwL7T6Q0CyaXfe+p/oZ5Eg8FgMBieDASmTpumU+K4D+L/fX3w2y6GE3bLg37Hnm8jl0/JQ5tepZw+kPmw5pY3nONXEpuEZLrBERHpE49P6EpUgoTGzZULoSY/G5HSWjT1PIB8UIhFuBJL5n8Ne/b9GB1JIWrBOGaO+aAQu1bsbvo+glGpi7oOSL18+Ne4uZD+3nfnn/kXlJf5Q7RAR9cyrNr0WiUStFG9l/JDG0i8SHguO/8O3PvXK5GrFlLnkVjdgkYUurfCSFh0JRIpnavmtnAp4FmXrhWiVu4qArek4fAsVzRzoUpQSFtc+qAEqza+FjOmfAhV5Ys0Zy7fh2VrXojzFv9N8xH33j4HPd189yARxjWv2IIHHnmZ2L/W2U4bpM8C0n6C9uk+iHJKOy87735Eo6M1jXbct/wS5Apteg38LXCYl1sGcZVvqLcE6WwX8mWiU9rCa1hZR6+ko0rcCkj3i/TIF/OQZPmLh2h2Pif9lavA2fN/h3SqHYneBtQ33IZJU1+AFRs+KjqF+Mt10b707oVQJITF836EqoqFeGj9YomUC+GBbeRwcE8HOx04Z9EPESupxqotL9K6fRu4VyZXifMfEi46cfbIl7SBJJBt0W2XJD/nTGo59hPzMMzK5Ku3IyjtlCCH4xmpw/IBIfUX4vyzfsVcBoPBYDAcM17xoSuxY+cu98zhRwLuKTrMsXXXF7Bz39fleUxPE1+Vx21r3NCdL3xaR8KjsWTBLQgFS/XBq8RESIrvyaEXi0O3F5/3Ryy6+Hp0YJMjPvKTKyRQ3/lTdOWFHNIRGEhj/LSr0ZK6HcGYaOczXh7yo+eejyUX3KgEiPp55NS6nr6taquP6spzMG3Sex2BJTmUSpRwkQuIvXyV3LI179a6PergkUenVz2gzC8SjXJVLy849TBfFj29m7DvwE3YvvurQp5/iN6+PdL+OoRDNWJTCXbtvxHt3cuwp56LaxzYL0sW/Fz0HLptxkx4tpy7+gNCMh946CXo6lmnNhBsX6g3p95Ut1rZJYTDcZy35LcDyGEaD6642lsZ7Oxn2Ui4Wm1np54+94vI9fShEJNzXjclvAzLjw7xiiKeSpp7+4yEtb9cn3CYl9dRPXaBBNbtfDtq6s7GhKnPx9Lzf4xRoy+SvCnNyzJKxKU/HYnPY93Wd0ofVCAWHat1aB7RpZBCZVUk2UBM+rG+6ZcaVmEeObJ+ElmfJKoOaUM0PErDXIii+alPzrVdnnCBEvNkUpzf6Oqk19EFAhg/5hqcu+Tn7txgMBgMhieIQ0/6YYqDzX/G/sZblDgoGfMWDvR1RXRIkA9o3SBauiKdbEWyowlzxn8eY2qvdg920i9vE20Nc8FBfDQeWf0aIQcdSlDobYrEU+joeuBQXiEUy9e+AIn0XjknORCmIuhLbcfo0ZcrCdF9+pgmhHLnpu9Lff52Kw7TJ74D82Z+QUjUGElzw7UkuJzfR08oN8EuhAKIZt1QMnUSzMcwJRIpx/jRr0BpyVRJcSRj+bqX4tH1L8HO/V/H/oO3Ym/DD4Vsvhwr1/+3Drn2JnYJQfy29AvQ3bPRKfUQE1sGYsrsd+nr7BSlQfSkNmg/E7odDm3isHIqj1hJACVlYm9c4kMpLJc6t+3+pubde+D/0Jfcp2FeH+WR0o6Fc76Ji86+D5ee+yA6D26UvopKWXpfmYF9z3zSLjnQE6yEmuRQzl08r7HnoZOwbhMjH3on+xJ7sWrTG5iRuaWvqt18RFHN60JiyCFxLhSiTZyisHnnx1BRskja5cpQNy3xVGj7ujo3orH1NhcnNrBO/w0rLn8YtVUXa5j2hgKjlByyr0ge/Xsl7xFAzecdcynOHdUa5SCx8jN5witx1uk/6J+iYDAYDAbDE4X3KHdwj9zhI6n0AWza+WF98HKzavc+XKEJcs4VtJzXxaFHPsAXz/oBktlGHOz5E8ZOuAoLZ9+AMzgXcMAqYL5xhXPOdu/7AbK5tv6KSCZiJTlJl7BHHHjM5JodKWAxeo5Estk2ISWvk3N6jA55+rraN2HNwx/ot92XiWNfgkvPuQfnLPqFkgzuDaisgIkMxURPsoBxY65w0aLTJ4iRUBWWzPuFkKzP4ooL7sUl59yOGZPfhMry07Qsh20lq4L90tJ2D9asfyc2bftfJS4kRulMO1Kpg2hs/hv2NfwCre3/QSbT1m9fWfksVFSNVx3BqrDWr6RXiBVtoPh3WVAS9Bp4TRCqi117v4+OzuXYtuN6jeNWNo7IuzJVZafre5azyS7s3fZzTJz6AiFuFa68kC9WoEePiClJZBpJFRvHeLnO7H9dFeznERso7Z0Po6n1H/3tOXPhVw7ZTbXyiQjvUp0iTW13YGz1SyVRILqZTYezvesejgbQ0fKo1JFRu9QGAfPwHxIeayufKffW9YiGa3XuYr/3WHTwvmHdHCYnLXQ6XBvy2Sgicr1ra85Aean0e9lpWDj3OiyeJzazuImJiYmJyQlIMYSqq6s/w0BtTQ1eehU3ER4eKCCHR9e+RAgO31LhCAfnlLErQjG+R9k9iEkklGwEU+jp3YpEarfEy0O86jwhlx9CKnNQH9osR4LHh3VnzxqeUZnqYLwuRqAekgbtcTlKvBImnkqYAdqSTrfosDLP3ZxBIWOdOXS3bxEClcSocRe6RA+059E17xLbGjSvaJWPs0nN6Evh4stuk7a2IpVsEnsCqKpYjKVn/Brx2CTVwbzx2BiMGXUZqivOxv7Gn6ltJKguWRWju3e3tPmAF8n2FrB7789xsOUOtLTfK2TqNuw9+FOEQ+VKUAIB95aZ1tb7ECxzq5w5X5LeQ5rH/qD3MCDEqHL8bCXW/vAxh8RZoKn1fiGh7WIPPW0F3ZDbJ1azpn5I++T+fzxbyHEPzn/mH3Gw6V9IJBvVZvoFwxxB9/pdr6fC1a820EvMIK+BEkTpdAn6JPRg8z+EOL9TygdQWjIJzW0PICmkmOmM868hr1VeWHN52Rno7LtH61OdAr57m6Cnt6dlHwIlWS2j9UvbQ2GvQRKxcOZ3hByOw8HGe9HdXY9I3N2L/AeEtpIc6pxKkXRfBNkU90F07/rWDg714NJz7xWbX4eaKs6HNBgMBoPhxPG7O29BeztHRfmU4vPUZzn94CNoeEh75wohEfv1Ie8e9BJNBEgOOQxMF5KQEQ3z7Rb/0CNlV/23kEwfRFfvas3HssGwEEAhiv6Dm8PCJGIcggxHnQ4OD2o9JJRKKvsPTrec+B4ikg0ufmFYyVB1RPXt2PR97NnGuWSqSCWT6UJ7F1dfMyPLiO2SpEdpHAnkri034fTTvoiLzvkrIpESLFlIEscVuYf0+MJ5f5zDSILGxSwkQFwd7SOvbzDh6llH4grgu5ldPrVXSND2vV/C/SsvEfLWh8kz3ox4pbA0SSMxDEecF89vJ0gYY1UY7+0fqK/N8zyJzJcQUssjF6GwvFoiX7HoZInP4/47n4dkohGzF7xHWzB78psQTOQRaRMD27g5Nusj8XPeNkcWpZ94TeTIN5XoJtr04uXDej/4i3hYF72WTW3/lhC1B3Dh2b9BxPNSKuSo7RCQqO3cd6PO1VRQB+uU9uiQNs9jvRqXp0id7Dffu1kan4fS2Fwsf+gtaOngYiZJYz2evdzzkHq4/Q3nLJLw0l7Ww2vE65HLJrBuy/tZaJDQI6uLkWjEYWkmJiYmJiaPLUeCj55+FCsyVKWu6hxcfPb9qCw7Xc70+aqEJBIXUiEPYz7ASRr8B7NP3nQumJyv2/ZfeiT4cKdSl48kkA9unotIvD7IJSuHMEkklUxJHpJP6vf36NN40eFvU8PhyHTKbV3DK1FaNVcJ54aVn8b2Dd/qb8vOvT/U8ofAWCkjuqPRKpSVT0X9rt9rbCbTgkyuFfetOBepZH2/Dl/aOx/E/Y9ehHkzPqv2KKGhKgn7JJGESecBMqwLZFzfkai4M+ZhXZ2499Hz0dWzFqMnPk9sd3p0Cx0OMQvhlR8liCUl4zBl3OtVr5JOEW5A7up3R/7XwjStX2Th7C/h33+9BD2dW3V+XVvTMvzz92dj7bJ3I14qBHEUbRLCp2+o4bAxG+TsY2NZtR553UQiQhR5jdQGEbZXr6Nk27Xne3r05YoLH8Skca/UM94rZSVzMX/ml3HRkvswY5IQ1Sz3vnSklAiG2Wfer1PEI4pM8/LQi1gSm45z5v8R65d/DO2ZFUqGeb3zGZJ8Vy+/OAdR902UH+6jyH5kPO8XTr+MRqoxd/pHND8llWrEw6teizvvW4q77jsLd92/FA+ueBlS6ab+PCYmJiYmJo8lxTCIIA4vBORBWoezF/4Gi0+7CeXxOfrQ5sOXxLCfHErPKDFUMic/0iMM9yTWqxY/v4aZX9J12JE9Kvp4zgUpSoQG6GMZnbPIaBJNzeuIUCaVVx6j5ETy+/MQJ855ESqqTlfSsHX9N7F+5XVavrntQclH4urscMqogfsTjsbo8Zeit2c3MulOdPasViKXzfbh4XXXIp1p03zcbmf5hldg1eY3CIFsw+jaZ0lzI2qDT/6CQlhIXp2XioTHEaickDWNFzt9MD/bzu19ykpnIhoXwiTx9ALyrtJ0OS+QdMpP7ZhzlOSNrnmm6tRI6mYdzMJTjxiSvBX6gGV3vQmJ3v3MLFmz6I0/gOiMVpRMTyM2VghinbR/Cq8FF61IGX8o2bsGGvb7jKcSHy1NuvZJvYSrv4BEskHPfYSCcZ27eeX5q3D5uStx7ul/kT7sxgMrrsGWnV9EZ9deKScKRUgEaT+vr5JEuX58vTPb7zqBr0YsoKu9Hdu3/RATpz9fiqW0/+iJdveA5u6320e8tAzVFUvUG1wh/+wsmPkNXHjmf4RsTtb0fQ2/EUJ4MZpb/yNEsQXpbBuSqWa0d61ENOz2dDQYDAaD4XjBKVyCwQ+l4YQAQqiruhDnLvoLFp32dX2o57gfnRA/R+4cQeFD2sV5JE+IhX+uJFFEH/aSPxgoUd0cduRigcryueolotcnFCzHadO+rOXUg+Rogjf8XNA3YGSz3KePhEYSvLpJjFqECJ73jF8J2ZosBDOAPdtuwpqHP6gPfSWEYrsb8vZIj2DqpFdh+uw3ShtyaD54L9q7H1Hd6iHL9WDFxteip2877l95Fbp6VmoZ1kfwjSAkS7RhoC0MqyePesSuoETqVi8kfZLOI/tMQjh7wf8hHCzTjbRJCkluSfxc30q7u6kYGDfxWXpcOPvLiEbH6rCqqvDqpj6Ks72ArPRltjKJQAkVuXzBqHyJAUrMvDgOf+cLCRcW0Wj12nnDzkLYsumw5HFEjtclEh+wgMQrR0JNcBV3U+vdGiZCoVIhZ2XYse8b2LL7C8jmOafVVZRLuzp46h89y5DpyCPZx+st5LNX6G0mrwt+tm68Hrlgqp9Asz/pbUU+ilmTP44y+UcmGhmH8pLTMK72xRJfhrMWfg+XnfOgkNTfY1zdtVLGEeLevt1YueHD0lZ/H0qvjXKvlJVMlTpiXrzBYDAYDI8N91Tjw0wDevCevg7kIMNVgvwEOfwrhMfzCPo9kZUHPUESOJgkOpLHMi5OyspDd1TV5QjF0ghFk0hkN6C7b7PmnzTqzThv3kOYUPsK1cf8bk4Zw/QSUZxBShIl6MiFiJiUTLYgEirHpVfdjmhskpKy+r2/R6J+t9oh2RxomxzC4TLMnPQ6lJVP0+jNa76Mnt4delVZH/V2dW/Dw6tfikyuW/P4hDCX7ca86Z9CRek8scORZN9jSPCc4LxIgvpIFv10elEXzrwepWKnNAcVJW6Tb52rxyISV2jLosD2CupGnaX5Mok2jItehYKQJnoXOXcvkJZ+TXp7ALrs4MbfAW4DVB1GsCaMiVOej2mjP+iuiZAxws/ryrHB7pxbEem1FDLNI6+BP3eUUG+dFKKtfp2Sisamf+DfD12OtZv/t/++oew7eBP2HPjhIf3SdnpTk71hIX6OlNF76dsVQFQayrmRfn+7+FBXAbnyApatfavmoseW11jTQjFMHfNfOHfeP3HBvOU4a/YdCObHItHXLrJb/s2JqC3ZTBeWr3uFhleu4zzEAZB6/DaOH33NoDaYmJiYmJg8lhTDIII43EFPnPMieRHyQE32uPlrPjHktjckdvSIOXLIh/yhbopGqtCRvE3y8x3AjjQyH9+ScaDpXwgF6V2Ucnx1HeGe/0pCejo518xdiUwmI3WRRNDb5eLCopsrdXP5DM6/9OdSpkSIg2gSO8NtQiiEbfjXMRiM4MIlv/TOgNrR56Kvdz9Syfb+oWDfA0idvpcuR1Imab59F5z5B0wb/3pp72REo3W6ijfA/XoIbTsJmStLYkQwPHH0KzGu7tl6TnC1NOO1vXJM16cRICH2hnK57cumtV/Bv26/BDu2/BiFLklsda8kDPVk9QbVYW6vq/0w+WmwNIjaqWdhxpT3SRxfD8jhbiFkJGZOvdbpkyPCt5nEj/Ekb1zMk0tVIZMMuTQSOI8UpzPdeGTdW9Cb4CruFk8L0NG9Glv2fMnl9a4T7x9dpCTdRC+i3gf07GpqEHOnflhfbkLo9eYJ7eU6Hgnncgm5rgx7uiRcXjaTucWuPLoTq7Fi23Owt+km1dnY/g/VlRWS/9D658g/JGvVzvautRpPuFcU8oI7K6ZNfLUeDQaDwWA4EXiP45EBkoKgsI5ouAbZZLmQw5iLkwe0LnJQD4zLe9qkb+iDn3H0PhEkGJncQXClKB/D6jEiAeBDWY6JdD1WbaZ3SAhb1TNcuoCLDLpaRTHVeASR5CCTTWHOpHcjmBIDUnl07VmGv/1+Ae7805lCpC5FLtsrRJLElTYIAWgNIdhHG8O4+Kw/oKbSvQKPmLvgfXrs62rQNtFTyUUYjuC6tpMwhrwFFD19e3Gw+S7R34X5Mz+BK867G8+66BGcf+ZPxTjXPh/M7wgm5wgCE0a/HPOm6+5I/eDbRbhYpLJkIaIdUofUxfc0c/4iva7/+NNZ2L7pu15uD6yE3SLHQCHkESbnVRs4N5H9tm3P16XfM5g78cvM7IRJ9Nxp//OEJNDlJ3gtNY1hyX/apO9g3tQvaRscefZFCrCBHrgy2wfnbVIf7xF6U6mTpJJaOc+0pCqjdbr5qbQrJ/dIlzQrKmXcUDAR6s4hX0Jq6+zx26XD8RJFUllADpv2vU/I4bXoSWzUTOTqB5p/L8E8Hl73AqTTjZp/087PSxwViM48+472S4L2CxfEuL0pDQaDwWA4EXh0yIGPruEslSVn4IL5y0VWCHlyw806t06euOlExD3g5UfoGCpKz5ASLMiIgi4SWDTj0KvMyCk4l5GbbasHSSrg47+l834kUnsxbfR7XDxCmD/ph44QhOQhLoFgr3R8awBhIY1bVnwDha6kvoounxGyEZf4USGEx0UQHiMEg2RJSCLJQDQWFIIIxDuqEA/X9beLUlu3WGwIId/FdyuzMomXBOf5YrWF/hXTJG/3PfoyPLzmv/D3+5bikXVv7dfD4U+WIyEiqIuESN/eks0jlcxg994/DqqbEgpEMGfaJ7F41veExEg75M7SuXXSJ/l8SnQkJXwI7HOSx1BkEs46/3u4+PLfuz70hG+ZIXjUcCCFzbs/gobWX2J0xXOlPS69H67JetA0CWif81xIYjYVx8Ydn8C2fZ/TLW70+gmJZh4VIWf+IheC2ikXnPFXcB4i87BP2J+6qlgQr0iLrRyqplfQI6qCnXwLTTCLSWOfq+f0pBb0ZTckce5e4T1FfeynWKQWdVXnYvW2l6Op/Y+qh3nU+yo/mVwnmlr/JvfVPiW2tKGt617VzbbSc+g2/3b/5Iytu7zffhMTExMTk8eTYhhEEIsXGz5SXX4OouExEhIyKE9getM4hMuHPM/nTfqekrqJdW9GJFSDeHSyeob40D13zr9RW3EJxlY/X3QJJI7b13B+G2mgvsqND2s527jzM6goOV3KluHs2bdhTM01GFN2EUJCCkNCCukFVM9RPIjQ2DCmn/ZazD79rYhODiEyNoRgqVBUITEBDknWhpGtiSAvdnKhQyjEt6m0q4dx9bIPS50kHfS6laGybhZClW7jakcKSTJ4JMkTEueRPvc2FgrzZXGw+e9CFrnQpaBDl9xOJV4WRGmFSHkIsRLO33SLa5iHi18eWPlaKT24f6eMfTV6e7Yhk+ZCGhIZIUHKhg5BiaHYMnbi8/CMa+7CNS+4DxMnPwdVlQsQDrvFPyzCfBGxQwmRRgJN3b9FV99yzJ78v8KbJzhCJGSK3lUK26uW8JoxJNeDcUryhbDl8gkhWx36T0FUdKtpkqR5WIL5FKpFpbx0Ni49835MG/ff0ldOHyVa5haG5DJSrxz7569qXfIPRbAc86a/V+wKI9gt/V+mVSHG13xLOvtTL51EZoU8H2z7K9p7llOl6He2M9Gvb+32j2tekkaSSm2e2BOJFlBSDpRXA2XVEpZ6Zkzm8PKhNpiYmJiYmBxdjsRhBHHkoKJstiMIAhIGkpMx1Vdh4ZQfYXydW2QyofY16jksDZ6JB9ZegzXb3o1RFS9CJFylD3k3nMcHtXQkvYMCkojm9ntFdxiLZv4CTXuX67y7tr0Poq7ufORKhSzU5hGeGEJ4tJBBIYGdWIP63pvphlMdhJJNOdVtUOQqFarCqJt4sehnnSS2Oezb/Wvcddt52Ln1x9jXeCsylfsRKhWyJOVIKtTzJ0L7SCyUNIpkMsK6POjQpOQ/2PovrN9+nZIyCuf/kZAoGRHQGxjhO+c8NLc/gJS3hc5ANDb8ybORRJR1urCPQHgUImMqUahMojvFxT2uAm6BM67uSndNRPwj35Kib1eJOkJGT9/mfe9HKtEpJ27+KMkkof3kVedPC+DKciaHI1lpu0e4eKkkzh9u57Aw5/AR7Henw1MkCIcqMHvK/+Dixf/A/BnXYcq4l8s9Q6+u9JPo5z8RJIWuTABzJn9Q+rAK2XQXzln4fUlTNYpYvIDKWt5zbqJoRg7ZXB/W7Xyv2MX5qOx7XhPn3VaIWs5b5PXTfROV9AMllQUlnCGdD+nIeDQObNz/Zqzd/SYk0/WuvMFgMBgMx4lBr9p7+VWv53NzREhBiFFLx3+UVJBATBrzcoytvRJl8dmICYlhnsqSReo17OheiZ6+HehNbhcidbs8uyvkidwjOUSPEhQ+sD3NyhMCiGMsNq7+Ijpa1mHSlGux+JyvY9bct2DUmPPR1PVHqZdExHkv05lmKeq9rUSKc7iwfw9F+dDjxvgUmrHkjG+ivekRIRZ9bo6fHFs670Nb9l4hDm4lMPMTPiGkTdTNo5+HrEW9XYxnLRLu7FmHUJBbAElW5hHhUQkndWkbCVZQQF3lIlSWzVEVvmxc82EkE0n1kCkpFQU+gSutWIArr7kd+1r+hLbO5WhovgP1TXeInsUoiY3DmLqLsav+J6LHeclYL4vqQh0SRNok58n0PmTpufM8euwjtVeuqRJ3ZiKZirhzl4fREs6FPNLqiJaONTPeI4jhcEjIXQT7m36OA61/RF9yn+71GERE7IlJ2Ry27f+SXB8Oozvy6V97XreqsgVYOOOrONjwT5SUTEDrwXsxburVSKQPyDXrREm51Mcq6W2kbVl2tpxzgYnC/WNA5DMkwO5ESb4QZfalXhPJr9MAJFnJPMtxoYxnUyK5Aw3tt6AkOhUV8dOYzcTExMTEpKj8+q6b0d7eLmE+gyRGZIBvY2RhXM2z5AHrmh8KlWP+YYsuCC6uqCxd7F67Jv2lZEue5slEBzLJsBIURy6YKD8iPtbt/DiSZfsxY9HrcNrpH0JZ+RSN39f4Q+189fjwYS6iV4fwCJu+zcULM45kix68XD6FHY034dwrfoGqqvlKcEgOwjEhe8zKskIaGMcwQU+mkmA2VeLEWtWtG297osZLopbxyinp8MLOE+jCkuLipdy+xj/pO4t31d+ETbu+gLauR5BOu+102Be6wEaUUm8kNhlXXP0nRCIVoluMZPsE3T1b8e/l16K9c5WQ01Kcs+BHSsQGIhjOeP3rGSThSDzl5hCKXbSvn8CKqDdXzNRhf5JIvU70RmZdGeryPJvcTof6SEpJDkMhLvgI6Lw/7h+5t/GneGT9S/C3B84WAr0BD615HTLpHFJ9cWRTUdHDjmJzIqiruhjnLfiLtC+C0rJJ6OrYgL07f4NZM96Cqy64B1ee797fTDtpE0lhOJZ2hL7/HnJp1JslJ5Y49v3At84EAj6ZdG3gkWnU3a9fhPsjbtz7Luxq/Iac919Ag8FgMBgeF4GpU6fx0YOZM2bg33fzfbQjB1/7vymY1B7F/75oP7aPHbyIYiBe8+AoPHtltT6oyW1IzDh0u3d6D2Y3kyTIA5mLFCQvH8zdsRwqU/RUBdAXy+Ot/71b0+p6QrjxF5NUp0bIw5xHlnGenwJymZDbp9EnCpKeTgR1GJFQklAiEuEGzFlUNDGfkJtSKTdK6hTb6LnTPRdFzdZxCcxpiKsXTnmZMIhUSpgHSSIVKkH0DYkgXureVeyTDd8LmUzkhcD5XkFu8ZNDIg6Up2OiW/IqiXWaMo0Z5FIFHcqOhINIiZJ3f7EBGW50LbjuZ2MwqTkiNUpuiZLWIx0u4IfXtmLzlBSiuQDe/fdxmN4SQ6mQPO43SUKdZd+QMGv/cMW2GOBUKmhrrIS20ZNGYilHiecCEvYtiWM+G0JPe1gXvuh1lDJ5YWjMT4KoBJtDuxLPwux35unrTWDHxDzmHiz1yDPnfcpR6mf7/3hWO359bqtEOLzgzipcuqwMffE8PvGhg14s8LubJipx5RC1vnVFyie6I0Kg+VvI+rh4yuVN93EiqgQkQd+LLRdfX88XEYMk3v9HQlomcVmJ4j3k2tu/sbuHFRNT+OqVrcjxHxKDwWAwGAbgsmdcjp07d8pjg04deXiI8FHXD00YQZ8bn9mIDUKgdoxNDYg98rN2UkIfvCQRzlPl5D9CZj73nBZsmJBCjzy0s6mAPOwDqOC7db3hvrJMAOM6oqrnzffX6gOdnkP1IJGk+Q9senyEvHDhCx/0vofNwT34lfQIGSGBiqeDqI1GEZkcRbA6jLwQuGxDxm0+zaLZAuJdOZy2O6oalPh4JDEckS9XizsWglJ3VETS3X2h7VSyKXpICiMkVKqYJSSDoCzpefqkgNrn2RidEEF0XES3aCFufXEnRL2W44e8SEF10m4iIqTp7X8ahU/cOgZdpXl84UUN+Ngr97maSJZF2G9Kjhgl55zHR/JGDxyP1JdKkqg7neo00/52C0iIQEhIa1RskHY5rxyF9juCr/okTXeocWpEp9wfEp5d7xbRMF2vo8SRJLLc785p07b5n87KPKq7QlgzT+6dAR9ed52/KNeQ9Wq7pE3sWlZHzyEJZDrBfzBcG+js7IxyDiWvIWuTvFI/y+Y4ZC73G/+xoG6Xxi8NOuMES/bFMKc55llhH/vYxz72sc+hTzG4R7U8RPgcIScZSbKvNo0bnn2waNpA2TQxoSSkIEQpkya5cyTsnE1l2Dg+iTtn9yHQEZa0AGIl9LQ5cujIYB5TW4QgSv5pbVw97TpavVty5DnJC4WkUjmYxAl14JXRMImdMnoBh5s1XURtEltCFUJIx4TRUSIRrTmERCLdbluaQErqkvIkG9RAghiLc6NoR6NIMsA5jzRQgjpcK0HmJzHx63UEhgSHdQqZykWdDkl2epiXaXJCIhMTIiT1dAkhe2Sp9A/TPemWPlJtLMsyEsfmBoU5jm8L4vz1pUIYA7juD5OYTXtCN8aWgBI4zj+UcEH0+G+noUeX2+aQJHH7IQcSMPn2SPj6mjQSnXHXb3LO7X60X/rb7PKxPf7wvYunvV5Y6tGtkeTjE9O753UhnpI+lPT+NpZJouDhJUIQB8Tvr+Qwd0jKUrnTSQ8kyTltp9eZ8w4zSdfXJOcHqjP4ifwjwrzaH5rH/epysVJIyCM9hjpvlX3q/QOi8A7fuLITW8YI0WUWExMTExOTAaLwjv6p78sZseiNuof/0cBhOQ7V8gFN0uATs7GtYZQlg3jzXaMQ4RCrSDROssce1x/9qut1hKXMe+uGesI4TCqJPknkFQpFqNgRJy3MqyY/HA5lHIeJB0KJhRAIhZCW3slB/Pi5regSwsDyXMQS1jrEbsnLnCQdPE+UFPDA6b0SIQ3SYWY5CEFNpsiMJJpVS7RyI4ZV5EvKUo/CM4fEjLEkav0kRuzK9uaw/rSkvld5IPaO5ZxCkjcnKBwidIx/3Z3VePHyGtT0+W88cRX5xIj2s1xEiNSXXlOvw/i005FXkvgAEokw/nhGN35+dhe+8ow2bM3mMGlbVAhwWvK67Xq4UOnWZ7WgO5bVekj6qJuk2NeXTHL1tLOL5xqkTdpQ6Ufps1+d34rrbhqDuk6/HUBPKTMfOobE9mtWVyPWG5XCGqVkUNsmutMpoEva8bulHWiVytmlJKzkgTde24jW8gyS5YfuDze8TC3uXPvS66f+e8rDLUu7sGyKXGuDwWAwGI4RgwiiPiDtM+hzzu4SfOHPYzCjh/O8+IAmCaLHCuArfd/12zGIk7RIT3K40a0+FrJHr6D3DuDO0hwuX1MJ4Y5C1PL6IFeiKGHdHkUe6C7Of7gzTn4kjQ9+RwCom8RAkxS0QXmKJxPaorh0bxXWn5fFfiFhCe+NKKGkIwxKEiUfpSYbRWWLGOwTTG+xSjKSx/a6pORx8SRcjqxoFagflca2yQkvzZEY36PqezeJFIe75XjPxX0SNfizXEij0+6hfx6kQ0T689oVNVqh1kvyI2GfBLlzF7drQhqffGs9do+hzc6m5vI0rnvFAfxGiNHtQoJXTknhkfluqFcolwhtExKNPJ6xshyJqjwiQs70unptInJ8FaLuGemuD0H9JML8J6FPru+NVzciLES1pieEzwpJnL/HDeOmvdF3tmVeQym+9NtJeM1Ddajqjop+z35JU2+s5NtXm8J737QXf1naiT9f3MEqtT0Hy1J46b+qsUTuw7uXcgGQRPJ+kfIEy1J4zzDOX/Xs/0t4z6wEbl/QqzbZxz72sY997FPsUwyHEUQTX9gxL1hXjg/dU4NZLRGU0Ckn5C8cExIhx47ynCMQFYe61g3Hkvg5kqeLKQTnbK7A6/49SrmgPsRJNviclwitT77CQj5JXxxh1B/VQQ8f00ke+Y5lHgmSB51PGA4g4887lPLT62O4eHs5poRK0D0tiHVTEsj2ScEeMhuSOKc7FA5i6dZSxLoD+nYWxzKE2EVz+Ndp3UqESPyUnEo4LFySdX3ujQ0Y03HIC8Y2kxiyfvIqtZsbQwuJYp490zIuboA0jM4gpQs8eEZIeZImpkpcSJg29WkbxV4lUhLv59Y0IUIJaT/jYhkhWOPlSzTIFUFNRwiz93Le56E6181Man9zBbVeJ6/uCS1RzCgJIF6RdZ5IiaN+biaeStKzKAak2GlexwnYXqroieaxcUoSZ+yMsxSi8h/D+35bhyXb4sizfYJXPlCLT/55vC6GYhkil5b2if1Sjd4LvXK/fO/FzXJfuSoeOr1HKGwej07rxqRcDGc3leEVy2tx7doK0cFSkk8y8roo2B9yYJrW4bJg7cQ0vn9Rx6B+MDExMTExOVyKQZ56A8AHi4nKBfLQf+WKCjekSU+edKHrxAJiwgc+8db9Os+MK211CJgPdyV0juz4Q6H05Jy5s0wXNBCkBbpIgSTRg+YnYeGPHy3lGJ9KCqvz4kgI1cNF0iRHXdmq5M0tuiCxoe05juBK/OjeCMaJsR9/30EcCCeRrk8jfzCLzH4haPvcNjGcTxcXhdFOqUaI5j4hb62VQk8872Q/SZPj/ro0KnpDqOGQuWerehAljSayzmx7FtluKexMEZpDJd7JALn5Oe2il6ttuTKZpUUknoSMr8ILRaURIZI+evqk15Qkir4sF2M4z1tUGOJpDXG8/u4azG8kAfPndebxknuqEEsF1NY3P1SFr/yjDlV1QEVtHhU1AZRWiFrRW1qVRUiIXUhI2ufeVI97FnQinZY+Srs2BFPSPi5YEdBM3bxaftgno3vDeKkQwNP26Hv0RJTi4m1/qsX4dukjQXMpL4bYLep4vcgz2U+ZVEiukxvK3lGeQmu1JEo+Lmz53DfG4JuvOogfvbQVYZpBvXIPxiVMLzbLS1atk/1CqEeR954nG8dk8MUrW11GExMTExOTo0kRuKeLB1Ig+wQwriuCd91XIw91eejKw1n7hkcV+RFC8dH/G4cpLXHdzobQV/ZxMUiOW6W4Bzo7vYFvupAsXCiSUU8UlUm65CHUi8iwRxg5t8y/WokeCQkB46vrdLWsJJGYbJyQVGJBKCmjB9ErpiRKhOSPqOsIY0xfFJ/8UBO+8t/NSGSzqj0aD0m+AlKpHLI5bp8SRFwIV3VjELvGpiWPG271F2LweNOVLajrdq4x2sE2cesbgnkyDSmEUtz/kKzG2XKoV90nIsTuA3eMw7vvHotYSRiRKFduh9x7pkVXiRC3SDyr/eD3uX4kSNLtjl5fSb994i+jsbQ5jumZICpHuSF9TRN7uJXON/8wBs/cUoqAknZXjjrCkQLKqtgP1M64AF60thydpVKvfEi2AtKWfJRlAnhkfp+SO5JEJXmMlZNLNldgXJu3J6aU8fHm24SNCpriGewdk3ZlRegF5kIgLj5JJ4FUH3DrVW4F9PwdcXzi26Nx3XubsXsyPa+iT9rDNjniy/uK/ZNDLu15VSXNkUPXBrbtlnO68PmrW7W8fexjH/vYxz6P9ykGedwcArOYAEkhDw2VQlJI9ORcvwY8/PmQntQY0yMfyBonQtLUJWUZxwf3dy/pwKhuN7TIuFzGrWI+pEkgeoOcgzcoUvKm6RVk5jzSQuL6SaLo2SoEccX0XiFlQuK0MpIlEidJJzuUON+rSOLw/AdqNM+O6Wl84FON+N2VnaqPpDAS4RY3UoecM8/cpji+eP1YJXxcAOPLvlFp7BXiOK7dtcEfZvWJDyVU61xtJD9M6ykn2VK1KufuLMO3fj4ZZ+4p5duwNY+aL0dKvCyn+xjqPE2WYbxHkBRKgKiJ5VyYeRxxJ3kqoLIupwuF2G9z98Vx42XtLr8QOJ9IkWjRY6tzQJlGb68kXLq9BLsnppxeVsn88ivSUp3DHy7vlHJemynSfhJ/bmk0toN9ItedY8SqyZVn6TFtIfxzBl8LKCcC0lF6Idl/vF8aKpNorsvi4uWleMGdlfjqu1r5BkEtS9k/KiMBN22BCIakfzh1QRJJEjNJelRFcmF8+4o2vOcVjfjHgl5N93WYmJiYmJgcTYpBHlEDUazYyJOukjw+8dw2PDg9oaSD5EK9WR5pIKmJ8iEu2ZWQsZT0ZFdpDumKDLIS/u7FXVI+hYjkJ9nisCkJhnr6BDdcJqRBoMVFj+r3wKHIvh4SHi+zVJxK5LBiQp/asHV8Erdc3oaU2EbdtMd5+Rw5ZXjgdjVTD/ib+gWQjBXw98t68Jn3NmGz6CHJjMZCSiipm2RwVG8EIQ6terrbKrK4/mWN0vQAYrrHo/SHcCGmsd2O7Ehc3Hn4CPbNwTFueJjy6vtH4R13jUGFEBqW0eFWSeLLbLRPJBwr415/joSRFOpiDiFvOmdToLpF1FsnAV4bPWqaK8eTUn1HcQHxVADrx3O+o8vLPub2Ms7b5yxzbRAD5CQkF66tit5PIX89QlJjATTWZvHV1zSjuzSPjirvdYgiYWm/9rHkLtPX5ak2/emHRE1uiOLF91Siry8lfXvIO5kScvrD57WgRe6X81eU4g131WFCLIav/3I8brx5Av77PzUISr5/nd7t2im2u/c/c+qCC6sdEfninAP5Ve6TcHuZ15kmJiYmJibHLEeCT5Z+kKOYOMmECvjJOT1oFdLAoUnfYyVJ2pX+sDHPGUFa8dkXHsC43gD2C5F4QMjl2A66/CSvG5VVj1E6FcH/E3KY0Yf6ITgSACGCAfR2aYwQAD7sPYhRN1/Sil+e34aOeBY9JTn8+FktQqBI6qQajxcoidJrLeWlCnoR+Wa2w9vXXZHHr5/XiUSc3kPJIAQvL4QoUxJEOi6ET/SRvCbDOXzhdQd1AQfLdQoBYTtYBcmnciLJqMRJTrklEEkQwwcmCKGS9DHSD1euq9Awy1BIZmmbG24Vcsi5eh78TZ91b0gRPVIv+0g1E95RDuoN1DQJe3PySsqAiULc8lLpqokptZN53fZCLh+vp85p1KM7r5Brnc5kkCtjvJA/Kfr626sxrjWEX9EbKTp87ynJmQ61y5cjbux/iRA9vn1z9kZ1lTPrTyYyojuFbC6FXWP6sG1CEvXjMnj9v+oQrAqiIsVh9gK4TeTF20vwpgersELuI96L2r/SFtpE8d+m4l9j6l+0t6T/+pqYmJiYmByrFIN7mnrwH2sm3J4kgE/8cjyiHRH0UjodkeBDmqSFPUpy4AiSiPCbc/nWEjmf1h7Gmx6uxOTWmPISIinEZM+oNL58bQs6Y8Bb/l0H8gaf2ByozOG753UJiQggGgsjXhJBJBqVdMkkP1wQ01mRw12LutBYw9eqAatn9uFbL2pCdylX29IQkiXJW5oTAsShYVWthIz5a6UNFy0vwYe/V4evfn4MPv7tUYgJoUU0iGy1iBBDes1yQnzSciTiQtZe+M9KdxPJeVN12iMrUkzy0L6Q5KcvjWTFG2XVdjePdna2CGH+7lXNypt8csm3mXDeJssyLhxx3kMm0qPnXqdHkktNAu/g38naXMnvvIGOqOv1kfw8Mv78/THdS/GWc7qdXinLcgTnOCqplnMliwxKmfLOIEpSUp52Sv7yviAW7Irjw7eOwo7xSTwyt1d/azw12sfJEjmjGVJICWI/xB6vDnfv8EgbCuioyOLsdXFcfU85Ns3mm1pIAmmM1C0HDilfvi0upDGA2xb3+OrEbipjn5Goi06JjnjXau6BuJ6bmJiYmJgcjxRDqLq6+jMM1NTWYP/r9kmoWNGRJ1eursQ520vloe0e2BHhflzYQJAIMZd7w4lHCIQYjc/kUZZ0w40z2sJoFyK4ekoSvz+nA7+8sB3/XtitbxH57B/GozQVEoKU03cQ/+WMPnznki5cvaYas3rjCAa40IUkR+oQ/az/18/oRP2AIVtfWiuzeGheL+YLmSjn69mEZGwc04cJwkLdq+SgW/JUtQbw37+swRmbhHT0BpEJAxlpT0jYWahOx79V38BhcI2R5k1tj2PUgSDWnpbS9y8/a0WlNDcoNjrvlT+njvnzKSGmSddP956fEJJIlhrAgZoManrDmNZC0qvJSpy4wCYmhNa9Wcar05mi/UiQXCljE7g02unNy9N87CcJShbmJYlivpvP7cYGDjFL884TkleepDfYW10uBXVltFeeILmbuDaCON+zR31M02MeESFus+ujuPH5bdg+Lo1ZTTFEJY5zKdfKNa5r4jxGr4yEAqKY+09SdaGE95DXaIlnlgfPSODCh0qxZ3IWv7i2E1evrVC7g3I/uH8aVBFOa47ge5d2YW9tRldqs06msO15XkRXoSKWDeD2M+l+ZpyJiYmJicmxyaSfT0F7e7s8UuRchEf/Ua04ssjIlZc8VK3PXj6qOT8vHCNbc94pJSBBITSSRm8Qh5AzkTwq+B5gugWZILhiewx/PasTO8emkJcyV20sxX/fPQolXIEq6WlhNW9/RQv+uKhX36+8dGcpglHJK1XRM8UL5K5VEHsmHLmf4PxtMfzvDaPwkZv4Jhfghpc24ocvaMbecRnsjfQi0ClKUnnUHgSuurcMa+al8NV3tOJDn2rChymfbEaA70yWsiRYJG4c+g1Ke7VeOdfV2VLX+XsqcO0/y7Udq2e5jbKZh57ArDef0C+jG05LA7sq3EbdvtxycSvquYWOtI8klEcS4XQyjGQ350k6HZqZoEfNg3rXJF5JlBA2Ejv1Hgr8BRxCwyRdlArWTEzh7jncHBt4weoyjO10K42pn0cSZ5bqH2rmUdpBwu5+K1gfdfGauzzTDoRR3RPEpkkJfPwV9Xj36/fh/z2rGYmokPyLuyUrGy8/3IaHBjrzBKxXdPFc2sF6O+I5TD4QwY9e3a4eX87z7IfeX1QUEHIeQWk6gJVTU3jPS1vwvhe3ICs2Un/9hD50lHrzIqXqEr7uT4qbmJiYmJgcjxRDqGqAB7Hhtfsko324EOM5K6uEbDhvGo+RmDyIQ9KRJA/ykNdjgcPO7qHcWZ5HaS6PCNPkPCckIShE5F+nJdRb94ZHKvCC9WUY11KiJJIEJZAP409nd2qdwk9w8Z4wyoU88nKRFHKzaZ1DKJ9p9VE8eIZ7Kwm3rrn630LWSgNY0l6OmnwEFbkQ/nxBF+rHZrFzagb3L01g7/gMlj4aw5+u6sJNL+vCw2cn0FmZd/soipFn7SjFOdvKtI20h8PSus8fIec6fCy267CwhGdti6CjLI+/n9+t/cM+cISLxEwCDCcLyPQ5kvafCxPoLXP2L91Ugnf+fhTKW4Vsc4WHQEkaRcpzDmAqERKyGZQ6Xf+q100M9cmWetbkSCK2amYCVV1BRJnHI5JKlES2VWXx1as7pQkBXLWlFK9YWa6cT4meTw71SP0MM1UgcVXxIOLxAmJit+sT0RkUoqt1yH9ZLVEsn5fUsGRHo9S1ZmoCe6Svx7VGVJhGM7mHIpGPc3NuDQoCcq8UsHRZDL94YTcaxnMYPoAzNkUxNh3WfO4fEBHWKW3fPiaDRrluLPvO+6swgWRX4quzAbzr1Y24b24PtnsrzP+zoEf12cc+9rGPfexzrJ+JngeRDyF9lsoTx3syGgaCw6BchMIeoodMO0se2DrvK+TIAjuvs1QIlUcat49NKekg0aE3St1E8hCf3hzBS1aV4YqtJeqQCoWEEEhyOJbSc3oTiUlC+sb3sFK+rYXvC2ZsQD1sXGk8oSmCaEb07YuisjuItul5vO7halQmJY/UJVQVi/eUspBibEsYb/lNNX77wh6sWpwWouZI20Bcu0JIsFSpG32LGW7I3KWR8DGtP0yyWBXGy/9cgdq2EL72wkYlSAQ9rI4KicXCqqiD5IpD2MTirXG87m/VqOgVPXKe7M0gmxF7tI9cfvcaQbdXZHdrVCXr9Q37W7ei8UiTv+o43ZzXvQR1tbP0dVb6p7cjiL2RPObsiWDB3iheu6xciR/z+6vCHTnkr4RntRwYR+PCjJc6SNJKhZRFhCxqYUVBCH5IF/AMhBRR0v3Ta9tw87PbUS+EjnEu0T9KBAmp6KLHkflXnUGi6TClIYxEH18DeAipaB77ajOY3Oa8q89fW4pF+6MaZkbaMb4rjNbyHB6d0YfrXnrApRkMBoPB8AThnsAe+EwzEXLV5R7I9OApeRHxvU4kGxzSTAkJuXdStz7QmbZ9VBI9UswRFaFrko+rnycK8XvuhlKNJwLcx05Iom5ZEshhTGdY63zdIxVeHi+feq2UB2hUUHTRO9VUlxVWKfnvrRIy42zz9/O7cLOQUDly1ewHfjkawTIhp/fW4Lofj8NbbxuFsuShIch4NqDkgsSQIDnz26oi8fQccqiYg6I8DwiRLA0F8YEf1eiCm+9d1azDnVToz1vkyhuW12BY6kkH8Jo7K7yG+OCwspAkKpfMqlvK0FunQ9qqj/EsJGRN+jsUFvLksmt8a7n0odSVTgF9XUBPh5DDTkcSz94cxTt/X40P///23gPQsqq8Hl+33/v69MY0ht4RQapUBQFLRFTsGmNMYnryS09MTK/+Y4wx0RgTO1YQRKoC0uswdAcGhunlzWu3n3v/a337nFdm3gzDNBLet86sd87ZZ/dzYK/77XZLb5IcxSbfiYR7jJBHSkS90wRW/+GdCxKKnRSJsrrefmwF//aWAfzpz24JE1j0fHvyzwNHVfB379+If3zfJrrEYL6VdwnwDr6TJf15XH/2CCKWKwmrXnJZcEcGIvxwYQV/cvE23LSohT+6tB/fP24Es4cyePPDnSG6OM/6Xs6l+E7i0J/k2ul0Op3O3eVkGGsxCQ2sd6ZQqMtaxUZbY/FUQ2RNf8x6JdFCwbEljXPv68TIkLala+PNP+xFUTOdxzXe6rq8dHmnWQqTZVQkOrSNnK7zpTr1Zkjz8PUSpVISFtxm9do2duri5H2uAMweyaFabOOXrp9m+UgElIkmcuFWCj7GdfnV3SjZ2nzMOt0l/k54toQ/+NocZCS86GcmRXCGZwk7jTs0S6jFoz/hWrFrnUJZCHVvgpH+uysZ/NyX+2xyxh+9bT20N4usjSaiNYaR6elaeuycBztZnwrPgCy7iWBe6z50ZysV+qXuVXd2yAPJOCQMtcuMzWqmIB/regUeWizToYKHeg5IoatPjmFmr96dCU1ZBBmPTYRheIuXbqPv09IL90k3tNK08jD+wow2elIFLBoqYtGWPAp8l8m3om328lobMr5PyH/hPzr+GS61ETE/HV2hqzldSuOmMyujfjtYnwYLAJz2UAeWrSna0kBLNhXMzy/f1GciMoHKrDIcuiE3Go92ixm9djqdTqdzNzkZkpbVMQ7VfGytimunTnHyt5ds5RUrkf+qI/EuJyZu2iiPaBxZG82BcYs6R3LROnqxMKTgkAhJ2vjkfPz6rFn8LJz5a1Nwpm2x7ZuOH8aKZRUKSVnQgA/c0meWpBmVsF6eUpJwklDQ0jua6NLFvD23pGnCUNY4KRKVQ+JOC2C/8d4eS3fpprDDiyKRoLOiJWc6V/NhGRUtQyMk3c0Sk9p95ain8jh8ZR5buln2AZZ9i5apkYAMAlHQkjeX3FFiWVUXzIf+SigS1p3NPCUzoMNC4gnlRj8sl8opMWRb72k9RJWVfHqOunFDLZrYY9119kXMr56nLZ9bi3Gd89norinx+zGM+48iqQt7MzzbAt1SuLydM5TG6asKuPzuPvzB9+bg7/97Pk5YFbrz33JrJ377y9Nsgsh46J0qd5r08lcf3oDeYqhApaNJQOMxfVhh6T8KfvSVXHEXfwTQ2299f5ZZfg/q5wfA/IbvcsyiWuSPmW5+D69f3o3524Ll2+FwOByOvcWEVk3NlhPo74yCTuDNCIXS775nHVbNbJhwbNQpnsp6FgSHQkjASMR19rZMOEqESFxoCJ0acVkPBbMixtYupSN/P/NICR2MU42/wiR+UxQYV582gBPXU8hREMjqVWC2jlutLf4kehSGZDZ0L5HUKLRw7l2deP+dM2wnkUJHC7l8PNElFn/nrui2tI9aw3jklFBpxl+Ddlv55Fs3m0jTMyuDLJlKj2g0WiY+f/ELfcixvOkGRW25heaaRtwtr0BAbzmO0DJKKJEYubxEHz9A0mYzW/4oGnVK0qW/ZAKNFs+WmzJR30KB+3wuzDhmpMEqSeHKssqvrIj9xTZ+67KtuPGICsOF9E2ox0LRIHcGTRbitjPdlKYslxKnYshI1vKpeig10li+WBOGgPmbM5jTn8af/cc0dJclgi1KdNT4V0F5+t1vz7brRp31pLhiPwlzWiPc3PVH4ljWQd4xvRK/h7/72lyLSPlPxriylnmdweyBHP7hywtMvOb5LsbH63Q6nU7n7nAyJC24Qc2LHyls6ItsXsNXTt+G33nXOptUIPe7FjYwMsB6ioVFUq29sxo261Vr2GVzQYCoW/FzF/SbCFTDLmGoWOw+djNRw0b9qPUFsyCaEJMIoDisU6C86cFus6IJZj3j+cIVWptRljfek0ozCETgyXk1NDr4UmPxKvcMRW2RYtFmKGe0LVwaswdzWLypYN26CidBNqpPiDVdFayhIH50UTyJwtJj3moSnLKShvT4Dx/5cm/YqYXXWndRZ2k9Fe/CezqDKJP1T8JL8cflCfHAxiJqjUmLT4FjWJ7UjWpiMZRR2NzVwh98eAt+5fN9KFBYWzXyucS58q8olNcfnmEqHl89qYw/vnQA2zTZRFEwgPJhl8obzxa30ojTEfWO9LBZz6E8WLTdXkzQsg4fXch6YdyZWOwLEmd/8p8zsGij7TKN3hFZAynSWd8zt+UsTYlgxSHhl1XZ4mOgW3WjguoZf2wUWACFVj7JHNO2a+WJniIKVNH80E2GYhVIFmQ//PDDDz/8eKnHZBhr4Qi13U5gpNDCJ962AT8+cjhscxa7FzeyGtWI2zg1NegRuqdFFCSyNAVRlqDQAAbVVU1/asRNAKrbUXFJhLBFN0HE+7ff24myehATPzxvpqh79SotKk0PhIkXisRpFYmmYPHKmOVL6SquNp6e2bRdOfSurUtVadE9k29ShKlbnEKEvhdtyWHaUNgTWUjyEVEF1WpVLFK3N8XjZ16/BY8srJiokeWMubE41D2sLfJkKTzi6UIoE69tNxeLkCzyGfOv9E3FKY/2kPVLsaY0Fa/yNT6Y/jx1kHYWkYUsCCX5VXlHKNT/4qJt2NbTwheuGEK+msYQy6b6yvGdmRCPBeBxmzU2z4JjTW8Tv/uWfvz3KSNmiYwo2hpaVFwWt1i8hrpSnpg3sl7JojJQ4DljedRzCVrhm68ZsLjnbQldwiHnzAPj+9g3+tA7nMaMgfAspVnwzFCYkBPqUfnT5B3FIQ4lM8zj/MuCmKQl/0rbvo3EW6gpi0dWRIlXzQKXcxKn0+l0Op27y8kwQSDSm5PU/I51fVq4eMxNaxoevC4sMRImXLSQL8LGvFmXn4mgICAlMLRV39xteYrN2BpF2jhD/jMRYzFJdKTQRxHy0BItkB2Ep84/PrKC3prio8DLRRbnqFhUOIocxWPpyYG49M5e/NrVsyyM/IcFl4P/dFazp4MF69B1BVsipb8QoV5v2R7B5ZE6r+txOYBTHi3ZJJPPvK4f154waMuyfPv0QRRLGWQ1cyUBvSfCUCdZyXT0LCjglpOr+M45Zfz4xCruO6pO1nDt6WX8/fu2ml8TNnH+kzKo2/iLF/bjjiPLjDAWWSoL//31BYPorGdwwZMlnLExj/zSNpoLKIqPrto7SMqt+j7M3pUiDVy2voi33DYNzXrWZjRHJtbjehLi9HVWXpLuZJtIo3IxK6q7LZ0R1k0L38bcLRKwQdQl0FJEH/5e36jVUOY9CbuIPxgUn+LVPXUqobiZt00Usx0tGxZQ5Fkz2GWFtclDSkLfC8skYajvRVf2DSldWR5VPSSLFeJ0Op1Op/MlcUeMa+knD+IM7BtJo1jjhSAhQpbUNSjRxxZakwbMEiXGftbPaOCRGRVryNWwy6s17rGVUNYsQY37GU938oJ++KxKkXTbUWUThLIEylJoYJxaJ1BCQdejwoSn6kjGuho19i0RXBq3KPGgONLZpokciRSt8/hHV2zAjw4ZRL3aMGug4qJ8tDyoBMc/VbByL6F4eXxeHZ+4bCPupGhbfZDW6lN5JVAsJ5Z/QWdZ/lIdIQ8XPtmDO4+t4qrXlvHV1w3jq68fxs2nlNHRkLildlLxFYHCkgMUX5+5eCuGSy1ceeY2256vpYkbfBg1c/jgvZ34i6t7ccV9HXjNc3nrml4ymMEp6ynGJMI0hlNinXWrSSMqvqKfOZTBr14zA0UpXuWZjhJ7OsuDnVifEtEqvQlNHhJnqhsJWcWvPIeFzUOYosYZ2rVyr+fhasGGLBZvDNZPhTNRqAf8Y7vMtChsNTSATsrDL/y4G338ljq6W/ymtPZi3XbU0ftTOPthQd/6NlS+RDBqFpCeW+r8U7OhECFvTqfT6XTuLieDC8Td5IJNWRtXGBZ/ppRi+08dYRaoxGo1ao0iWo0Ufv2rM7F2egvUF3h2dgOPLa6yQQ9iMZKZkq16sqyKoNm3auKfXKBZC0CdDb5ZFelmYw7pLaprskZIJ3QvUxwOaV/k+FXaM2WMoVJaSiYyYWFr7RASifM2Z7V1NDZNU874zIJI8Ek18YbXHdU0jlxbwP+7ahZOfraEDX2NIODetAXFzjDOzqCTVIpFo4h42cPYed9XzuCdd0wzL+M5b4CVp2R4rfUkt3REuPbEIfzxuzdg5YKa+WlSHP352zbghS6VucD6buBgvgPBhHH4Zwx5l2iSQAzXVlo+lEj8jWtmmSA0UkWbJS+iSNMYTHmTgCZVv7asDuvAunYJs4jS3YQa3d72/S6c/FhYe3BYXcNxXmzIga5jLFkfL2gt8W0CUe8yxPEwvwP5TPj4/Lr5CXlXoIBcoUF3hmM+zV3fAr8VfT+JpdlmjSt9Ph/SrG16czqdTqfzpXAyZHr7ej+utmf69GnY8O41vJosqHPTtBZ+dFIVN59cxfJD6tjY08Y6iom1MyKzYqkOTehJnETJQtnAIS8U8GxHFZ98Z791K570bBAXEjFmwWJA+TWBwSdac3D6YBbXnTiMU1bl0VsNccpvdUSWMs2YDl2c6j6OGlmUKRDV3S1o0oqdzfoYSzYGrhWAHx5Zw7wtWZuFe/6KLopdYPa6cdvAmbgMN92tHF77bJc9m8b83HjciD2rFNo4bmUB00Y0q1fSla5SKISsbcp/ppdx8l6xLd6cw4+OKo91qZLHsg4290T40pnbcOWpg7j5mBE8LZFk0QQ/CW89sowawx6zKWPCSEh2VQndyrxXHUrcGoJA3EYxf8+yKpatL+CcJzotukZN4s+82CxsxZcvxd33dNPYRFsjkVFVhimC6SbvulAatWrDqujYZ3IYKQFPLm7i7Pt5MZq2QL9kkXHV6xHqFPYosACWRz1N4fOXbEWZ9RhiZ1472jiLdar0NKYwsRyGeCUwVXmWk+CH5ZMVWjPqtQuOLJyaeX/jCcOxP6fT6XQ6d59zv3wQtvb3s40JekNt1fiWbZxX586onU/a2TRuP7GKb58/QpEzgv95VQ2tehHtJp9FOQqNuIJJicTvvGEEb7m2A48sCtvxmdVQjbwJwxCzwsiqJf+Zhl4NcMfB9ZAuBYwshzYQkFAYuTVreQqKHLKxsUpv07pHJZ4s3pAHicWI7t8/aRC/954N1r0pi9Vpz3Sgq1tr5wW/4UzRVMiiK2+KzvLTo4XDR58C//zWrdAs5CSUoI/KzsWQR4VrNoLQOXtFp/nVuMzTH++g6M1YN/LsoZxZGZN4d8YbjxvGN07UZJkg8NSVLMjaJzFmlACz+gzdzL3bsvjz/5qLX7h+utWrnmfzFK8UhqF2Q9zNWhCZEl3JxB7Vjbq/Qze04m6jXtOEoxBO2u1Nt5ViY21wGwPv9W71jLCsUjiHRb15oqj+3S/Pxt/+x1x86Po+y8Nz0yX4VWf6bviupKaTaBUdA6s+9c1o5xhNrtG41I6eOvL88VHqrmJWuo5/vHJHa63T6XQ6nS/GyRBa2hih6fRjZ8db7u/BH357Fg7aErpYdSzanMfb7uo1QSbLoXXnmhCAWae0ePM77utGrjuLU+8v4frjy6N+rCvUugn1ekKXp40HNMtcCrcfUrc39/jcJmrlvIkOjYuLKEQlDm0lakJu6m62blKJqJjNZgbfpLCqURBGcuOh3VNypGa9JiKmoytepZruWYpfLYSdIPETShuOkY42np/dQLEUunxVFuvm1GWHykP/ElgmroBzlnfhhJUlfOK/5+Bdt/bhvEe68IaHuvGRm6fhL74+B3/z5bn4xWtnjEshHN21DC6/qw8fp58HFoZud8WXKzRZh0yH5ZNYSiABl9StVobPqj6UmTTVVappAlPhk9nbyq/Wu5Y1T8IsdLGDImxsbJ/8BmujCqX6Dd242ubvnTd24oZTK/JltPAKRLQiKUKgVGGdD0W2/qFFwYpSXRUY/oRnSnjPj/romEI5Hyy+2u1FYyFbEomKi5S7wmqiS4bXxe46csUmRWJ431KqMlR28/n4+vPDDz/88MOP3Tkmw5gScEzAJctL8VXA2+/oxesf7jJhsGxjIXaF7SSyekYj6Cvey+qkZW9KPXVkCxJtbSzblME5T5bwrnt7sIUt+UAHW3N6NosUz1FdY8sYWOT9up4mjng6Z0vsrJwe4TOvHcaIFu/WYwWlQGxQxEh0SMiEblEJwCCAQpe0uk3buOHIGn7nLQO49ugwwyYvEUE/+hxklTLRwuuSiT2Kx9hyKFjc0jw828LP4/CVCwYpVtQlm7iHskCTV5RHxq1ZuKIm97zv+j7GwcjoTXU1Wl/801VNY/nSeM1FQm5vvK8Lf/712Tj3sQ7MGs5gW1cLWyScFU4BDbzQPd9JsB5KpIVzAtVBEMwUUxm9J1VyiGMrxftnLtuC9f2MhllLliqSBU/lFoIVkYJOO6Go4pS2zryYvz6LH59UwdYemffCf2ISiRLhTZZbaJfSiLTFHq9NmCoKJUMH1d2pP+3A7IFM+DGgZ5Z/JSpRGGeCfmUFlVu+QxNpzKshKave/rZSyL/D4XA4HHuLuAUKULvnBE5cncfFjxbQqzUHeX/CM0W8lkIlWICAw9fmR/1qEe1/vHQL7j6kQnFEgcaj0Kl1/PjQKpX/eG2WHmqwd97Tg0enVVHntRr3bRSLEhOKW5Bo++5Zg7jwphKyzRT+8XVDtnzJrUeX7bliVdetZvBKvEg4JIJLeVM61lUqSBgxQDUH/Pgw5onXuUjd2yEd+Vf3qaC/hWL8jMF11pqHEqFCj7qCeZ1w1Zw6hpl3WRHNS9ApLFMQqRZWuonXEkQqvrxYeryQm+4tHzzfdVjZ4i1ocs/3ZuDCh7ttXUF7bgGBOxY24q74MFnD3IX4bHUQcmP1MPqYEQe/WhOyga1dTdx7eAV//47NqPL9dW1IY9valL1L88X4ZenL2fg+vVGt1zj2n8rWnhZuOKWKv//AgBlx//ld27BaW/9R3Amy0EbNFto9rJtO1ptEtP6RtlyONDgjlW/x3bf34faDaxY+EblJ2ZI4VW35ol5MXMJEGPI+jMVs49H5YYyk0+l0Op0vhZNhrNUjZAOZ6oesP+++h+KMFfaxH3XY/dtv7bVGOdKWcmyjZ2+TRSgcWk4l10zjS2cN4M8u24Q0xaHVpYSaiRQJJjX65mznU1d3YmgrxQ6v//ZtWzFc0BZ9iruN9X1NPE0hdPUbKnjN/QW0KFR0dA8F8SbLnMSLdkGRyNLi1kHkxcKQaQWRGETR0SvzuOCuDjsX6mmWKwiLZF0/i5NU2gnsOkRpY/F0zrc05nDsUOR3ahs7XRNKS9RWexKJBotc8YVbeTXrGSE3CV11j6+ZQXEVl/Mj103Hkk1hUKXKaOsAEnp27Wsr2Dyi7t7gZl3zKo9RnviHlybGdasuZlJd0XpmM5T57IZTB/C18wbRpHDuLKdRqqawgeLrj984hCF6VbZVFp1tP+sYN5xVw3+/cQS3nNHEsVu68JdfnmPjKjUB6F+vGMA3LhrCmtlNE4StAnNMwZ2EVnzKo9UT6117XKueldNDNuSxtRNhtxdDENl2pvgzT4LypDPLqzGTuknqU9/YvYu0J7gffvjhhx9+vLRjMkwQiA5gyZYMumtqvFNY1J/F61aU0FEJXcBa+08NfJqiIMFJj+fx8c/24HV3FW2v5KypC4obLcZM4agbicTR8YESKnT9q18dwLpqDe/+SifuO1zL34RFov/xPVss3lVs7M+5vYiiZjETB63PWh5MDEolkCaympHtjWyRxj8FRrtY6fe913TigrtLeO/3u/HH/zbN0rF4YkoAyc3EhsWpm3CtK6Wh63NYvo9+sxuX3FZEF0WVUvjea4dDuoQJH/5pDUcUrWPhkrPi0h8tG6N0g+VT9Qx832bfAkc9l8cha/LBLyF/zTD0cBT/+N4BDAwBI4NAowrUyuFas7dVxyaSlRdWfcgTy1homtAywU5ecX9HHBswb4MUMPA863u40MZfXDw8Nik5jicR0sevLuGjN8/A+/iD4eD1OeRYz2E/6ICHjqzi0+/ux1A333Vv1qomWZxc+UhgE1+YTX1PFjevT32qiP86rcxrPdM7YQBR75TnjOYS6V4n+5OyRb81DtG+Lbo+P4MV73A4HA7HPkDSFBrU/Ex1vveeWDyoXWYj/OYVEixts3ZJzMiqpXPif6TUtnGJ599bwO/9oNvCqctPkw2yee1eImFoMZp/1fjjC2s2UWHwyBSOqnXi7HvySNVaeKavgtPvLuDQZ3JYujqL206v4Tc/1YMs49d+xxHFWxBVwdpYSWt7OeatHkRMIogkgiQympoNHYtGQdbQX/6fPhM70oFhgexwTgSMxIrSsC31lFYs9o7+aQ5L1mZw1kMF/P4XuvHrX+pGF8XrUDzuTTLY4qgoT8yrumbjs4En5bURp6nlWayrlfjA7X22/d+b7uixuta/Rr1ts7NlQbQ80Z+oGdiqTpW/XgvvxSbpWDklyMYEUyKYdZ2lSGzUsixPCnm+wyS+M+8M6wMtPybMGB/sivA379rM+FkOpquyS8yqPhZRFAqqO6tnXm/PDJ918geG3m9ipRUkjIUBxi9Y+ODE95XChfd3423XdqBWUT2NE4mEztUOWYp5EwtI7aSjstlkHZZpdV8L1ZzKGvLhdDqdTufucjLEzVeAZn5Odc7dFhpca7wlBHiyBYt5Hax3bZQ1ezT2r+2CzSrIRt6MPAwhgTK+cafHcC3y9u4jq/iTr8wwi5mJuVkZtHJpHLa+hGMfy+M9X+/Ez3++C2+8toQOirCf/2IXNsyQUpFgkSiggGJs//wz/ahpX2PGURkJaWiihQkqutWrSp+v2B6F/JTMOkon+WEhTQBS/Ahx8egWZlQnIk+0OBiFypOmw+z+NH77v7qxoacRYlYxQxKIykHMKJ1Q6DBZxbbWC7eBek7kKin82tXTMX0gzB5W+mHmcIhDbkl9X3R7iSJMkSZgvRckwoOb8iBLYTLoMc6SIastC+PrpZuzFt8RTwXR99xCPovTyNe1xmADlUoVlXIF5XLd6inpOk9Es8YvJmES9gxnYAMQ+D0EWhDLl/g379iC75w+iHsPqeL2w8r4+mlDWJutoNDfQE+Z6VL0VoYlSEO5ZUC99ZgyurQYJOOXZVsCUT9AFJ/VId0/+9qRHfLidDqdTufucDJMEIhTBaqKD93Yi7f/pBsXP9CF054qYcGWHKaPyNbESsmogdZEhSAIsvlWECsUBlq95MYTtWh0QCSTkcDWXAtW62wihSJRCDEGyP2Owyt4z63d6KIIsVdC8ah1r2VpSmdTqFIs/vlvD+ITv0P+7gD+8rcGMXdrFoc+kU60FtnG9SeNYMO0Jr72eu1ZDBOD1h3LSIONjXnTjGUtzWIJEfwIFIeWYLHJJKSNh2O6JsRExh1yzL+KywQpHzAepR0cFSFFCoX0N88L3cNWGCakU2sb5asEFf0rTsUta+Rody3vJRYT66L8ZZopzeHhDUWRrLV8FsYzslyxwNazUx4Lgs5KYvlQ1zKv6SfpQha1zmKCpPyKxd4p/x29NotZm9O2J7Wskhrql6CDQk1C2EpDgc2SWljlc9RiSf9rpm3X/03oXcl8aBZd3puAI+RfglGLk99+dAVfOXsANx4zgmNXpNC7TUKcHpUc09V3Vqvwe6JQrLF6K1Vtb6g8hbjk0ayIEov0/82TKujvHH3ocDgcDsdeY1yzqGZnahwq6bHPF3DG0x24cHkn3vGTHvzWd6fjIz+cZmPV1BAnosJmzPI+V4goDCLbGk4WwCSui54qWMOuxloibXBLikJRjbxJGKP+SIDceHwFh6/PIU8BYELGup/V9EsckpkUjl5VwMyBLBr5FI55toQPf7cPqUIWHZHJJ8uL4rzoni686fZuPL04wnPzI8vvTYsbeGZmRHFCsWH+9CeICHOQ0OJ1sqOIJkqoG1RxJpNkTNCZYJUICc+aGuNoA/MUj050ZHzXnVlDRT20dNYTE3+lDNIzwzjCdr2FyLYmVDwhbsWnsLqvV5tBQDGwhJee6d4Ws1YGSbmtWKju3xROfTQfEpI/lUn5IGsUiGErQolFRsDzTcdV8YPjq6gofcuv8qdru8RiCrkLbw7DCVYcPXFyx1CXOVsaZoHVfyYMKqErkResicAjcb7GH69+InwPln0GU1e66jkRx6c8UkSa8Wq29q99pRuL1/EF0G/yjqyrPIZclOWz7iywrmKrolkQk3MKUT2LQX4rfvjhhx9++LGnx2RQ60ewFYrbzqnCWj501UqAqDEXNDs5iJQgCrW+nupFoipLAVLsbmDDwRXbI7mnkka+mcKhmzPomRbiUOMuQVErpzFA9389q4Ibjm7gpmPr+MRlg/jp3AZma99kW4uPYkDi0ESLBI4sYHwh1AvnPVjCz3+3F5fd0oUFm7PIUgjIKhVrJhNv8nvWihJOerqIz7+lgiq1082n1PDJ88t4aEGEupWInsXxooO3xc6M7Spi6ZGJcLOi8s+oUJQVTxZEZZFxBMpz2tK767h63MWudOjcm7WFsjWL1/KaTeGf3t+PtbOatoSM1nXUjO0GlVaN4lAzcRPLrJ3JeH3pkK6l3ca1pwybUDr33oKJIpUn2Yda+M7pFcu3FZdoM50fH1HD9RSJf8x6bzS140zWxu1J8K/rbdm40UN/ysom7nxN2P854ZZkj2rBhBtPcXJhmEG4f2zhxHDiSU9q/UzVU3iXypa2H7QL4k03deL1d3aYJfGpRVR8RBCH/OZa+v7kN1DXGnt66+lhZrwEYrPOHyIVifw0r8OWju+9pdfGPioWp9PpdDpfKgPUUMWNFRELxBjJsynAxxbWratwVBzJXVYZNspJ113UZAMsZ17nSupmTuHwTRlbbPotd3fj137QEyqXtdgzQ6JK1RmqWgJBhrfrjqniqd4GLrg9j3f/qIOCjDHymfxal+io8AphJP5eRdG3eCMVhLnpT3hmzym+BOVL92++swst3n3y3cO2I4jcP39mGZ940zC29Ib7ROTo3NFFcchyJ8JMMEEoj6Sdx7lFTVknw5hKEy9WvjauOatqu7M0rQzajYTOmpUbi0MTnzkK5c4W/vWd2/CJn9uCP/nIZnzi/VtwJ+tE2/nlcxmzHCotQYLUur55a/mjIHpyXh1bepgH3t9xfIPivBW6g+MypdIRXvVw1tILojGF2xc0sJDC+tJ7O/FzP+xDm0KqXsmhOpxHjfwWRft1S6oo1PiOqazWzmY4ZWEcn5snc11IQ/fKo5Vc+eL1tkKETb36hRGei8pjrirPyosC8lLd6AoYR6U8nnVfHj1DKXz1DWXbPZGv3+o4WcQ7CPoQLl2OcO9JdavTZEyjxL2is1nQIt2Of4YvIA7mdDqdTudL4iSIm7EANTtT5bj7sKoJJI2FGxNFsQhKKosNtVmsrAKDQEhFFHCrczhxVQELh8yXQQ14z4xkTcIQ5u0/6MQffK4b7722Ayc+mUNvU/GrC7UF7aVr4SSwSBNUFFcWWteMIogei83iF4K/4Kauy65mGjOHsrb93fjyDXQAn7piBHdSVEmE6GkhWdSaMItYHKfOukzEcoKx8YhE7EcO27qAh44I3bIR8yIhmFJ3tfJKT2H5lnCvJYKSPCmGNzzQibOe6AjdyHyu+DTWMIjDkH4iFNfOaOKLFw9ZWK2TePuJdfzVz5YphkdCZkxQpbBofRa1eKKNInjNyh78xjXTcf5jnVi2MY8h1rW9F4aR8Jy1NYN3f63TvK+dR+EvKygP5bRQT/EHQApfv6TMsul9hG/CrJvMV7KEz6ffvM3CjD+OfrYQ9mxWdzn9JO9MJ9WHliRKROdbbu6wMJ9+ezl4YPZCd7YQ0l01t45N05oY6mpjFUWvPaFfhctQJNo7VDieznlU+1374Ycffvjhx0s/JkPSIhnkZapwDcWHhFM2J0HCRtYaWzbsGjsYFBXPuqZwiPvvtPWZrH3vuKcU4pHFSheExKWEW2ePxIGqNYUVhzaRZ3ylUoF+Q1iNlVMYjWe0rlIjL1MZCx9EFl9XbC0Kz3its1Rj+GdWpESEvPe7XTj6iay9TD1L2GK+rzurgr/+yADuPSV0ZwYhwucqYiwwYmdbJkVJWB7ILIVfoRAWBbdw9CPr3X/+THk0Da1B3egOAkiQuLN8i3Sat1ayK/g97rkCXre8E1n6VR7kKH+CWQyVH0LPnj6ogX972wCFoaRSCC+qTEes4ktTeCtxyFh1QPUL1CtF2DBE+WWR5faFi4ZG37HGWi5Yk0Ex3jpQ5fmlf+vE7/xDN/7oL3vwB3/XjT/8m278+v/XidzWCJnBCKlKnDGBmbv5xDIGulsT8iWe/0CHrUnZov+kfrUbiz1kJm0/Z7O4tmwWuJw3zWjh86xP7XaTIOI3cdUFI5i1lkL1ci1GDvzgTNa5LhSdyEt9u6orva/ZQ/FON8GL0+l0Op27zckQN89TDxJDz81omHBQ4621ANV+N+JxXdalSqEXulbjhpjKQ2cJkFExQ7+a8Wxdx0SuEESgwpV7gI5OikMe2Ww2Fk6ylukixBca/SASLS88m2hiQhIYpilkMaT78kM1OUaCIAhG5UVYOJLF+7/dhd/8TDcuvr6EhaspNuNnQmctgzMfKoY46a4eXY1nU7y6NjC+nDSkEiAsDeYjnUkjXwwTZCSJvvaGCrb1xIUnWkyoXmAg/pMFNFeQUIsFLblwFRMhNCnjHbd3m64LopD1oF5cS98kqMWRlOmQ1Tn8+lf6cNSzYVeV8Vi4PsSpOBTIJGQ7S3FIv7LQ0VnvU+XT7YZpDVxz6vDoOz72wSQ8sOT5DOYzvu7hFDbPjHDPqxu46tIq1h3MgD25sF1evM1ektdzKQTf94Nufgf0E0PXC9fH9VQN9WP+6UVd8dWqppQHcShnDVNIoElG//ihYXz10hF87ZIy/uHDQ5i5LoWRjhY2qPub0DjOZyiaLcWxZPmtMX5+N6rfIulwOBwOx75Aprev7+O6mD5tOvrftZ5tz9Q5np0b4fQVRWvIZYWx7mYppljgWHczIQtisArqudz0UHvsNk3s2C4d9KOZy3qmRlsTCI7uD+PCJAgkuDLZWIHJQVeKkmncuTTCgi1BCCldGeOCBVHiM+RNefnKG4Zx+As5dDYowuhm7rFWi4YidNXSWLouh1MezuPVDxUwa0vGhIN2/Vi6Om9xW/JWxDgfDK+u01XzmjZxorOSZj5D9/CoSOR5a28Ln71sGGvmSiaOO5iv81d0gLGb+FLZLV5F32ijUonw6AkRXre8A4evk4CLxZsKKW+MXzAxRSpdQV3QHRTex64q4MnFDTQY78lPl0xsHf5MHtO3SeSFOIRclmKuLaEe4lL5FKW209Ps8dV81y+Qh6zMoDikJwH2/oop3HxuHd98cxXPLY7wxru7sGgj8xrnRZA/I+PV9oOzBilIGffzc0JX+5ytGZxxd55lYyXwX3ZaGBfZ39nCv1w8iKOfytjsdYuL2dZEpztOGJs9rd8MW/ra2DytZQL/TdcW8e8fKts2fomf5cvqOIzvv1f7YlteQlmtzni+99CaTQZK/Pvhhx9++OHH7hzTvzoP/f391sYZeahpGYWa26nELT1N3HxC2axoamgLHU2UuiNk46VZDBRAEmF6rlmwCieRGLosg4XRvCmOWETKclUohWvFFNKjCGAY61KmyElSWN/TwjdPreD5WY3RRj85qztUy6QoAs3MHeqI8Km3bqOwHRuPprTqFBESeY16i4wsXPcA8JoH8njXdztx0XUFS8/KQTbrErNjFsptFH///TNDeGFeyIN1EzNuzSBWCXQ9LcpiqFviw7IzSpVSndBWTjqMkW4UrT39KZuFff7DHVZnit92UeHZBCjDKbAJuzgOCVTVkPxKBr7/+h5L57I7O/FbV0/DMf1F5PKxQKQoVCwhq8FCKqpeJORq8VZ4Smf9jCZ6NrLAMSQMm9PSaHUAZz9QQHc5hXfe3I2FG3OjZQjn4F/5HRWgvL/4Xo37C9fnPlC08YcGPlc3sZbn+eu39mMzv7N/v7yMcrzXsv5WCjvWpThrSxrv+0oJd53cQLkTyNeDZdes1vwGPvPmAXz5giGsWFTHmr4Im3vJzgjbOlooxmtrOp1Op9P5UjgZtrMgbuDVZEFfuXxmfhP93S28aouEUBAEasGt+ab4G8m30aQAyzX1IH5Gd+21rJ05bFs9WRhjoWiCkn6sG5lxmHVHUfGoU7zlGZeQWH1eqGRx/7F13H9IHSc/XUCJ6WjB6zZFmiahyI/Y39VCmYruwhsKmPs009hGMULRoAkiaV5Gg7E4oYhpm6gM6t+2y2OGoiLVUhxXMtPYxFSthZ8cXkG1CKybE+Hkxwom0DS7OJeXRY5+GVGW5Vo3LcKGPgkslTUmIzr30RJyKj//JeWSyGxsDQtmZ2dmsWxdDhnljc+UdujaD36DUA3iTpZDpamz3JWXIuvkx8dVLR2lqnUEM5k0stkMItuHWt3awXooEW6iWvHSryx4dx5RszC/8i+dNglF6UdFivtOxRagq5lDGRyzumjPEybvVddmWY2r0WYS0+2xxQ0Mldr48NXdqFbjQtH9Hz40hLsOr1kXtxxkCdQs7OOeyqCjlsbquRSQh8p/Cqc8UcSamRE6y2n85ic7kaag7hxJ4XU3FfDan+Rx9u15vObuPI58Kou+bWn+mIhwz1FV3HVEFbcfWcVPyNt5P9ihnClBp9PpdDp3n9O/OncHC+IEgbjNupgnC/rK5psezWJWmdWR1rg4WQVjFcCnjyyp44XZTSzaEGYRmGBopSloKBbiCSdmUWxmTDCYH4pDW2DbhA+98IHOtWoLHV0WsaF/Q97GCt55UhASQx0tW8Bb3bQWPwWPRJNQWBPhiMeymJ4rIF3KoE3B12S8EUVYayCiKKRgmpVFupv5kPihgJEojBQBRaAEUSiTskzxxXO62ka23Mahq3M49aE8XvVwDilNSqFXiSHlW7N/E+F85AsF3HJcmDQxnqdS2BarQaAJirv8XNXOGdbnlW+p4g4KGAmj+dppJM6H6kfZk4Bt6YaQ8FM86l63BaaZgERZudDCwer2VS89oXRVp2l6tnOcxyROpaF8r5zTxIqldbzvyyXMWx8yWGalZ3sYaZIRQsvlzB1i3TI+hbPICAldJab4lQ+dNfFEM6+1xIyW+ZGXE1l31r1MaG3I6y/YcY1E/bnvmCZq/JTUVb9xRguHr83hXbd249H5NXzsXykOGdfqhRSAJzdw4+truOO0BpbxO+lmpN31rH2H3ZU0tnZHOGhdBoc8l8VFt3fivHtKNnlnLUV+mYJ1+7SdTqfT6dwZp72oQLxi6gnE6RSGb6E4gmYvU6WZLrDJBLxgY53fmsGTcxs4nOIkjD8EGrXgV/cSDRaTFJ4e68yLsFUfozVBI7+hW5f6zuIe2CShJL9p3PHqqjzhhGcLWLoxZ9a1EG9ANNxCtdFCcU4eKbpb1mJtk+lOI0Oxk+mkOMwovgQhzbYscRRdoWAxeJ2lWJVADMu/hGcZ5sc2YaG4lEhTfInVT8yQT81vYJBCViESHv18Hn3DQSC36m2MPFdjgPAwQ8eHXh2WatHak/ccWsMLMyPUGdmszaqnaFQcKi5FEpbAUdrBIqh6VJ0VmmGfZL4eQ5IvC6606dd2h2FYxaNn151cxnnX53D4U6xvQsMJvvjBCg5emx2d1CFxqPGLhYImEsX1xjgjns2SyTD3H1PHwi2hjpUfJaiz6veIx7PIbwrWw0w2jbtOrmPlwZGVZ3vqzwsUhxpvuIBi+SPqPme9n3gHX2yjjU99rGKicN087UID/MJXu9A7HL5LC8+/Git6xyk1vPmmThz3ZBE9ZeaddTOtnMHJvNdn9fxcjW8cS9fpdDqdzp1xMoFoTd0YJgv2yubb7qfo0uQS1oR1FZs7EYuPjmHgqGfyuHMRRRxb3uVLmjbeS2KvXpWYCFQDHq7DuEQJGxN6EhGM6NpTKtawV4bSGNxMMaBWXMkynlffl8f7vlTCGfdShDJNiUPlQnr0luOr+NQVQ7jr4sgsVnpgFrNsG4UOCk7qnmBxY0BlmycTE4qA1H2b4fR0+RF1bClSOGxtIBpq2ljFEGa01EhRpKQp8oREeCkuE6w8n/+AdgqR7zE+PadhfloUstgaxKNgHxgFV+/WMb/qBn14aR3XULg1G02WRRnkI60BSC/bipHtcpOUQeMIFVI716zv0TaCym/C0C1twZm0xJ1uZJG0Z3Q/8ScZHP3YmDi8/5gG1ixs4+sXV8Ii1bHalEi0MYaMQjufhO798F5lNbzj+JpN5DG/5j+kOWtb2iyTyoc948MHTpQ/87VTdtTT+DmKQ4lyZbQ9I4vP/HwVW6cpouDnbdeV0BF+O8QIiSjI26/pwuwtsnbSJ/Nigp6Unfv195dsu8YkHqfT6XQ6d80dwSZlDJMFeSVTmmrpJnWpxq07kQgG/a1qDWN6PGhjFic8qkkIbTy4oIZrzgpbu4nfp3DQ8EQTh+pWjt0lfGx/Y4rEzV0R7qK/z15RxkNLm6ip1inEMsMRCv1NXHJtHjO0h3M3sHZ6E08uaOCm4yr4+7cO4MZXlbF5VgsXLC+ZAFDOJWRzElG8Vz7DWootE3GycGkMo+38wXyZeIzPcygoPvOzw/jcB8r4yakN9HdGNrFF4w21fl8iFDMjFHkSe8y/xhCmGFe7TEG8roHuhyKceE8WGRZafsW10yI0NzdR39wwcaV4BD0TFj/DOuZ5PIP1LuQ7rCdJ8n5bb4QvXzCM4VIQeMFap2VcgDuOCIuby71BEZvUtRwkmnWjs4Sb2BqKcMRTUrZBHK7ti3DtZdo/Gdg4s4WvXFKxmc1hbhFd9U/1RWoJHq0zqLqTez/F6RfeQKF+ZA1lrRdJP2JnlSJNfcyErI1VCvct0ydaWBV9RyVly+kcuyKLN11VwG98q8fGVhp4inr4nfA9J2E6+ONj6WqFlENcSD7Ru1Z+D16tOg3u9n5l6VQdCLy/7PaxCTROp9PpdO6Kk2FCF/PAuzbS49Q51LLedigFWx7oraqxpxuFnsb/VYd1blPwBCuNge3x3SfWsfTpNHoH03jg6DruOKmB5+ZEWLYmaztw6FjT20ZpMATq72njS28cQRfjW/BCGvOfT9sCyNlqG1v72njsyAg/uKSOe89oYtlQG595fYUiso5n5jZRjZcs6a1kcDYFqk0cKVAg2iLbFAVWBAkEKw1FjcQZ3Uy8yCXcCyqDxq49SYG6dUYLHeU0DvtpBrm4m9XEloRVHCBFgZQqtxANUECN0I3imDVhwm7xYykc9XAGLyxtmajVYtln3JVDk0KpVMqiXG5angKYZ4qjh09Rl+vY0VlO4eRHg3lQ3btBmKdw+ykNPHFwk0IsmM4662nkqYikpa46rYIzHinapBwVL4rXEgz5DtemmZQC89Ki+DYnug1ShH7hV+qIsvbUjgG+p4dY/w8cxbruSNkwAg0JEG25nhjaUu9evmtV4lMHNWw8ZX9nG521FHr0nlk/mkWumdVakmcV62X2pjSOfiyH01kv599I3pLHq+/P4qjHsziomkeBflVF/GdZ1r7edxxVs51plLfDVtHvyiBugy++VJ0IiUf+FAn3jETjJu2HgEg3WT+7KVxvO6YWG2b98MMPP/zwY+dH31fmhC7m+FBjMlEgXqFZzFMLssasomB6YGELJ95esPGFtQofsP2VONRC0TYBwgQXsH5mhMqcNmZRpJzwVBavuS2LYj/w8MENEwXFVgbfOXUERz+RQ7seYRhNnHdzDic+kMOyZzO2Xh4KGUQdWVuQWcuZDHe18Xs/KGAuRedNRzaDxhmHMx8tYOmGnFmJTEjJWsjshDGQuifbfJlZPZddKeQ1sShJNCisnBdsyODcH2RwzKPZUXE4HiYUybDEjcQGK4gwCyPPed7nNIN4uI3j78mimWtj1bIWXnd3iQK2ZSKpWm2aQJXYVN0Vh4CfnBvEWgKJnJNXSK0xt+ozJfQuvnlRLVzTSSJZM4FvOzIIp9Uzm1hFt+OfoqKPy5Z0kwsqp95Tqsa8bpVI5XM+rmn85uw85m3M4LkFEerjlzEi1PWvbvhTfqpJKnTgY3Vtm1WSlfZfFw9jpDQWRnlbOz3CQWsymPeEEpUr3wUTbDLQ+Tfl8aoHs1hGgTeL30SJZTUvAi9ys2Sa5D+yKSFOZ6X74JI6RuKlcH7mphy6+B1amcZCEykM9UQoUq+GkMrrmEBMZnDz08X9y8K6iA6Hw+Fw7Ap9Xx0nEK3hkSFiHNTcTFUujreEk6gKlRMLRJ5lSVQDLF72eAbvvDOPQzdTJHWm0D0rg5mlLB6jsPvuWRV894RhzNyYRmawiTwDH5TOI7Ukg4cuaGJgXhpRVwYtNeIURmfcq11WgAsfz6Kjrivg4kdyo3lKeMQLWoY6Rlrii42+CUX+47VZEXkOwo5uiWeeg6gMeVcX6PwtGRRlKR2HOCp6CNT2dpqoIauY1vbT7Fxtuyc/Nd5LPHZpUgwdzr4+h8u/mEcuFpJR1Ar1FyMZ1yeX8ZRlS5D1kMkbvvrGsFPM9tT6f3ceGZ6tntPE5940hMF8y96LklK5M8Osl20UhZupnFj3Eop1ikcxr8k9kbpss/jl/+nE+XeGeh/P6RTnukgWJhdUjgcPrWHTtB0nnHTwh8Rpy7VmURhKoK51ieiZ/C4SKG+KQ2eJ3yePiHDv2erKZ6jY6pkIO133jYQ6FmdvUWBeJPWjl0RoLcqN1oWtsquu9cHymbzHVFyCrIiKwul0Op3OXXEyjLVmhCnHKXoc/Ly6/EKjyybWzhIZEljZPBtaCqeuaTXk2PpKoIWJKWqJ25jfn8H7b+7Ec0vaePBVEWrFNp5f3EJ6OgNRDBbo7ayn8liiSQ/asM7SaWPupjRyFC5nPZFlo84mn3GevIqilL5e9dMCZg1qnFlYquXHx1Rx8/EUSekgMJQHrcPIx4yLpLu9w5ClcE13CZBkdrZ1PbM8mRkUoRKpvG51ptGcTs5IIeojp7XRogBpzWrhkVMiPHlMiMzGU0ooM4zEjayFnaWMzVJetDKN/oGapaFuZglRiUgTPgyrmdA92it53MGnyqFdSZB+4w0NPL9Ari9+bJjOMPH4QKMyqAuZC+OyVyRkiynkZufNSfVj9c4ynPpgDhf8JGyBmBxafkflkuWQt2DN4nunl3EVRb+JvO2Oy/m+K0MN1m+w3EqY2xhO5YNotFpYM6eNW85p4D8+XMPf/3YFV15ex7wBmSvlN2b43Oys2ciKu2c4/Gep53qh9p3FVtbvXFjDC/PomW56r7Imb+ysI2Kd27AC/lP3uOKbrpnlfvjhhx9++PEix2SY0MU8+M6N5jgV8ZrlWfQNhwbWGmQ29Fr2RJDIKpTq5m5ii4JGSHZOEbpGMpg2lMZT85t459cL+MKH6jjr0TzFkbXyjIOCkd418aFh3YNS5ymsWtbEqc9koHUTJajybNir7SzeeG+Hzfh9blYTKxnnyrlNPEuheMFj6moOcaYyFIsSqgxngiuiyOETCQttSSdroLpvla7NjI7VVEpd0RR3EYVvS+6jxWAsupbw4Hl2fworjo5w12taOHhdFvmyhLHikd8wRjOXTdtyMNo+z5an4SHBJAGZUcKWoxS2TGth/XxdB5RqKRxKUX73cU1cfV4T6ylIdxcfuqYLs7ZJ0If0LAXlq0ERy5tak2lPyyLTKbUXYO9Ovu3dAvM2pvHIEREuvreE1z1cwlFrsvY+FFci3NQ1vLk7wsC4tSuFeZvTuPTmIkVz+BGh6mg0tFQOMMIYfnx2E0tyJUwrZnHYQB4nP1vAsc/mLb7DV2URls9kWvSv2fASdpr1/uy8hu3pfMojOcyRBVGwpPk828Z1Z9fx9KLIlgw65ZHwg0bPvv36Om47oYbekTRm60dFHPTZ2Q1bUsjhcDgcjl2h92s7djFPEIhDV2iSirWfU47HraRAHAiWraSBzeWztiBylqotrf3OCFvGho24ukZN1Mkz22kJR40vrFGhtPIpbJ3RxjEvZCj4ZIWU1U9nigE29G0KuTBGj2E721jIcErSltmh/0PWFSi+Upg7kMFPjpq44PIFj9MvdVeyg0uSV4m6VpQx0bFhWoRqB9BdS5uFT1AXaEA4m9DjoXOQGXRPvBDhMoWZW1O46YwG7jmxgZnNHOZtoCCUpS6G0stRGDZZbglFXRdKWdSqEbK81kLdikuzj584noKK16L2Mb7v2AirKRo1BjBxfzHOGEzjdfeN7XYyKliZp6jSQoN1k5vJOpKFNC6ZkHTFh1kbIU9aX7BE5bx0Y5YC02rA8ilDnMY4ypJ37E9zeG5eE4MUZXLORil87MouNLdG1q0utwaFosYSPnZoE1d+oI5Vh1Cg8sFha3NISZ+RGkKwaC3FYaLX+NzqPq5/fQ8Hr83gpKcLWDiYQz6XpfjWuoxprFrQwvdeV0elEMTpujktnHV/+PHy6KEt3HtcWBro0SUNPHRwPaxTyUi3Mc+rZ02+HqPT6XQ6nQl7JhGIMvGMwh5M0WOwN8NWmq0qW1aJHkEGMNteLddgQx4EncSedlDRTOIMr63rUppDLTLr9Jy7Cjh0dR7v/1Yn8jbWj8KC8ao7WH7UNVwoAfliBqWODE59MmdiUNTi2krHwvDUXVWWQv6mb0vjiqtylqe21m2ULyVpwge49Qjmg0JL3YvXnV7F7cfXbI/kcUY85l35tKB2tkkksoBZ3hmeZ8tjSiI0baLjPy+voymLIPmtC6q47pIGcl1jljlB+ShSLOlsM78zYdyc7lVnst3N2BzKkRxhYOJ4l907jnk+H+dZ8TJ+5Zn3Eq0RBVR+FgusMseFtrIZ4vPoPXD4Mxn88KQwW1r1pLzHweydCrLovfeaThsKoOO8+wrIb2zbIt6Cwsh6et+JTVx1RROVzuDvscVhkozi0XNLVRUSn0aFbagG3jNO/viwMHJmOHXn5/MZHLGliIvv68DPXJ/Dhbdlbe3EQf4A+OnilllfQ4rhkCi857A6vnhBGXcfriV9/PDDDz/88GPXx2SImznH6lmh3zcRSeqilV5QQ13TH1nr6BYEnBp5VinvR0Fn7Q5CZxMbCtKu60JxBi8SgWY1TEks8jndrJuaF2Hv5hCv7cVMAZEpVG1SibpDf/5reSxeF28rJ4FKcZqMS9PM67uX1fHdUypoMe+beyLr6rZJJ/QikZvoo1ijTEQcD9pZ6qcChW8W2XQeXekiSjLJjcPdxzTwn++ooDQtN1quBOpurtt2c0xEZWJiSbdzjyZgJNazvcDRq9TFzjLFGlXjG5WPB49uINun+mXCsQhM/o6JRL2LINSTyR3a43qgs2V+g+ik4IvXWDTBKFAcnnN3AbP5Ls65I8/3E9kEJkETU+p8KQtqObzluiIWrc0gQ/+Kt848yiKZL+idxiKR0DtU/JoQY98B7y0pXY8/E8n9o3Nr6Cmn0F0GlryQxtXnN/HNi4JVO4F+TKjr/de/1WP3mvntcDgcDseeYELrr/FqU5XrZsSCSw03G9Z/f2cD/R0tjOTb+LtLa/jM2U2biZqiCEyQXJlo5L8VfXW0ilpyJAVbGsda/9iTRIkEJtPIaBAaYVu6UUwkolMiUdS97fNMvPeeNDbMaKOetyRQrzKc8izLoQlWoDyYxhXfKeHBgxv41KUjqOQoaG7OojUYFFmwRtmlTTaxbs04XzqbaNVgRKYwamUkJTg+dnUXuioUd0oz5gtz2/iXd5TR1aNZvGPIMazEjyaqqEtbAlGiUdHl6N41PDGePeGcoVAQ5Xu025ynh04OXal2Q386mzCMvTBwIBFEOuuPL0dL/dx6TFhaR2XXMjFaR1DxRxR1gqI4/okcfvHKDpRHGsjl+Y5Yp82uNDJzcijNK2DuhoxZJK/4XgG/+N8lpPixrO9jnuhP9a28SngKErGqJ3XJ6yyOfifxhVlE+a70Lqp892fcG/+nyny/7bosXpjHZ+PqRcsg/da3u/Gxa7rQadsROp1Op9O5e5wMcasTIC9TlUNdoWlecSjFz/u0dzCsi+6f3jJsC1avmd7GX1/UwPKDJLAYQp7jSm2nW/jcRRUM9LRMCElopDWTlH6atSwber4AtvSasKLJKnwbZj1S6y8LYotUnDa+kWFaFI3pbNOETG8lhQ/dkcXXLw6rQksgJlCYgc1MiNnQeLk5m9LoZx76BoBX35tBYwtFrYSQsst4JVQsnKUhERK7j9ZCuDdhwmt1V6s788M37LgrxyYK6i9eWkZ3b97iFxS2kEvb7iya4KN7dcUmEzmmbZkYx57QJnjwQqJKZwmw206sobusG5VVXeVxQcNLMveA+FoR6Q+v9R/Ag8s0hCDUiQk2ijMxmw+WP0F7QNe3Ns0i2iqxjD0ZpLVoOcub530n73MFvb82OqptfOSreVzPfCXxqq5H4+M/WSeVDaWjHwr2jnjWjws9lzg1yy9x25FV5ON3JWWqT+jIeHeaWQNp/BJF/Idu7EB3lfmhm9WLzk6n0+l07gYnwwSBOJUhC9015zZxLVmLF1K+68g6GtlwLYwUga+f3MRnz23g9sNaeKGvjduOaOKf3lrFxt4WnjyihaFOCZRQ4epq1v7JEolD/W2UhykIGhkKgVDtJg7Y6ocdUCQQJc5kRZTIlCKQaEhh2YYUZlGgaHkXPZNQ0HnQ9jjWvQRYG2ffRbHGZ2//es7cX1jYwpfPLZvoCXGHPBmUx/irsPF08b2ey4Km8W/yr3RmDKVx6NowKWI8nlrSxC0n19HRxcqLoTg0ozdPsZQ4KBmV8+Ank8T3DsqT7XTCiFfNifCT4xvoHtETvSsyFooJ7j4hdMUm5U2ldS+/FPCMR3r/xuOrVq9BRDPPsVCzerD3RFcJtqJmf0vwm7fROFVvhWKadREWNO8Z4jvb0DYLtMKGyOVP75qX8XsUzNJM6D01KAwlJvOMS/cjhTambVCm6EdmS0MKp9+bxklP5PHR73dittZwjKGwSZ4cDofD4dhTpJM2VVBTPpWPxw+VVedFDra+svjNez6PnjV5HPNAAef9uIh56zMY6AVWUDCaxYy0CS5su6OCZhgH698QhUy9XAgige2+GnRZGM3SxHM0fncTCb+4W/rih3K4+gIJBcWTouAMVke9PIlD+Vm8OoMjH89g+pYU6hQW33p7E8/Ma+HR+XVEpjEoMON0E6uVxvIpjyYq4qTVPa5vIkOdKWuohMqld5f4scR1MO64mQJRM7bzhdD1a1BYG3uosMybnPjn0Mcmi2H3D03iUDzWXd5so7KxgatPo7CTOIsXGrfasLV7lCrv6fzAsRGuvLRpWwIGSKTFhY3jvvuohu2xbKKNlKC1GPjHqoNnWQvrxSDwEpglkM/1fgUJwFJJ07Ip2O/O4mvnVqyrPVgm4/pQ/dOv4kkoMW4WREZmIp5uiveqU6uYs5kZV4Dwh/5TmDmYwUV3F20STXDjH14qjJDUmR9++OGHH3682GEITUxymmhBVJvq3DW7yim897pOHMRGWyPwis00DnsmgzfdUESTuuCBwxu280cyiULCYLg7bsD5Em4/oYHBEh35Cqwrmm9AlkRt71ehgLTuTfqV+AvL4yhsCh1lCU3g4SMpjIYt+AQEYZDCpVcFS99Pzmihplm9DeCgZxV/gyKE4sTi16SMMIFE1i7r/o4F3Wi8Ehu6JpVH7X9sCznzfjzlT13NxSLTjb8xA/OseG0Gr/wRPYMTw75Uqpu1sbGJ6uq6sTbQxFAvBRqfFdQDrzwrw3KI8cyiFsodbTw/v4X/uqyJfvo3L3wmwZjErTlCX76ggqrVeSziJOh0HUenpXks6ricck8sgnrPifWu0dDM4jZyrOtzf5JCo85vQsKQ/owU/ZXSuHv+CcMSFHEYe6j4nprbtMlGxZr86D9VPo+FbS6bs/94Gdwg1xZFZjK7OimX0+l0Op0vxskQNycBQUf6savj7beVkI8rUxYhCQIJqHqRjTwb75EScPOr6qEdp7tOQxSE62elbMHlM+9LozRSR6Grio7eCjqnVdAzq4ZSN1v3VGTCJIxLU9dmGpG6pJmeicRaGjdT+A3G4yUDJFBkCKbgG4lMyAn3ndqy/L5qRQZ5Cg7KF4q1JhrNiOKjZZMmEoGqMthkCvqSMJFgESRUtf7f915TwycvG2E5ZJ/b8RjoAZYva4wuLC5oez5ZULX1ntZDVCJKRzN89/SoM/qozDpieRSXCbz4yDZV03G9xF/7SEcL37tobBkYWXi/cHkLP11Kfyzvc9vt3LJhRgufvryMDX3xMAH6kQDUtSJu88LehcQg86Bxgia6ea96NHHG53XtBc34lI95myQV1W3cJFX3vGY82ova6l5B4jjtzHsJ6009LVx5rrYXZB1aBuRRFlSK9ORlyYnhQqDQPW2zpXmflMkPP/zwww8/XuyYDGrSHLsJLXK8cHPGxr+pTTaBRQqzaxlcckeY1fvMwgaGpleRL1WQK1Uxd6SJW18rS5aessGvt2wZQJucIiXJyPKlCH0UKKlGwxp4LYkjlZnMah5dDofO//nOCEMd8QuVGKAQkZ8U45X1UpbMBGfeJ4ES8huWd5GrJkBooe0geCRazErITEnYaZHrKoVYeaiJuw+q4eGDwwSZXeHa19ZRLJpiszS0k0qxkDELXGKdVPfpomfifO8BRheZJiTAyhSvCfJapYj1pdhV4mcWtvEf7w5jD8dD1f29CyJceUmEFYeNhU+wYH0GcwfimegScPQvwWbvmtct1o2guksmkQQ/4aJcrvGc1LignE5MR0NckzCazKSz+YjF3v2HNfC5N5XtXQv60UFfpHypG5o/GnQVbu2sLuqCJs0oT3J3OBwOh2MvMEEgqgly7pznrAgzdhv1NnJ5CQi5ssGnLkxTFBz/TAa/8v0cfvnGDGZUYtGWbqOzCnzwlgwWDEtNysIj5cF/DGMC0GIPDX3HLAqPaoMijXrBrG10l5BkXFq42u4Z53++q4H/ekcD33hzA198Zw3p4SCGvvX2FlYtkfUQ6CwzDYkFi55/xgkXiR9BM2u1bIuBz01s8pI5s/vT7s9g3oZEeO2c6sZdM1Pb64XFnSU0tdOIyqTxmIlV8tAVLx7XzpgPq9EYQi7HnvUOpbC1t43bT2HdvKOF714UmZVwfPjx1DIxzywJ9Slq6MBHvlXCu7/Nd2wWz1BTyrbEoZWBovep+Q38dGmwBFrZ6C+ZxFKhOGzHJj299wT2vqVM5a6oSQlM0RJiPau+ZN1d3dPA7a+q4cJH0vjoj9L2LR2Ub6GjO6zVGEQww+iGicYnho+HJpADZum1mJ1Op9PpfFFOhtSiRYvZdrexbNkybP72E7GzYzL80vdL6I1njKpCbdIB6y7ZSi+x0OVKdWvIg+DiJcWdCUG6Vcst6wbsniYrnhp0Pmukkc5RdDRDd3Kt3Ea0NYXCnEwILxVAfPpNNQx2xzfj8MbvpHHYE2ncfjbF4bI2DnouhftPaeHU+9M47cHYk/Kjk3LO647OvAmfpGtTXaXKV5TMtrD8S+wEC9Z/vPfFrYhLVqdxxZXa7UXj7iJ0duexeXMFHaUsqmZ5a2NTH/CVj4V4XyqKFb6DT4ZubK0hWGb9/vvvh7gKFI91CvUda2fX0OLjpy7P4eCf8r3WGJeE/wxVTBBdpvcIVcvabB1ffa+EZxvHPJXB6QynLvNVC1voGohw0Av0yDwluQjfhC4kkFXvaaSyadvhRkisz0K9piEG/OFR5PfT00JecSia4BXNega1kawtIZTNSrEGka/4NfZRP1j0HkXN6r79+HjDb4fD4XA4XgQz33oEVq5cyTaFjQppPWfxM8eLQN2bPcOy+sTWN9ah2m+JQ9Wn1jc0qxEbeVn87JqioNUMVZw03rKuSUg2EmsY3TL5iAItiEMhV+B1d4T6ZopG6jKJi4hC5PhHxikKIktN8ar7gjh8filwz2ktdIwAm2eHiJY9z4wpo3aKIyeqFFKD3S2MTqxgFmXN0njBAPo1/woIdFKYFcetv7gzPHeQxAsFkBjPllAMGlOpOlP5ujRRJUnmJUICMIEtxs260ZqAEo4Z1kXHiCbzpFAiNbFDM5sLDZLnjkrKrIwHbUibuLvox3n84hcLePfXcli6gu+MAjbSLjAl5pj5lFjWOE3Vjd6vCvL4CS28/v4cfpE/FN74UBHTowy9U/izrq45N8K3Lonw0FFtrJ/JvGpCC93VTdxg3Q53Ajec0+B/cCFO2f4s7jh+fS9Zhil1bNeVHvczt5ral1lhgzU2+Z7CNxOPheSN4lq8qoXzb09j7qYQ1uFwOByOl4oJFsQtbkHcKdRoz92SoehK49XL40GIbH/zpSAQDRJVZjVqU/Q1TShKQMr6I6VgRqQojWpF+/S20T3dWneLS+MRNSHFRAWvy8NUP4w4RWGjvY1b1RYFUgo/OrNp1rJZG1I45Gl1u6bQPw34r48yPUZ17ENprD2ojS0z23jHVRnkKXS0pKLQoODZ2gvcckaEc1fkcdLKXBCIzNcDi5s4/BHGoDJYORSCD+w6hVvOirD8yBdXdn/y6Q7r6mzUIhRKGfRvrYUxiIxK29JR1+GLv9HGyLjxg7sFeu+iAPzIp4L9ralxk4y0UWyzjIzfolN+45NEGMWU1aGEk7KubmGeJKrkTaJY+QqzhiViU8gflOeD2I+esX60/ExUZgTbWKbFYc1HPZMfWRhlXRwstvAfb63YuoqCvpc5FGiLX0jh3uPbdGfaDPNbX+iwvClNjWFUl7zyVK83UOrSDw0JR22lKNGXpmiUdRqoDBTtbMvh6IIIor6NXC6UQ9CzeiNYexXzbae28cAxjCN+7nA4HA7H9pgxiQVxgkDc+u0nY6+OyXDYT9O46KZYAbCNLrJBz+Ss05YVGhptQRa/fCEINruP1OWqvYvZUFMoNtnI1yn4emdJfYTuZ5uUIhGjEwVirRxZ97W17HphjTRStRZWz42QY/svi1jfVmCoh4LrIxEa8cSUs29K4b7TNIN3LD+T4dA1GbztxwUTK0/Pj/DtM2r4hS9kzSInWF5txmxwePRw4MbXxg93gT/6TAlN5rMVtZDLZzEyUreu2kIhg1o9Msvfdz7YxvqFcYAXgZKftiWFc29MYdEqq2mrDvt4Ka7CWMrgru84LD4erieAXiQog1hlnVP0adyfIKElEa5Y0gvCDjCi0pEAtO73NXWLo7Agj4ztrRz8aDmjZObwg4dFuOn0XXft/uYXtZ4ko1LeZRCOs9ngR5HXTHgJRP6o0DeR4cvQzOkMFf5If4eVyZZBGvcaJDKVT0Hnhk1ykiVRBZBrG/cdB/zklDghh8PhcDi2w/S3Hv4iXcxqQ5yTUjtjXHQLW3RreGWJ0izWuCGWFwq5YP0JbnHPslkFJfgy2cj8qNXOxDNEtCi2CRGGScK2tBG0udGD+SckCDJ8Vkrje5e3sOLENnr7gcG+Nq58N4XmAF+m/DDcgudTKFNoJPneGbfIgsfo7z68iSvPrNk6gJunBTeDvhEJFBOobRSrfBaH3RW3MA6Nk0tTcKnLOpePZzIzflnoFP3ip3YMNxk7h4APfzqD930+jYMpaDXpRUIzy7O+YYklpaXxjqJmTofJI4qA2aYndXdrEe98LoznlBWzTr8aw6i8FYqMl34URu4KqbpPZihHg4x3bRCHQnOr3mO41hhSTVhK7o97jAF1vQtu7WOd8tImvjDO5Dy6rzQfRvWsfS/a91tDFyQWzSLKZ+MpqA6SSTISvOF9WTTxH+DVy4ETSbt3Op1Op3N7ToIJFsT+b6nldkyGd347jVlbQiOuRlgisKsvNO4SUBJ4NuuYZz2/6pQW3nxfaKltFnJ8VmMvt/JI07a06+oJjXp4zrPIe62lJ8uVWnsbh6aEeLups4l5L/CySD/dKdubWEKSOhRbp6fQvb6Jp09LY+l6CrRMC/cd0cITC8eZnGIUqHm0hd7aGWPPNM7w574kSxoTYpls9i2vVcTHDm/jxrPM2y7xhltzOPKuFstVQKVcp6jLYNtADV2dWbMkVmsRtvUCX/nlOMBOcO71KRzzMAVeJCtdXD/8o/P2MGtiXEXh1w8d6S8RiwoTlq0JtKqMnyc08JSdmUWrzHci4Sf3+NEoGLa0uGDnZIJPrRLWfFT5bj6tgUeOGqvT3kG+I3rewvcsLF6Xwdtvyo9aHmW9lNDU5CB9Q5Yezxm+O501Owr/YasAAD7PSURBVL5ezaFZy1h3t4015CMJxqTMQihDSCOlxTDNnW468zTCLP/nu1iPSsPhcDgcjnGYdtlhu+5i3uYCcaf42OeCZc9AQSYB1TUttL9hokp4KHHHthz/dEkbv3F1GlmKRomIUfEXU7OZ5d7Ro7FoavTlb+z5PYc3ccTjKeRqfEn0l6pQLFRb6J/extBsYMGm2FplYC4UlsxRQGR7ZXEKolUiY8WSFq6hYN0dLH0+hUtuUIyjkRt+cjLwwHHxzS5w7JNpvP77aXT3FTGwpYKOzhz6+6soldR1S4FYjaCe3X//4zjAdtDEmzd9I42Fz4d7+1jtHKiiskbMLRF/orkE51g8BSEov/RldSV/1m0vP/EfPZe/IBTVk9/G8le3sWlOGxvmUvxJC9JDttZGqULB1w+8ZlUe8wYp2OhfO9MIYdgfU2q08PzMJh4+JYWzHshh5oAsxhon2sKPT9TWhxE++r0iuvleJfRsJjvPEoiJ9VmWQ+XPrummsYj1SgbNuoYihDIzyricKpe6zCUKGVEcLlwrljYG+EPiG29m3Y+b5ONwOBwOR4K+SQSiJITjRTBtgH9MhcS1ZQP1eE03E4esRTXSJjh4/chi4KSns8jU8ib2bIKKzvKjkGrQrc8QKA+mMcAXYRMqrEEPeHpxCzedFaFcaiE72MLamS1cf3Eb33xPG/NkyYyFTgITDRWKTnVZmtCgowQGeRxF3+JNwd+L4dlFbXz/9W00wlyMUaxeMJa3XWHjdIq8HDNBWJXFOjYRYEmuNet4e0gcXv4/KROHsvSpS1lrNOZJWRGFMPM6WP2sCugsvxosEX/X5m40P7oY86exhqIsdxqTqMcNiuoahd2Ty1r40SUUyYN5XHJ/Ee+7oYhzl+dtHMYAfwysnw88eTTwnfPCYuaM0v4j0rVGDUijyXXxc2m8+YYcZvQrDbrw2cyhNC67LY+zH87hynNraNFN3csKU9GQAMKsy4R9K4IlQMGfj9DRW+cPkho2LmsE4R97UYEVj7rLE0flJ1zzx0Q38HUXhw6Hw+HYDYTWKCC1cNFia2llQRz45tOxs2M8lj0LvOFmXrDNTSZuqLs4X2qj1CXVI5FAxW3CrI1/Oy+FD11THG3DZc2RpUl+ZHXSTFRtYbfiyBZmrKFILLTRN9zGrHIa00YoYrRXc65l3ZAmJpsp3Hg88AAFzOtvBQ59hnHGb7HdoicTrhQKQ0yfwic/O8yelh/NhtVYwq0UCp+9IITZHWhx74tvaGNOLCw//UGWcbRAO0c38/+rXyra9chQzdZC3LK5YmMHJeyarAB1lV7znhTWLDVvBnUlv/O/U5jJ9LRUjsScSiWRp65bIYg61YksbqxPMoGEocKI9guIoeUvEZImmvQnx2cSdXSP6hTC9LeOwu+Bs+m3lMbl1+as3hVHxpaqYVq8/9rZNayZNZbeG+7I4ahntDRREL7G8d2/pIYQSDgqN5k8/8bPnp/Rwj1HNHHpPXnr6n/qoAjLnlO+9a7CN5S8N4uL9xKNeiZEjTSG+5nPeIKKFVck6jXNfmdYXmvf6SvfnEJdW7c4HA6Hw7ET9L7tULMgqkFR+2cWxPiZIWlnnBOZk2VIjbQppLix5X29wvu4AQ9yJoz12tpFQXFePTTMFkRdg9oeTRMjWigU25hJkXjO8jSO2ZxBB8XT8lPaqM1vojSzQYEYUSQpPpICRALg/IdSOO/hNA55JuTDUpRYjTdfTlUpVDrTiAoSsApDmsgIYmNGuY0i01R2dodlarxvvjGFB4+hQI1VzvZ+JmOVYjeVlVBpUsAwnKqABVBpVA5Z74SDH1MJxsK94XspzNjIutZkklgc2gQMii5ZEvMqF900ycQmY8TiUIJQVkYLxwTkX5NN6vXgT4I8WC7byMzJG9Mzs0jNzCE1I4fv/lwa338/sGEh8KYf0l2JEBJmgix8WrLm3bcUsHBjyIP4w1MbWD0zslF/Yea0CioxGfKleORPzhK2oR7C/cLNafSVU/jyeVULV9EQg/HqO77U5CbVhJ5J8CeWxcpwyOcomVdZQ00ga3IQz6sX8Bt8K+srnmXvdDqdTufOOBniZtCxK4zYHsoCG9t4urAa7kauhTsO4S1rV+27RNmdh1J5UwQc9lgKQ0PaHYUNPIOkMxR9+cjCaxkTdRMmDf7hz6WwaGsbS7YwHomZoDHilxa/Orq96qmkq1VjHmVdCuJQyFAgFDszZqlKxJPyI2Fh6yvSqbdszi8Jd5wCfPUtcYZ2A1oHsErBIyGX1QxmqjMJGFkPlfewzAwwZ3UcgDj+vhQOflpd03wQF1czoG2NP4o/1pRN2kmWpREkhjQ7Wf5rfFapNlGpRagyXSMFYlnudBtqRigsKiDNurHoVRxS+yBf/t0suoZTOPSZDHL1IPZCV7HqL1CBVH8aT5hA83euvKiBz15eQy3He2bNhKgFCNeyfDbrpHao0bI4dLeuaIr5wx9t4UM/ZP75Lo99RvkKdZx8E6Y3g5Mttq5xiGZB5D9ZlCU6bdgh47NfezqT5ZlpfPaDLVx1EcvBe4fD4XA49gQTupiHvvnT2NkxHh1V4ANficWJ2m820uViGl99WxBEv3x9y3bukDb413PTuPw7aRMboc1X451C93QtnD3W+GvnFAk4uVUpXO5Y2sBFa5hGRD9SBnSXIJC4U5paJ1Fj1BS2VtWev7F1SV3dZKZbz0L8jVoKHb0aqyZxZq+XiaZQYz4GSil85ew20zSv+wUf/WoexbVNdPUWUK00KOCCRa+zlLUuZs1krlBU/c//S1OcAe/7Nwonih11QyurydItEjwSlGGdQd2HCR+Koy7RRbcm49l4UIoE+mcCw70pVDoZB6utJWseX8rPXl+w95MIPxOBfGSzxPmvSr91vsduvmdbvFq6jdA+1bHes0lDtx4XTehmn07B+NZrMihU+CYUlZKjO08mBBWXGV+Z52Q5GyVc31RHkfk1S7AmMfH9Jd+G3r0svsk3kM62kMmFpXUUvl7l9zJcsGWDVD9yl7DWM7HF9/3Pl9XBz8vhcDgcjt1C99sO2aGLeYJAHL7SBeLO8AtfiAUi8fTBKdx6OhtrWbyImUNt/Owtbdy/NIWDlqdNjARxqAY8jc6eFnKFlgkCuTcp+pIuQ3UjPju7jU2IcHiqhdlDEjASDXw5sQAwISG/8eKKtWpYDBkNCgi6F6aPqQH51WxXBSx1UyTaOjh6wHjpV9Deyp99Hf2F6PY53v29HOY8Dxt/ONRfoVqiaKs00dkR9mSWJVDa7Mu/kcZbv0KhtSWIG5toQXctqK3yFQpZ5lnW1pBvWSWrFIabZwOPngJsng8M9aUQUdztDB+4Po8Z24KAkpVPi5QrEbP4UTDKyqeq1HNxTNiF+tf940siXPsaCziKEkX4+76ZRZbvQHk2QRuyORqX/gMzYRgLRCVUHWyieyYTppveR/JNaP1L5UkKU9bl0fGHPJtgpCfmyHbliZrhrLwpgGZCm19FRa9fuLCOrb0K43A4HA7Hi6Pr8h0FojUxY2AL45yUGtclq8yPTk/jprPTFIequvBsc3ca156YQUP7ANdCYy6ECS1t5IphCZNEFEq0qTFXcEoEZIfbuONsutfC65DfTI5qgdG0mKiEoSxNggmKdBbtRhYDvSnkpocJKRadhIUsUJa1FOqVAmrlvIkJCVFLkOyut/GuO+lXccVu+5LrZ7Rs5rHUiiaJSGxJuAi6t7Lz/uiHgjgUkr2bJR7lp0hxKG9yl8VPwnJ9dxvXX57CVT+bxk+PS2PbzDTF4cS0E6psb/xJWGZG6bU0/pJnWQfV/Rso0RXcLU8x6Mzs2R88srSF62yJIPM5yjfcmkVB7zKu1gkTRuQkgclrlVtd/nVZTUcoDHN8fXnWib4BhtX7CuHGzgwSQ4HDDwO996SbOVuImJ7yxLhYHk36kdi1LmfGsWiT1Kgy4nQ6nU7n7nBHhFY5xmRBnIFPHpLC19+axhOH627H548uBBY/o6ZdoiM08dbom2iTSAhWn4zGIcqPCQL6Y1u+ro+CgX561FVJf4pPZ4mCYEmiPzkKilqmPyqD1Qu1C0hIS1ovWJ6CQFS3o+JUN6W6szXzVRYrE6n0PH9rG8e9QP/0sq+5bq4EU9rEnoRSUFwhn7pMLIKn3WYnQzKRo95ooVSUSUxBgrCq1Vt48lDguz+XwguH8kH4t0u+6sk0DlujrlumSSp1WQ/VXW1iUf6UD/5TfUlo6Sx/Gjcqy2Kt1sRj89WtPLGetPfzQetDWIk8lS0RilYOXfJ+1KrH+0jjJ1NaUNu829AB7ZYSlqyJmbxnnpL3H1eb+Q8W4JCXfEcz5J/IUXRKHJqVkjhidfiGnE6n0+ncHU4GNWujmCyQM/C2M1IY7tp5w6tFlDu1HR1vwuxiWXgoHOJZrUJyLdFggQjtsLH2oBRm9FPUSSQQLQqDZE08g4QCxYGGIzY0tpFhJUiOfiJYlGRNyuY0AUZCJcSh52Ecn/IchKOEh6xQJjrINzzUQgfjS7Kzr7h+NtPjRbMehTUReWO5YsI2llAP5XEcdNtoRsHyyBv508STJhXlE0cDP76M+dYEl9jvi3HFoS0MdQTRZGMK6ShxJktfloLKPFle5EeWQInxcFbaybZ9F95EASZtFwcRj35GQltXEpMhTisS/9iZRZB2S0SirhNRrKEGep9pTY0W+M54i6FSuDWRH4c1kWhCMXbXc35DmuRk31f8vQi2Gwvftyp6/ubdryen0+l0OicDm6FxUEvl3CP2DMd1qBbaGu7QeGuXFEGNfuJmYs3OwPJZKYqQDN72XS1dEqyF6k7W2caokbK6PbkYeGpuEBqKykQNr2wiioQhRYMeBMtkSE+TLGzWswIwjzppCzed9acqa5autyvL3nKgS3GG7mKNKzTrGqFy0IeVIdZLhlA3QL0elrRR2EpFgjeNTdPauO2NVHiTpLMrNpjA5y5poMKgsiCGNSWDiAplDvc23pDPkjzqHAQfA9GTdqaZtWFi3Ic9H9Y/NH8hu1YGhQ3nIOqCsJMfjRMMCWSpNpP3b6D/756eQqEhv0H02ZAB+4ERkNRPJt8c/eEgt3a7bvmw9JVvvmu75jczPr9Op9PpdO6SkyC0NjHkxblnnLt+XKNvzTTd2dibMFGDbQ1/7Ie3Eg8j2zI48aGxBl+UAFBjL4tRjoJAXdJXnt/GD09tYek6LSAtfxKGPNu1BJC6UoNYlKjc2BHSkR+lUxmS0KRfph/GMLZxy1Fp/Ovrs6hpBqzS34fUHwkXJZ6l4LP8kmbhMg/MgjIeQ8+1BV5Ok37oResY6nGdAvOaD4axiHvK/3hjA08ukthm1KSla1lr2/Z2qqPEumczg3mpek2gd7hwTbDeJeysx8KSN0lXftJdPRqeaWTpx8Y5Kg26C1rIXPloUhCWB1O49sgMVs1JwsUWYKap9yi3kKhEfxD+GrvYjkVirtBGtVJHpVxDo97Es3Pa2EhBvamXolYTc5LgTqfT6XTugpNhXFMoT37s6THLJluEalZjniCIuCDMJP6atSzqI3lUBvMUESmsnSdRIH9BOCTWI1nbFN1TC9JYP00WppQtdC2VEHboCMuxDEtUKb1YQNTLOfRupSgcCUujKM42/4wMAUPb0vjyazP49OtzuP/gDFqMY38dEmApKi4TNUqHZbQubxZBaxwmgklQ+bUMjqyHmqnc4HN1Ld/8jgwiE7B7fkQUZNe9JsJXLmzixydpLcVmoLaz4XP9E1SnKbMk8iw3q1OKMR5dZeV77KBmt/w3WR5ZHxVOYSyY3g/TlBBUmccEZIhzuL+Ngc0ZjAykbLhApPfGQ7ueWBz2HoNQ1PI2o9+ShKOBzyQS+e1kbSF2fVst1l8TDQrFr16gskbY0sdHfvjhhx9++LEbh1k1RqFrtjXhxrG3mNbPBj8HG6e4eUYKzy5O455Xp/GdszMYapfQqBQp3gpoNXNm8QtiIIWVh/HVSEHwfWgySQIJhPV9KVzzKr4iPtZyNrJ+2Tg6etPrk+i47Uh1NMu/LFLMAG+StQNHhprjrHYUErxe8Cz26xqICcr5tm2ZJ4GqfGr9QlnTlG/ralYFxFD5tbahPtIgIlMY7E5hzbJ993lu7gXWzIgYf5PpM1OEOmSVp9EuZuWL18q7niVirVIcy6tgFk9FobLxUWINtROpc5bvSbOvdR0/5llijud0sJAqwSF+L0KuzAxIDJISgBpXqh8KuhbG4ghnQdc2kaUV1tRcsK6NeRMs2Q6Hw+Fw7BkmtMBx++TcA950ThpfekcWX7ssi+9emuV9BsuPSWFbRwqleCKIzWBVPYv8ky0Apz9KOcRriZSmVmuOnw1SlHzjNUEwKn7bwk3CMBFcvK6WUljXqy7pNupVdcVmxlmrJB7UBaktPHgT48gnKEDiPO9PSpBpgopm70rwyTInMSYoXxKMo6Cznst6GFF5yXp41yVjZd9XPGRluAjjC0PkNc0uZn1J8JnVj9n6/uuB9XOS/KWwZUYIn1AjBlT/Odu1hm7ySj6zGNjCcutaDFbjcK21J0ehSOxLAPqnAyc/nEb3tuRHQ6D5YXj9UGjWUqgOZfh9hKEEgolNOysDsnSaK865laJSTnRwOp1Op3N3OBkmCkQ/9vgY7KUYkMDY7li0QbOGWfus6fGNf8b2yG1j2jBv42e2Nxq9SlisLeXRzMo6GA51ldYoKGXpMgMYz9edGdkuLM1GFq1GzgROmGChyPTG9eaVXqwYiGKFrMp5/x4bZsoKprxpcT4JKmUkZEd/JQgT2GSWTKgnVZV2p1m/ZKzs++qYu1EVF1vc4kkgz1LUbe0J9SpW82308/6ai7J48tAMNVobW6dPzIvyp3zychSDHW3ceFoLV5/TGt3iTj8ItJ2f8PDRKTx1SPyAATXTXWgz0ZMeV6x8/Vq+KH5P2l1F1/oWNPO8Xs1gaGsOg5sLGCKHt+VQGVYccY3aKUyq6R4ey6sffvjhhx9+vNgxGZIWy7Gf8Py8FL5zbgYPHZ3Hqtkt9HdSGGrGMRtzTRqxiQma6cwWXoKiUcsiqhbRO7Ljq9ncF6xGsjY+NxdYNxOoFIGBbC5YJ+Pu5GpBVrJwbRpRYohCw2ZJkxKI+xtmdWOZkrUQE4GoTEnMBEET0KCoUV6jVtu6nx84L1ZV+xgdthe10lJ98B/z9eNzUrj21LDkjLJ091GhjnVz++kZXHthDsOje3EH1PjeYmOoifsRvoP/ubQFzR0pl9r43muD+FQZbagjsXZGC7edkcFPTs1a/Ho/w50pzNyaQlbvRhZU29Q5VIzNSrd31jaBaG48yXKpiNtRBo1q+M9afpTis0sy+NIVOQx1y7fD4XA4HHuOCSrENIVzn7JcaGHN9AZuP7yCq89so6caFkeWeLAz611i4Mml9Cy0NEYRKKpberu47jpKAg/o7wKuPS0adb/vGE1akMUqiIsfnMUbQ3KmPxNGIqAl+JKw+4vbekJelC8JxbTUje55hDF7fBDDLIfSQzxLeD13BIVPHM++ojRyKRbGElSVEvDNt6btmZbl0WLlWmdyxTK+k3HhNsxO2W4t493UfZ4UYQXf2xcvHnsX4tqZbXzr7LBvs4qtOpCVUs+ePCyNqy+REASWH5PBkaskAkN8Kn9lsBAySShcOKv+wvu1MZO8DmIxZ7W4cU4OV16Wwy1nZSbkw+l0Op3O3eFkCK12DNkj/Nh/x6ueTkH2I7PuWYXzWhMRePnjU9r4PgXkull8RqFSoEBMy4I07tg4PYVKFrjyXArC9Jj744s1RtE0B6rUF5umAQ+fEF5tsp5fbJgKooNqZH8f1aLSCmLGBGJiQVTxeJ2IH1NGEke8lNtIbwr1jn3fvZxhBdx2Rg43nJ/D9y7N4xuX5TFiC5+H4+aTge+dpboac9vZsW4GTEx+98wWfnQi63bcu0iO9TNT+Or5LbMuqlzjZ4xvmZ7GVW/M4flFGSzQotbxf4VaFkcisDIURKJ+QLSaCqF65FlVpbPq1OoV+MmZOVx7YRpl1dkBeK9++OGHH3688o7JEDdNjgOBo5+N2LBTLZgwVKMfzol8f25uG98+u40vXNrCt8/R5I4dceUFbdS1E8h2uOHVEp4wwaLha8uPS2PD6EQLCYpY/DAtzbbe31AeZRXUXsqxBjQBI5hAtHuJJ+ab12Y95HntPpy5PB7q/n12SQovLEhjK4V2S12149Df3cZ6Cr/dwZo5bXzlwhZemBM77ASyGn6J/h5dFt7veGyR2C8B3eVQDxoiINGnmc9pXlSHilZHW1J6WXxvfGb+eLaJMXKlWDzkhbT5czgcDodjX2JCa5woST/2/SELVnctiCE19NpqTWJN10EkjvnVxJMtfRRR49ySY7hz8vf07AIKl+nAMzzrXhar6y7MYfVBY69YliyJiXph31votj8aWp+RCWoHERMwVnBdWFEpckKZTSDybEvg0OnpkzJxDP97j5FS4O4c6p6+9cTwTiY74uGn4d2QsrTqXsMMtF7m3cdoQk2oO53pxZ4bGGDa0Fhcfvjhhx9++LEnx2SYKBDVWDn3CzMRKAY0hlCCqE0hIEHE1yIrohr/ScK8FApXn8O4xrvT7ebzclh+XNYsaEqnQfHZkLVqvL/9QFnoIqZnW8zxXhhbL5DCiQKIGtZEkZy1k4quB2eEcYFThYIthUM06xLUvGB9qE5Wz0pjW2/cTU9n1Z8W3lZ9qitaYrLQ2O6dO51Op9P5EjkZJghEx/6DjQGkaAozmHnmG9EiyDr376NZpzt5x3jw+Cy+9TMF1CgOhzsPzCuXIG1aF3qwDlrxpQgJ/ZUgNMshM23Cked45ZcpB81KF/LJgtysi2YhhevPBEY69K2IrCs+khVRe2ybaCS36yl3OBwOh2OfYEKTPGZs9GNfH+ry1SomauyTvZMlDiXdbzoxN87n/jmqpTS+9bYCVhytBbUPzKGJHJI81p1MSNSMQQJRp/BMN1vm7/+u7/9tR1x0G1eYKPw2hfXX3kCRnU2hTjFY7qAH+xcL7SzQaATLov4LHh+fH3744YcffrzUYzKMa7JD4+PcfxzoZhOvLfPU3xyjvzONTb3h9exvaqbzc0slwiZ/vq/ZyPKbkgXRRCDLaIowth7y0F7GehKeAhuXaPzhxDhe6VTh1cVsVkQ6rJ4FfOnisCi6+eGf5UeEsyb3yGoocaj7iOGaFJHmz+l0Op3OPeQYYksFMcGmM9paO/cLH1iaZQOvG76Q+HzVKfHGyOP8vVKosY5CmJDCC9IetXhpZrPwo0SOct+qWdfmYepQJ2HtTOC6U4FrzgAqWuVmnJ9HDwWGuuQrQF3yqj8tml0rxJE4nU6n07mnnASphYsW2+yAZcsORuora2Jnx/7CL/2wjHYkS1AbtxxTwGMHvXJHkV1+dRsHDWVRLTfM+lUeaaBcaaKQz/CTC+Kw3mhBa/xpS+Qfvr+AbbMn/mZ5pePMB9p4fFkq7OG8C3RWgLff0EY+7oqWUVbWxKcWpnDLScGPw+FwOBx7gva7FmDlymfMkCMDhDihNVaD7dy/XL4oWBFXz8jgcYrDyfy8UqhtAIWkazlB2A1ES9yEe3U067qZn3rdpT95VQpbtTPLJM/Gs1wCrj47jOs0h/i/3LCskdPpdDqde87JsJ25ZrJgzn3J+w7Jo8nz1SdLPU3u55XCmpZkISQGk5nM6h61a96MWrV1QYUYmX/nzrilN4UrL0hDWzPLRaJ6tVlcd/TrdDqdTufuc0dM6GLOfHlt7OzYn+ioA+V46OErGWfe0cKrVmXRilpo1puo11uoVJs2BrFQoNBp0D0KYrERAVf9aicaY1sRO3YCbcP4nh+wwlopfP5ntvuN53A4HA7HS0T07vnexfy/gRWKw8ncX2msxzNxzYLYDtZDMYw/DF3Mei6YNTEzMbxzctb5/Xz99RmsnD/5c6fT6XQ6XwonwwQLYu7L62Jnh2PvceyjLZz9sAbNtW2iioRhtRKhVo/QUcqiXotGl8CpU0Fe9Ztdto+0Y/eQbaVsMXKHw+FwOPYGjXfP27UF0eHYl9BafgZpGDIszxKczG3czxbbaSbYER27CReHDofD4dhfmGBBzH9pfezscOw9Fj/fwqW36+cIUB1pWFdzudxAtRahVMyg0WjZhBV5qPEbvPrXu9CmH4fD4XA4HAcO9ffM9TGIzgNH7dxiPcjtMO5Qjsmz0cWyDcESpo8xee50Op1Op/PAcDKwTdYqdEkT7XDsO+zUGkhnfW+JPtS1ektTrZ19pg6Hw+FwOPYXgg4cpwTVJi9ctMiMO+piLn1pQ/zE4dh7zFnfwptvaCOTTaNWqZvFsDLSQK3eQpZuQrMZmZVRO6lc8yvdiAouEh0Oh8PhOJCovGcOVq5cOdq9bMd4gdjxPy4QHfsOszZSIP4wiMFGXUKwjfJwAw2qwUw6ZWMS640xgfjDj3WjXnSB6HA4HA7HgUT5vTsKRJ/F7NhvaGXi7fTUpawLXeuWH59dbqcF083Yg8PhcDgcjpcVEyyInf+zMXZ2OPYe07a28JarI+TyadQrDROGI8N1WzRb31w+l7IZzYkF8eYPd6Hcp3UTHQ6Hw+FwHCiMvHf2ri2IMug4nfuK6Vaya0oQhPzq7IG6lmMHcgyZ5lhYp9PpdDqdB4aTYYIFseu/N8XODsfeY+bmFi6+uo5CKWvrIGqySnm4bl+j1kAsFjOoVJqjFsTb3tONwTluQXQ4HA6H40Bi+H2z3ILoPHDMNsePPWwjnZFrgDmZrzFkm8Ha6HQ6nU6n88BxMrhAdO43ZmyXFME260EmM3FOlPyMR76u3yw7xuN0Op1Op3P/cTJsN4t5smBO554x1wyzmEUhNWHh7EQ8jrllG/o7MQ6n0+l0Op37mztiwhjE3i9ujp0djr3H0pVNnPqjGgqlHGqVBjp7CujfXLa5KrV6hA66awyi9mPWGMTHL+rBc0f5GESHw+FwOA4kBt4/c9cLZfd9cUvs1eHYexzxeAPH31FDsZhFrdpEZ3cB27ZWbFyiFsiWQKzSPYqCQPzp63qw8thsHNrhcDgcDseBwLb3z9jZJJWku8/h2HfI1/iHn9bo15XamSE7INvc1VOHw+FwOBz7FWqw43bbJ6k49xuLjSAN2zZZJVyn+MUlYxIN467Tvg6i0+l0Op0HnJMh7mJuY9myZZj+X1tjZ4dj73H67VXMf7KBfCGDZl1dzEUMDVRRr0fWrVzS+oiVJqJ4DOKaM3vx2MnexexwOBwOx4HE1g9MD13MOjRRgNxuFrPDse9QrMcX8XI3+qvvbicGRNt5xeFwOBwOx8sP72J27jcWJBCpAMd3Kdv1eFVIyK+Qpvv2cTidTqfT6dy/nAwTuphnfqE/dnY49h6XXFtBYV0d2VwaUbOFzp4ihgeqqFYjm8msLuZypWkWxkYL2HhqHx451buYHQ6Hw+E4kNj8wWnexew4cMhR9E1mMWyPOmz3wOFwOBwOx/8KTLAgzvrCttjZ4dh7vO17FTQ31ZDLp9GKWujoDhZELY4t4dhRyqBciUxFyoK44fQ+PHpKLg7tcDgcDofjQGDTB/t2bUEc3x/tdO4tM80xC6F9cDGC69izdvyozVDjwzudTqfT6dz/nAwTu5jVZjud+4DpFhnxw6MwtI9vnEA0TPJFRhkG3C4ep9PpdDqd+5mTYEIX85z/HIidHY69Q67RxmXfGkGj0aI25NfXTqHYkcPQtgpGKk0TjqVi3MXMr7PJ0wtn9+GnJ+RDBA6Hw+FwOA4INnyod5IuZlOOwZyjv07nvmCuARt3mM7EH5ts1XoQY+xy7KdLlJkYh9PpdDqdzv3PUYy78VnMjv0CWRCbzbYtZ6PvLZ0e99VRE472OEsfxhox8hVuHA6Hw+H4X4HUwoWLNKEUy5YdjHmfHwyuDsdeYuamCGf8YJDCMI2MLIOpNHKFDIb6qxgpN5DNpFEopHndNH0YtYCn3zAN6w71LmaHw+FwOA4k1v1sT+hiTlkns1lxfBazc7+wZ7iFND8w+/UhN1kQ42tD4nEcmtkxZ6fT6XQ6nQeGk2G7LubJgjmdL529Ay1ksmleBVWY4pem7uZEJcrX9mjmd4zH6XQ6nU7n/uaOcAuic79w+jZNUIk/L2pCmaxbFIijFsXYjG2SMXaLsmbYdjqdTqfTeQA5GSaMQTzoc0PB1eHYS7z56hFkay3Uq00bg5gv5tBstDAyVLO9mEulHNLUj8MjDROILfLBK2agPNN3UnE4HA6H40DihQ9373oM4kQ96XTuOQuNNloRVZ/Un36B0C2KWmi3dE3BWKBqpLt8x73OaGV2jMfpdDqdTuf+5o7wLmbnfqH+Rk2qwXiiCk9UgLIUtk0PSiDqWoj1IWBjFsficDqdTqfTuf85GSZ0MS/63EhwdTj2Atpm7y3fGUBluIFsjp8eP7BiRx6VkTpGRhq2u8q8Bd3YtrWMWr0V1ktkuPt+dg4aHZkQicPhcDgcjgOC5z/c+SJdzGqlnc69ZNe2yLqSW622LXUTzIfhXlZD3WpGs8Yd6kn8OHQxbxeX0+l0Op3O/cxJMDbNlLDG2uncS87c3DQB2KYC1PqHo7uo8DOTcNT2eyYWNUZR4OM2VWLbu5idTqfT6TzgnAxxF3Mby5Ytw5L/KMfODsee4+S7RjBvdR3l4To6OnJIURBmcxkMD1QxMtJEoZhFV3cOW7dUTUTKqtjIpHHvz8+LY3A4HA6Hw3GgsOrnOnwnFef+Z89IsAyGnVRCN7NZFGVB5GETVCgMg1vwG+Unj8vpdDqdTuf+5WTwMYjOfc5iQ+MM+RuEX1cUhbGG9iz8QS6XRtSkn1EXoJWl58Sf0+l0Op3OA8dJMKGL+eB/r8TODseeIU01+KbvD6JZi9BsNG2GcqkzZ4JRi2SPlJuYPbfLupvr9BPJkshwQ9NzePQdc0IkDofD4XA4Dhie+UjJu5id+5eFCuUe/zWbLaTTabMg6oNrtbRIdrAaatJKvR7WSOQ/Q7OY2SEup9PpdDqd+5+TYWIX86TBnM7dZ0eZQrDdRrMe2VZ6ggRimIwydh9RMI63aze7tP7h5HE6nU6n0+ncn9wRE7qYD/lsNXZ2OPYMhzw2giOfqmFwWxUdnXlUq0109xbRqNYxPNy0RbLnLujGujWD/CT5UfKflrtZc1IP1pzSG8ficDgcDofjQOGnP1/0Lmbn/uWcdQ270sxlbbVnC2W3tUh2sBdq4oosjLmsLIaa4Rzc613exex0Op1O58vByeBdzM59ymlDkQnATCaNRj2Kd08J2+kJSXezFsu2ewtHgdiTszun0+l0Op0HmjvCLYjOfcp0OoNmo2UC0Ja4kUCkONSkFUETVOQmUEfKim0WxEanWxCdTqfT6Xw5OBkmjEE8/N/qsbPD8dJRGopw3o8GbDkbrXVYHmmYJbFYytquKlrSJp1No6szj8HBmlkY8/RXqbew/IMLERW2M2g7HA6Hw+HY73jyo/ldj0F0OPYGc1+ohNnKsha2YeMPsxSA6nLWnszmJgtiu4Uoapnl0H678KKV29lvGIfD4XA4HPsdapRDw2zwLmbnPuOcjU3+DbAuZTpm8+pyjka7kjPpNJ3VzRz8qZvZvkcKx/FxOZ1Op9PpPDCcDBO6mI/8N81AdTj2DOf9cCvy1RbKw7XR8Ye900sY3FqxruZ6PUKxM4dCPotNG0dMNOaycRfzLyyJY3E4HA6Hw3Eg8fhHc1j507iLWY0zObGLOTEvOp0vkZlGG/lahBZ/bmQp+vSBaX1DfWeRrIU8y6u6mNXtnEAWxHDhdDqdTqfzZeEk8C5m5z6h7aBCIai1DyX6tIuKjTfUfStssWc/SnToIkbyXSbxOJ1Op9PpPLCcDBO6mI/+zNgYMofjpWDxkyM4/IkR1GoR6rWmTVDRUjeazTwwUEepmLFnXb0FFItZrH1hyASjxiTWKCJXfHRpHJPD4XA4HI4DiUd/IetdzM79wwXPV22mcivSDOWw7mHOJqiof1meAmRdHLsT4judnE6n0+l0HnhOggkWxGP+NYqdHY6Xhtd9f6NZBEcGwwSVqKkJKkUMDdRs/2VZECvVCN09BRQ7sli3ZsjM2uqGrtPvoz9/cIjI4XA4HA7HAcWKX8zs2oKoBtvpfKnU5BT9BNGkFFkIRyeh8FoWRPkRtP7huNUP4z8BSVxOp9PpdDoPLCfDxC5mh2MPMOf5CtrUiFrv0AQhf3lkMik0eC/rtGB/2/wM4/UP7YsMjxwOh8PhcPwvw4Qu5uM+nbTeDsfu45TbtqB7oIHqSAOVShOFYpauQRpWymHCSr6Q5jN1MefR0ZXHhrXD0A4rmXQKtWYbj39kmcXlcDgcDofjwGL5L6V30sUcW3ISU6PTudukyOsc0U4p2h1F6x6GiSo6a9kbLXejb01dz7pOIDchMSJOiNPpdDqdTucB43gk7bJ3MTv2CsUKxWBDax+2bZFsLW3TjPR5aScVWaTD55eIxwTjLh0Oh8PhcPwvQ+hiZsO+7JBlOOHTiW50OHYP858ZxmErBm1Zm8pIA9lcBo16ZOsfNuimGc3ZWDRKFBZLOXR1522rPc10lptmMT/5kUPiGB0Oh8PhcBxIPPRLqdEuZjXMOk8QiCf+iwtEx0vDa27eiFI1QnmoYQtkd3Tl0KhprrLWQgwsFtO2xI2EYrGYQWdPEf2byqjbhBZQSLbx1IeWoc3nDofD4XA4Diwe/NiOAnG7LmY10E7n7rODYpCfEtqtsICNrjPZ0KUcfm6Ebfb0IyS+teVw5Gc88oMN/p0Yt9PpdDqdzgPBHTFBIE4WxOncGTv762hT7Gn/ZepBpEh1NQtaANtmpsQY1Yc681Emq0+PIjJ271hT2SF+p9PpdDqd+5+TwQWic4+59JkRm5ii9Q4FiT7tmiLRp6VtTPyZAJTvIA51K/Fo4xtkyiZ06lhT3iF+p9PpdDqd+5+TYcIYxJM+tTNvDsdE6Es57eb1yGr84XDdFsjOF7I2DjGTSZvo07jDdquNUimL4XIjHoOYRXdvEcODNVTpN7E+VrtyeO7tS0PkDofD4XA4Dhju/+X2rscgqtF3OneHhUpEcRi6kzWmMOKlxhVqFnNY5kYWw7FxiPY3nMzqKLeMPkTGplO2HCFN9/FpOJ1Op9Pp3P+cDBMsiCd/ars5Kw7HTjBv1TCWPtJvk1PK5aZZELV8jcTe4GDdZivLXVqwWArXetbVkUORlP9qtYlaLWzH14yA569YhmandmFxOBwOh8NxoHDvL7debBazw7F7WLhyCKl0CvV6a3QR7HpdYi9YDuUmSPyZwVDXOvPba0YtZHJp21klsTHqm8xvq9m1w+FwOByOlxcTLIin/LPrRceLQ7OVz/jhGtspZbCfoo7iLqM1DOmey2cwNFxHXgtmN7RQdgv5fBo1CkmhuzNnwlL7MQ8P1DBS1vI2BBXiwKIubDxvfrh3OBwOh8NxQHDPr+xoQZwgEF/zz5nYq8Oxc8x5dghLH+tHRAE4TDHIzwiljqxZDbXMjagJKRHvZWGUeNS1BGRHR84EZU9fkeKygkoldENrZnON5+c+cHicisPhcDgcjgOBu38l2k4gbrfMjcOxOzjohbLNTi6XGyYKNelEIjAbL3Njy9ik0zabWWgH46EJQ4lHngJiYWiXvE5pOz6GdzgcDofD8fJigkBUU+107oq5eoSCdQtrgWyquhgSitp3OYF0XyL+JCC1LqKQLKStSSqZXCb8WiFkxdZlzxPbJk3X6XQ6nU7n/uFkmNDFfNr/5zNIHbvG9HVlHPLAJlQrDTKypW0k/rK5dJikwm8pioBSKQxXGBpu2MeXzaRtcopEYGdHDulsGvliFoNbq6hrCjO1peRltSuPdW9bZmEdDofD4XDsf9z5q03vYnbsHZY+NWD9wZVy0yyDEoT5YhCDsg5KHNo6h1J7ZGI5lEq0S/6xsYqNCLlchl5i66I+Rp5zg3Wka2FnFofD4XA4HC8PJlgQT///crGzw7Ej0o0WTr75BdTKdQwONmyZGs09mT6tgEajjaGhGt3SJvpKxWCNrlWbtnC2Zi5LMAo5LaidTaNnegmbN4yYu6yLEokyJm49bS5GjpwePDscDofD4divuONXG7u2IPLe6dwpD3lkC6JGhHJ5zMKn2cqyCNZqTdN/Eo0Z/YkxOgmFfuQs8WiCkc7aZq/UmUM2Fz5GIUP/PfdumDR9p9PpdDqd+56TYYIF8cxPugXRMTnyIw0c95N1aFSb2Latah+UBKEshfl8BiPDDTRbLesmLvA+rXURCYnAaj0IytzoOMQUw8lPGsXOvC1302yG7mr1TjcoIDe+cSkaM0sWzuFwOBwOx/7D7b/2IhbEiXrS6QxMtVM44v6NaDciCsG6iUB9RLIUFgpaEDuycYfyLWtiatxXZR+Z/PMwP3FYCcJaNbLJKwpTKPAsdUjZmU2nMI1idPt8OJ1Op9Pp3B/cERME4mRBnFObGlF48P3rkR9p2t7JmogiISeq91hrHWrJGvmdDEEQ6qpti2Wry1ndzbIkqrtZO60k4xMlJCU61RWd21pFfqC2Q36cTqfT6XTuW06GCV3Mr/1kIXZ2OPhxULQdtHwTZq0fRq3cwPBww0ShzSfhWV3LhWIGw0NaymZsbKG6nU30Cfy2tHh2ncJSVkSNWWwwAlkObdZyTt3MOWzbWrGJK/WGlsoJ4xhHSllsuuywEI/D4XA4HI79glt/rbZDF3Omt7f343o4ffp0LL7Q10F0xKBIO/i+dZixsYyRwRpq8dIzyWLY2WwGnRR25bK2ygvWQUE7qsiqaB9ZDIXRU1kPI/rN2Men59qCr4WungJGhrRln7qow5qJijNTb6E2vYSIzx0Oh8PhcOwfPPfDCP1b+ycIRO9idu7AHMXgEbevRsfaYQxuq9p4QQlAWfYEiUAZCNOZMOZQlkBTgISubRxiuCXCVaqUw+Ah02KhGMYdSgTKQUvhaGKLkMyK1qN8No2Zt65GNhaPTqfT6XQ69z0nw4Qu5nP+qRg7O6Yqpq0exNwVm9CgKEu2xaNesw8o2QlFFr7Orpx1HWuiiUYTtmLLYka7pDQiE5H6JSKrYZ2Cs9Gdx5o3HorsSAN9969D8flBm4wiqDu6p6+Iga0Vu08ms0goatmbGq/7T1uA6pJee+5wOBwOh2Pf4Ue/XvWdVByTo0hBuOSuNZh97zpU+mU1DOJQkI5rUqzVZ3Ugk82QaetGbtQj+4gkDtv0tOW8JVj91iOw6YyFaBSyEyavZEfqttB2szOHza9dhIFT5qOdC5+fJq2I+jBHFvbY85H5XRanIihSMM687QX03fIcclsqNjbS4XA4HA7H/sMEC+K5/+gWxKmGbDXCzJVbMePZbSiPNMxqNx4SgJViFv2nHYTmtCIWffsJdPcUUCk3zIKormCJx20UfOXDxnY/STUizL/uGRSqjFMCkv42nXEQyovGrICZahNzb3gW2eG6WRE16aXM8wtvPpRPU0hTgPbduxZd60eQsn2egRqFa2NWJ4ZPnM38lNAqhK5ph8PhcDgce4ZbfmNHC+IEgXjeP/rCxFMFaQqt2Y9vxMwXhmxfZVkDBX0UZvejUKvN7UD/MXPQmM7vgt/I/KueQl8mZZNOJBDlt8br/vOWojavy8Jvj4VffxQpKTv+iwpZrHnrEfGTMcy8/Xl0vDCIXDZtonPzWYtQPqgnfhrQ+8hG9DyxGWmmp/GQdYlTutcX9mD45PmIunIh8w6Hw+FwOF4Sbv6NigvEqY5spYmF961BcbiGRqVBYdhGk8KtPq2E2pxOVGd3otmdR1sziSkGE8y5YSWmVzVjGWZpFJodWay/8BC04n2XJ0OG6c2/+kmkKOyE1ZcfhTaF4HgoztLGEcy+ZRWYLCRVn3/70eHhOKS0PM5QHX0rNqFjzaB1S8vg2SSHT5iH4aNnxD4dDofD4XDsLl5UIJ7/Dx2xV8crFRkKtVy1hTaFWEtiTLOGsxKCY2Jwe8y8dRVmDFat+7labtrHs+2keRhaOp0R7jxcguKGEcy65Rm7Hj5sJvpfNc+ut0e2XMe0uyleNwxj09lLUJ3XHT/ZERrPmK43kaI6bOXSiDp8m0iHw+FwOPYEN/1medcC8QIXiI7tMPPeFzBz4wjq9ci6oYcpCoeOnoVmZz72sXvoe2gdup7YjKiYwbq3HBW7TgJ+i4V1w2h35FHv8/UPHQ6Hw+HY37hxEoE4sa/P4YihcYNzH1yHWZtGUGlEGJjThXUXHYb+Uxa8ZHEobDtuHprdBWS0//JwPXadBPwqa/O7XRw6HA6Hw/EyYoIF8XX/0Bk7O6Y6CiMNzHtwDfp7Sxg6YpZ14+4tNB5x7vcex/DhMzFw4uTdzA6Hw+FwOA4sbvjNkV13Mb/+710gOvYvSs9uxbR712Dt24+NXRwOh8PhcLycuP63dhSI3sXsOKCoLJ2ORm8RiGc1OxwOh8Ph+F8AisIxUCSOtyBe+PeTr2XncOxLpJotpKkPo33Qbe1wOBwOh2Pv8MPfGsbKlSslC2MLYmqiBVHi0enc30Q2bWMaJ3vmdDqdTqfzwHIyTLAgXvR3O193zuFwOBwOh8PxysN1vz3kFkSn0+l0Op1O5xgngwtEp9PpdDqdzinMybDdLIHJgjmdTqfT6XQ6X7ncERPGIF7ytz2xs8PhcDgcDodjKuCa/ze4wxjECQLx0r/tjb06HA6Hw+FwOKYCvv//BnY9ScXhcDgcDofD4fBJKk6n0+l0Op1TmJNhQhfzm/6mL3Z2OBwOh8PhcEwFXPU727bbi9m7mB0Oh8PhcDgc28G7mJ1Op9PpdDqnMCfDhC7mt/zNtNjZ4XA4HA6HwzEV8N3f6d+hiznT29v7cT2cPn06jrigZB4dDofD4XA4HFMDT9xYRf/W/gkCcYIF8Wf+enrs1eFwOBwOh8MxFfCd392660kqSV+00+l0Op1Op3NqcDL4LGaHw+FwOBwOxwRM6GK+7K9mxM4Oh8PhcDgcjqmAb/3eFu9idjqdTqfT6XSOcTJ4F7PD4XA4HA6HYwJCFzPaWLZsGS7/q5mxs8PhcDgcDodjKuDK39u8XRfzdgLx7X/pAtHhcDgcDodjKuEbv/8iAvEdfzkr9upwOBwOh8PhmAr4+u9v2kEg+hhEh8PhcDgcDscE+Cxmp9PpdDqdzinMyTChi/mKv5gdOzscDofD4XA4pgK++gcbvYvZ4XA4HA6Hw7FrTLAgvusv5sTODofD4XA4HI6pgK/8wYZdz2J+95+7QHQ4HA6Hw+GYSvjyH+4oEL2L2eFwOBwOh8MxARMsiO/587mxs8PhcDgcDodjKuBLf7h+1xZE3judTqfT6XQ6pxAnQ6a3t/fjupg+fTqOP7fLHB0Oh8PhcDgcUwPLbxlGf38/xSLlYmxBnNDF/L5PzIu9OhwOh8PhcDimAv77j9Zh5cqVEwSidzE7nU6n0+l0TmFOhu1mMU8WzOl0Op1Op9P5yuWOmNDF/IE/mx87OxwOh8PhcDimAv7rj9d6F7PT6XQ6nU6nc4yTwbuYnU6n0+l0Oqc0d4RbEJ1Op9PpdDqnMCfDhDGIP/unB8XODofD4XA4HI6pgM//yQu7HoPocDgcDofD4XB4F7PT6XQ6nU7nFOZkmNDF/HN/ujB2djgcDofD4XBMBfzHn6we7WJOqX+ZnLAX80nn9JpHh8PhcDgcDsfUwAM/GhzdizkRiN7F7HQ6nU6n0zmFORkmdDH//McXxc4Oh8PhcDgcjqmAz378+R26mH0Ws8PhcDgcDodjAiZYED/6J4tjZ4fD4XA4HA7HVMC//elzu7Ygju+PdjqdTqfT6XS+8jkZvIvZ4XA4HA6HwzEBE7qYf/FPlsTODofD4XA4HI6pgH/901U7dDFPEIi/9McuEB0Oh8PhcDimEj79ZzsKRO9idjgcDofD4XBMwAQL4sf+eGns7HA4HA6Hw+GYCviXP3vWZzE7nU6n0+l0Osc4GSZYEH/5jw6OnR0Oh8PhcDgcUwGf+sQzbkF0Op1Op9PpdI5xMrhAdDqdTqfT6ZzCnAzbzWKeLJjT6XQ6nU6n85XLHTFhDOKv/eGy2NnhcDgcDofDMRXwyT9fueuFsn/9Dw+JvTocDofD4XA4pgL+6c9/6pNUnE6n0+l0Op1jnAyZ3t7ej+ti+vTpOO2s6ebocDgcDofD4ZgauPO2rejv76dY3EkX82/+waGxV4fD4XA4HA7HVMA//MXT3sXsdDqdTqfT6RzjZEjv9InD4XA4HA6HY8rBhOPCRYvahHUx//bvHxaeOBwOh8PhcDimBP7uL5+a0MUsehez0+l0Op1O5xTmZPCdVJxOp9PpdDqnNHeEWxCdTqfT6XQ6pzAnw4QxiL/7e4fHzg6Hw+FwOByOqYC//qsndzYGUU7h7HQ6nU6n0+mcSowx7ta7mJ1Op9PpdDqnPPV3DNbFjDaweMli/NqvHoHu7mz8yOFwOBwOh8PxSsbQUBOf/OQTeO6550wpWhczj0xvb5/txVwqlrDskD7MmJ63AA6Hw+FwOByOVzaee76M++9fj5HhEalD/QtjEBODYq1ew4Z1FTMwOp1Op9PpdDpf+ZT2q9fqvAr3o38XLVrcVh9zLpvDkiWL8PMfXobpbkV0OBwOh8PheEVj69Y6Pvu5lVi16nk0mg1KQ4pDsyJqFnMQimg0Gti4cTOuv2l9cHA4HA6Hw+FwvGIhzSftJw1okD4MV0gtWrzE1kGE2RHbmD9vPo49ZhYuPH+uWxIdDofD4XA4XmGQ5fCHFIfLV2zE+vXrqQFlOEyshxKJPCQQE3EonSj09vZg9uyZOOu0WZg7p4h5c0vo6c6Fhw6Hw+FwOByO/1MYHGpg3foK1m+o4rY7N5nlcHBgMDyMRWHSvWwi0QRiIg7HCcVcLovurm7kC3kUC0VkMmk+kR/92Rl2+XCX2OOQe57kXuDAJ/p/q5gvS24POKbIp0dMjff58oD/F54KeBmKOUVqltjDkk6Zd3LgU5W4OvDYRaJ8pKfNZoRarYpavY7h4WE0Gs1Ra2EQhuOvycVLki5m/osFYvgnoTh2Pf68M9jzPcUeBn050twb7HF+9zive17Il6F6/m+9k/9rmCLFdLwI1FI4dgprIA809iLJPQ/6f6ecL8c7se7WA429SHKXdcRH9nyCCAzn0K2cuI1/zr9BICoGNpPjBOHOxKGdd4I4ogOLvUhyV2XZJV6WYk6BvO4NXoYk9wYvSx05HC8TrMGZCtjDYu5d7bwsie4RXpbvYI+rZy/y+r8sTYvX/o0/8+94N90n7gqj85IlS6nr1FyxwdI/uybGu+kIjvZvZ4hD7hn2MOhUSXNPsVd53VO8DEnuTaL/x7Lr2E94Of5bCf8rduwUL0P17F2Sexj6/9Bn8LJ8s3uR5B7n95WUpj2iD57N3+h5vFu4tjtd68oEov7XqP83bicKk/P21sSdwZ4faOxFknuc35elmFMgr3uDlyHJvUn0ZcnuVMH/pcq1/yG/8vHyFPNlSPVlSfIAJ7oXyR3wvAp7mORe5fXlSHNXSARfUIMhndgtud+xqxn4/wGqaFXJCPVBhQAAAABJRU5ErkJggg==;" vertex="1" parent="1">
          <mxGeometry x="1300" y="220" width="648" height="524" as="geometry" />
        </mxCell>
      </root>
    </mxGraphModel>
  </diagram>
</mxfile>
